<svg width="122" height="122" viewBox="0 0 122 122" fill="none" xmlns="http://www.w3.org/2000/svg">
<circle cx="61" cy="61" r="60" stroke="#5BAEE2" stroke-width="2"/>
<circle cx="93.5333" cy="111.543" r="9.45714" fill="#5BAEE2" stroke="#5BAEE2" stroke-width="2"/>
<g clip-path="url(#clip0)">
<path d="M94.1244 112.305L94.1244 115.165C94.1244 115.481 93.8683 115.737 93.5526 115.736L93.1714 115.736C92.8553 115.736 92.5992 115.48 92.5995 115.165L92.5995 112.305L89.7399 112.306C89.4239 112.306 89.1678 112.049 89.1681 111.734L89.1678 111.352C89.1678 111.036 89.4239 110.78 89.7396 110.78L92.5995 110.78L92.5995 107.921C92.5995 107.605 92.8556 107.349 93.1714 107.349L93.5526 107.349C93.8685 107.349 94.1246 107.605 94.1244 107.921L94.1244 110.78L96.9837 110.78C97.2997 110.78 97.5558 111.037 97.5556 111.352V111.733C97.5555 112.049 97.2994 112.306 96.9837 112.305L94.1244 112.305Z" fill="white"/>
</g>
<path d="M48.001 61.5C44.101 61.5 41.001 64.6 41.001 68.5C41.001 72.4 44.101 75.5 48.001 75.5C51.901 75.5 55.001 72.4 55.001 68.5C55.001 64.6 51.901 61.5 48.001 61.5ZM48.001 73.5C45.201 73.5 43.0009 71.3 43.0009 68.5C43.0009 65.7 45.201 63.5 48.001 63.5C50.801 63.5 53.001 65.7 53.001 68.5C53.0009 71.3 50.801 73.5 48.001 73.5Z" fill="#5BAEE2"/>
<path d="M48 73.5001C41.9 73.5001 37 78.4 37 84.5H39C39 79.5 43 75.5 47.9999 75.5C52.9999 75.5 56.9999 79.5001 56.9999 84.5H58.9999C59 78.4 54.1 73.5001 48 73.5001Z" fill="#5BAEE2"/>
<path d="M74 61.5C70.1 61.5 67 64.6 67 68.5C67 72.4 70.1 75.5 74 75.5C77.9 75.5 81 72.4 81 68.5C81 64.6 77.9 61.5 74 61.5ZM74 73.5C71.2 73.5 69 71.3 69 68.5C69 65.7 71.1999 63.5 74 63.5C76.8001 63.5 79 65.7 79 68.5C78.9999 71.3 76.8 73.5 74 73.5Z" fill="#5BAEE2"/>
<path d="M74 73.5001C67.9 73.5001 63 78.4 63 84.5H65C65 79.5 69 75.5 73.9999 75.5C78.9999 75.5 82.9999 79.5001 82.9999 84.5H84.9999C85 78.4 80.1 73.5001 74 73.5001Z" fill="#5BAEE2"/>
<path d="M61.001 37.5001C57.101 37.5001 54.001 40.6001 54.001 44.5001C54.001 48.4001 57.101 51.5001 61.001 51.5001C64.901 51.5001 68.001 48.4001 68.001 44.5001C68.001 40.6001 64.901 37.5001 61.001 37.5001ZM61.001 49.5001C58.201 49.5001 56.001 47.3 56.001 44.5001C56.001 41.7001 58.201 39.5 61.001 39.5C63.801 39.5 66.001 41.7001 66.001 44.5001C66.001 47.3 63.801 49.5001 61.001 49.5001Z" fill="#5BAEE2"/>
<path d="M61 49.5C54.9 49.5 50 54.4 50 60.5H52C52 55.5 56 51.5001 60.9999 51.5001C65.9999 51.5001 69.9999 55.5001 69.9999 60.5H71.9999C72 54.4 67.1 49.5 61 49.5Z" fill="#5BAEE2"/>
<defs>
<clipPath id="clip0">
<rect width="6.53571" height="6.53571" fill="white" transform="matrix(0.707107 0.707107 0.707107 -0.707107 88.7402 111.543)"/>
</clipPath>
</defs>
</svg>
