<svg width="95" height="95" viewBox="0 0 95 95" fill="none" xmlns="http://www.w3.org/2000/svg">
<rect x="1" y="1" width="93" height="93" rx="11" stroke="#5BAEE2" stroke-width="2"/>
<path d="M48 32C39.7287 32 33 38.7287 33 47C33 55.2712 39.7287 62 48 62C56.2712 62 63 55.2712 63 47C63 38.7287 56.2712 32 48 32ZM54.5625 48.25H49.25V53.5625C49.25 54.2525 48.69 54.8125 48 54.8125C47.31 54.8125 46.75 54.2525 46.75 53.5625V48.25H41.4375C40.7475 48.25 40.1875 47.69 40.1875 47C40.1875 46.31 40.7475 45.75 41.4375 45.75H46.75V40.4375C46.75 39.7475 47.31 39.1875 48 39.1875C48.69 39.1875 49.25 39.7475 49.25 40.4375V45.75H54.5625C55.2525 45.75 55.8125 46.31 55.8125 47C55.8125 47.69 55.2525 48.25 54.5625 48.25Z" fill="#5BAEE2"/>
</svg>
