<svg width="50" height="50" viewBox="0 0 50 50" fill="none" xmlns="http://www.w3.org/2000/svg">
<circle cx="25" cy="25" r="24.5" stroke="#5BAEE2"/>
<g clip-path="url(#clip0)">
<path d="M26.238 26.1665L26.238 30.5416C26.238 31.025 25.8462 31.4168 25.3631 31.4164L24.7799 31.4164C24.2963 31.4164 23.9045 31.0246 23.9049 30.5415L23.9049 26.1666L19.5295 26.167C19.0461 26.167 18.6542 25.7751 18.6546 25.2921L18.6542 24.7084C18.6542 24.2249 19.0461 23.833 19.5291 23.8334L23.9049 23.8334L23.9049 19.4585C23.9049 18.975 24.2968 18.5831 24.7799 18.5836L25.3631 18.5836C25.8465 18.5836 26.2384 18.9754 26.238 19.4584L26.238 23.8335L30.613 23.8334C31.0965 23.8335 31.4883 24.2254 31.4879 24.7084V25.2916C31.4879 25.7751 31.096 26.167 30.613 26.1666L26.238 26.1665Z" fill="#5BAEE2"/>
</g>
<defs>
<clipPath id="clip0">
<rect width="10" height="10" fill="white" transform="matrix(0.707107 0.707107 0.707107 -0.707107 18 25)"/>
</clipPath>
</defs>
</svg>
