<svg width="82" height="25" viewBox="0 0 82 25" fill="none" xmlns="http://www.w3.org/2000/svg">
<rect width="82" height="25" rx="12.5" fill="#EAF7FF"/>
<path d="M29.9132 14.936H27.6892L27.3212 16H26.1452L28.1532 10.408H29.4572L31.4652 16H30.2812L29.9132 14.936ZM29.6092 14.04L28.8012 11.704L27.9932 14.04H29.6092ZM35.0078 10.416C35.5944 10.416 36.1091 10.5307 36.5518 10.76C36.9998 10.9893 37.3438 11.3173 37.5838 11.744C37.8291 12.1653 37.9518 12.656 37.9518 13.216C37.9518 13.776 37.8291 14.2667 37.5838 14.688C37.3438 15.104 36.9998 15.4267 36.5518 15.656C36.1091 15.8853 35.5944 16 35.0078 16H33.0557V10.416H35.0078ZM34.9678 15.048C35.5544 15.048 36.0077 14.888 36.3277 14.568C36.6478 14.248 36.8078 13.7973 36.8078 13.216C36.8078 12.6347 36.6478 12.1813 36.3277 11.856C36.0077 11.5253 35.5544 11.36 34.9678 11.36H34.1757V15.048H34.9678ZM45.7181 10.416V16H44.5981V12.368L43.1021 16H42.2541L40.7501 12.368V16H39.6301V10.416H40.9021L42.6781 14.568L44.4541 10.416H45.7181ZM48.7854 10.416V16H47.6654V10.416H48.7854ZM55.508 16H54.388L51.852 12.168V16H50.732V10.408H51.852L54.388 14.248V10.408H55.508V16Z" fill="#42A1DC"/>
</svg>
