<svg width="315" height="54" viewBox="0 0 315 54" fill="none" xmlns="http://www.w3.org/2000/svg">
<rect x="0.5" y="0.5" width="314" height="53" rx="26.5" stroke="#E4E7F1"/>
<path d="M110.84 32.098C110.159 32.098 109.543 31.9813 108.992 31.748C108.451 31.5147 108.021 31.1787 107.704 30.74C107.387 30.3013 107.223 29.7833 107.214 29.186H109.314C109.342 29.5873 109.482 29.9047 109.734 30.138C109.995 30.3713 110.35 30.488 110.798 30.488C111.255 30.488 111.615 30.3807 111.876 30.166C112.137 29.942 112.268 29.6527 112.268 29.298C112.268 29.0087 112.179 28.7707 112.002 28.584C111.825 28.3973 111.601 28.2527 111.33 28.15C111.069 28.038 110.705 27.9167 110.238 27.786C109.603 27.5993 109.085 27.4173 108.684 27.24C108.292 27.0533 107.951 26.778 107.662 26.414C107.382 26.0407 107.242 25.546 107.242 24.93C107.242 24.3513 107.387 23.8473 107.676 23.418C107.965 22.9887 108.371 22.662 108.894 22.438C109.417 22.2047 110.014 22.088 110.686 22.088C111.694 22.088 112.511 22.3353 113.136 22.83C113.771 23.3153 114.121 23.9967 114.186 24.874H112.03C112.011 24.538 111.867 24.2627 111.596 24.048C111.335 23.824 110.985 23.712 110.546 23.712C110.163 23.712 109.855 23.81 109.622 24.006C109.398 24.202 109.286 24.4867 109.286 24.86C109.286 25.1213 109.37 25.3407 109.538 25.518C109.715 25.686 109.93 25.826 110.182 25.938C110.443 26.0407 110.807 26.162 111.274 26.302C111.909 26.4887 112.427 26.6753 112.828 26.862C113.229 27.0487 113.575 27.3287 113.864 27.702C114.153 28.0753 114.298 28.5653 114.298 29.172C114.298 29.6947 114.163 30.18 113.892 30.628C113.621 31.076 113.225 31.4353 112.702 31.706C112.179 31.9673 111.559 32.098 110.84 32.098ZM118.461 23.32C118.116 23.32 117.827 23.2127 117.593 22.998C117.369 22.774 117.257 22.4987 117.257 22.172C117.257 21.8453 117.369 21.5747 117.593 21.36C117.827 21.136 118.116 21.024 118.461 21.024C118.807 21.024 119.091 21.136 119.315 21.36C119.549 21.5747 119.665 21.8453 119.665 22.172C119.665 22.4987 119.549 22.774 119.315 22.998C119.091 23.2127 118.807 23.32 118.461 23.32ZM119.427 24.244V32H117.467V24.244H119.427ZM125.872 24.118C126.451 24.118 126.959 24.2347 127.398 24.468C127.837 24.692 128.182 24.986 128.434 25.35V24.244H130.408V32.056C130.408 32.7747 130.263 33.414 129.974 33.974C129.685 34.5433 129.251 34.9913 128.672 35.318C128.093 35.654 127.393 35.822 126.572 35.822C125.471 35.822 124.565 35.5653 123.856 35.052C123.156 34.5387 122.759 33.8387 122.666 32.952H124.612C124.715 33.3067 124.934 33.5867 125.27 33.792C125.615 34.0067 126.031 34.114 126.516 34.114C127.085 34.114 127.547 33.9413 127.902 33.596C128.257 33.26 128.434 32.7467 128.434 32.056V30.852C128.182 31.216 127.832 31.5193 127.384 31.762C126.945 32.0047 126.441 32.126 125.872 32.126C125.219 32.126 124.621 31.958 124.08 31.622C123.539 31.286 123.109 30.8147 122.792 30.208C122.484 29.592 122.33 28.8873 122.33 28.094C122.33 27.31 122.484 26.6147 122.792 26.008C123.109 25.4013 123.534 24.9347 124.066 24.608C124.607 24.2813 125.209 24.118 125.872 24.118ZM128.434 28.122C128.434 27.646 128.341 27.24 128.154 26.904C127.967 26.5587 127.715 26.2973 127.398 26.12C127.081 25.9333 126.74 25.84 126.376 25.84C126.012 25.84 125.676 25.9287 125.368 26.106C125.06 26.2833 124.808 26.5447 124.612 26.89C124.425 27.226 124.332 27.6273 124.332 28.094C124.332 28.5607 124.425 28.9713 124.612 29.326C124.808 29.6713 125.06 29.9373 125.368 30.124C125.685 30.3107 126.021 30.404 126.376 30.404C126.74 30.404 127.081 30.3153 127.398 30.138C127.715 29.9513 127.967 29.69 128.154 29.354C128.341 29.0087 128.434 28.598 128.434 28.122ZM138.09 24.132C139.014 24.132 139.761 24.426 140.33 25.014C140.899 25.5927 141.184 26.4047 141.184 27.45V32H139.224V27.716C139.224 27.1 139.07 26.6287 138.762 26.302C138.454 25.966 138.034 25.798 137.502 25.798C136.961 25.798 136.531 25.966 136.214 26.302C135.906 26.6287 135.752 27.1 135.752 27.716V32H133.792V24.244H135.752V25.21C136.013 24.874 136.345 24.6127 136.746 24.426C137.157 24.23 137.605 24.132 138.09 24.132ZM150.318 23.32C149.973 23.32 149.683 23.2127 149.45 22.998C149.226 22.774 149.114 22.4987 149.114 22.172C149.114 21.8453 149.226 21.5747 149.45 21.36C149.683 21.136 149.973 21.024 150.318 21.024C150.663 21.024 150.948 21.136 151.172 21.36C151.405 21.5747 151.522 21.8453 151.522 22.172C151.522 22.4987 151.405 22.774 151.172 22.998C150.948 23.2127 150.663 23.32 150.318 23.32ZM151.284 24.244V32H149.324V24.244H151.284ZM158.988 24.132C159.912 24.132 160.659 24.426 161.228 25.014C161.798 25.5927 162.082 26.4047 162.082 27.45V32H160.122V27.716C160.122 27.1 159.968 26.6287 159.66 26.302C159.352 25.966 158.932 25.798 158.4 25.798C157.859 25.798 157.43 25.966 157.112 26.302C156.804 26.6287 156.65 27.1 156.65 27.716V32H154.69V24.244H156.65V25.21C156.912 24.874 157.243 24.6127 157.644 24.426C158.055 24.23 158.503 24.132 158.988 24.132ZM180.974 24.244L178.706 32H176.592L175.178 26.582L173.764 32H171.636L169.354 24.244H171.342L172.714 30.152L174.198 24.244H176.27L177.726 30.138L179.098 24.244H180.974ZM184.499 23.32C184.153 23.32 183.864 23.2127 183.631 22.998C183.407 22.774 183.295 22.4987 183.295 22.172C183.295 21.8453 183.407 21.5747 183.631 21.36C183.864 21.136 184.153 21.024 184.499 21.024C184.844 21.024 185.129 21.136 185.353 21.36C185.586 21.5747 185.703 21.8453 185.703 22.172C185.703 22.4987 185.586 22.774 185.353 22.998C185.129 23.2127 184.844 23.32 184.499 23.32ZM185.465 24.244V32H183.505V24.244H185.465ZM191.153 25.854V29.606C191.153 29.8673 191.214 30.0587 191.335 30.18C191.466 30.292 191.681 30.348 191.979 30.348H192.889V32H191.657C190.005 32 189.179 31.1973 189.179 29.592V25.854H188.255V24.244H189.179V22.326H191.153V24.244H192.889V25.854H191.153ZM200.137 24.132C200.725 24.132 201.248 24.2627 201.705 24.524C202.162 24.776 202.517 25.154 202.769 25.658C203.03 26.1527 203.161 26.75 203.161 27.45V32H201.201V27.716C201.201 27.1 201.047 26.6287 200.739 26.302C200.431 25.966 200.011 25.798 199.479 25.798C198.938 25.798 198.508 25.966 198.191 26.302C197.883 26.6287 197.729 27.1 197.729 27.716V32H195.769V21.64H197.729V25.21C197.981 24.874 198.317 24.6127 198.737 24.426C199.157 24.23 199.624 24.132 200.137 24.132ZM217.293 30.138H213.401L212.757 32H210.699L214.213 22.214H216.495L220.009 32H217.937L217.293 30.138ZM216.761 28.57L215.347 24.482L213.933 28.57H216.761ZM224.752 25.364C225.004 25.0093 225.35 24.7153 225.788 24.482C226.236 24.2393 226.745 24.118 227.314 24.118C227.977 24.118 228.574 24.2813 229.106 24.608C229.648 24.9347 230.072 25.4013 230.38 26.008C230.698 26.6053 230.856 27.3007 230.856 28.094C230.856 28.8873 230.698 29.592 230.38 30.208C230.072 30.8147 229.648 31.286 229.106 31.622C228.574 31.958 227.977 32.126 227.314 32.126C226.745 32.126 226.241 32.0093 225.802 31.776C225.373 31.5427 225.023 31.2487 224.752 30.894V35.696H222.792V24.244H224.752V25.364ZM228.854 28.094C228.854 27.6273 228.756 27.226 228.56 26.89C228.374 26.5447 228.122 26.2833 227.804 26.106C227.496 25.9287 227.16 25.84 226.796 25.84C226.442 25.84 226.106 25.9333 225.788 26.12C225.48 26.2973 225.228 26.5587 225.032 26.904C224.846 27.2493 224.752 27.6553 224.752 28.122C224.752 28.5887 224.846 28.9947 225.032 29.34C225.228 29.6853 225.48 29.9513 225.788 30.138C226.106 30.3153 226.442 30.404 226.796 30.404C227.16 30.404 227.496 30.3107 227.804 30.124C228.122 29.9373 228.374 29.6713 228.56 29.326C228.756 28.9807 228.854 28.57 228.854 28.094ZM235.71 25.364C235.962 25.0093 236.308 24.7153 236.746 24.482C237.194 24.2393 237.703 24.118 238.272 24.118C238.935 24.118 239.532 24.2813 240.064 24.608C240.606 24.9347 241.03 25.4013 241.338 26.008C241.656 26.6053 241.814 27.3007 241.814 28.094C241.814 28.8873 241.656 29.592 241.338 30.208C241.03 30.8147 240.606 31.286 240.064 31.622C239.532 31.958 238.935 32.126 238.272 32.126C237.703 32.126 237.199 32.0093 236.76 31.776C236.331 31.5427 235.981 31.2487 235.71 30.894V35.696H233.75V24.244H235.71V25.364ZM239.812 28.094C239.812 27.6273 239.714 27.226 239.518 26.89C239.332 26.5447 239.08 26.2833 238.762 26.106C238.454 25.9287 238.118 25.84 237.754 25.84C237.4 25.84 237.064 25.9333 236.746 26.12C236.438 26.2973 236.186 26.5587 235.99 26.904C235.804 27.2493 235.71 27.6553 235.71 28.122C235.71 28.5887 235.804 28.9947 235.99 29.34C236.186 29.6853 236.438 29.9513 236.746 30.138C237.064 30.3153 237.4 30.404 237.754 30.404C238.118 30.404 238.454 30.3107 238.762 30.124C239.08 29.9373 239.332 29.6713 239.518 29.326C239.714 28.9807 239.812 28.57 239.812 28.094ZM246.669 21.64V32H244.709V21.64H246.669ZM257.285 27.954C257.285 28.234 257.267 28.486 257.229 28.71H251.559C251.606 29.27 251.802 29.7087 252.147 30.026C252.493 30.3433 252.917 30.502 253.421 30.502C254.149 30.502 254.667 30.1893 254.975 29.564H257.089C256.865 30.3107 256.436 30.9267 255.801 31.412C255.167 31.888 254.387 32.126 253.463 32.126C252.717 32.126 252.045 31.9627 251.447 31.636C250.859 31.3 250.397 30.8287 250.061 30.222C249.735 29.6153 249.571 28.9153 249.571 28.122C249.571 27.3193 249.735 26.6147 250.061 26.008C250.388 25.4013 250.845 24.9347 251.433 24.608C252.021 24.2813 252.698 24.118 253.463 24.118C254.201 24.118 254.859 24.2767 255.437 24.594C256.025 24.9113 256.478 25.364 256.795 25.952C257.122 26.5307 257.285 27.198 257.285 27.954ZM255.255 27.394C255.246 26.89 255.064 26.4887 254.709 26.19C254.355 25.882 253.921 25.728 253.407 25.728C252.922 25.728 252.511 25.8773 252.175 26.176C251.849 26.4653 251.648 26.8713 251.573 27.394H255.255Z" fill="#393939"/>
<path d="M57.8256 33.7033C57.462 34.5418 57.0317 35.3136 56.5331 36.0232C55.8534 36.9906 55.2969 37.6602 54.8681 38.032C54.2033 38.6424 53.491 38.955 52.7282 38.9728C52.1806 38.9728 51.5203 38.8172 50.7516 38.5017C49.9804 38.1876 49.2717 38.032 48.6236 38.032C47.944 38.032 47.215 38.1876 46.4354 38.5017C45.6545 38.8172 45.0255 38.9816 44.5445 38.9979C43.8131 39.0291 43.084 38.7076 42.3563 38.032C41.8918 37.6276 41.3108 36.9343 40.6149 35.9521C39.8681 34.9033 39.2542 33.687 38.7733 32.3004C38.2582 30.8026 38 29.3523 38 27.9482C38 26.3398 38.3481 24.9526 39.0454 23.7901C39.5935 22.8564 40.3225 22.1198 41.235 21.5791C42.1475 21.0383 43.1334 20.7628 44.1952 20.7452C44.7762 20.7452 45.538 20.9246 46.4848 21.2771C47.4289 21.6309 48.0351 21.8103 48.3008 21.8103C48.4995 21.8103 49.173 21.6005 50.3146 21.1823C51.3941 20.7945 52.3053 20.6339 53.0517 20.6972C55.0743 20.8601 56.5939 21.6561 57.6045 23.0901C55.7955 24.1843 54.9007 25.7169 54.9185 27.6829C54.9349 29.2142 55.4913 30.4886 56.585 31.5004C57.0806 31.97 57.6342 32.333 58.25 32.5907C58.1164 32.9774 57.9755 33.3477 57.8256 33.7033ZM53.1868 15.4801C53.1868 16.6804 52.7475 17.8011 51.872 18.8384C50.8154 20.0716 49.5374 20.7841 48.1516 20.6717C48.1339 20.5277 48.1237 20.3761 48.1237 20.2169C48.1237 19.0646 48.6261 17.8315 49.5184 16.8232C49.9639 16.3127 50.5305 15.8882 51.2176 15.5496C51.9031 15.2161 52.5516 15.0316 53.1615 15C53.1793 15.1605 53.1868 15.3209 53.1868 15.4801V15.4801Z" fill="#393939"/>
</svg>
