<svg width="317" height="54" viewBox="0 0 317 54" fill="none" xmlns="http://www.w3.org/2000/svg">
<path d="M58.8256 33.7033C58.462 34.5418 58.0317 35.3136 57.5331 36.0232C56.8534 36.9906 56.2969 37.6602 55.8681 38.032C55.2033 38.6424 54.491 38.955 53.7282 38.9728C53.1806 38.9728 52.5203 38.8172 51.7516 38.5017C50.9804 38.1876 50.2717 38.032 49.6236 38.032C48.944 38.032 48.215 38.1876 47.4354 38.5017C46.6545 38.8172 46.0255 38.9816 45.5445 38.9979C44.8131 39.0291 44.084 38.7076 43.3563 38.032C42.8918 37.6276 42.3108 36.9343 41.6149 35.9521C40.8681 34.9033 40.2542 33.687 39.7733 32.3004C39.2582 30.8026 39 29.3523 39 27.9482C39 26.3398 39.3481 24.9526 40.0454 23.7901C40.5935 22.8564 41.3225 22.1198 42.235 21.5791C43.1475 21.0383 44.1334 20.7628 45.1952 20.7452C45.7762 20.7452 46.538 20.9246 47.4848 21.2771C48.4289 21.6309 49.0351 21.8103 49.3008 21.8103C49.4995 21.8103 50.173 21.6005 51.3146 21.1823C52.3941 20.7945 53.3053 20.6339 54.0517 20.6972C56.0743 20.8601 57.5939 21.6561 58.6045 23.0901C56.7955 24.1843 55.9007 25.7169 55.9185 27.6829C55.9349 29.2142 56.4913 30.4886 57.585 31.5004C58.0806 31.97 58.6342 32.333 59.25 32.5907C59.1164 32.9774 58.9755 33.3477 58.8256 33.7033ZM54.1868 15.4801C54.1868 16.6804 53.7475 17.8011 52.872 18.8384C51.8154 20.0716 50.5374 20.7841 49.1516 20.6717C49.1339 20.5277 49.1237 20.3761 49.1237 20.2169C49.1237 19.0646 49.6261 17.8315 50.5184 16.8232C50.9639 16.3127 51.5305 15.8882 52.2176 15.5496C52.9031 15.2161 53.5516 15.0316 54.1615 15C54.1793 15.1605 54.1868 15.3209 54.1868 15.4801V15.4801Z" fill="#393939"/>
<path d="M114.576 30.446H117.796V32H112.616V22.228H114.576V30.446ZM123.956 32.126C123.209 32.126 122.537 31.9627 121.94 31.636C121.343 31.3 120.871 30.8287 120.526 30.222C120.19 29.6153 120.022 28.9153 120.022 28.122C120.022 27.3287 120.195 26.6287 120.54 26.022C120.895 25.4153 121.375 24.9487 121.982 24.622C122.589 24.286 123.265 24.118 124.012 24.118C124.759 24.118 125.435 24.286 126.042 24.622C126.649 24.9487 127.125 25.4153 127.47 26.022C127.825 26.6287 128.002 27.3287 128.002 28.122C128.002 28.9153 127.82 29.6153 127.456 30.222C127.101 30.8287 126.616 31.3 126 31.636C125.393 31.9627 124.712 32.126 123.956 32.126ZM123.956 30.418C124.311 30.418 124.642 30.334 124.95 30.166C125.267 29.9887 125.519 29.7273 125.706 29.382C125.893 29.0367 125.986 28.6167 125.986 28.122C125.986 27.3847 125.79 26.82 125.398 26.428C125.015 26.0267 124.544 25.826 123.984 25.826C123.424 25.826 122.953 26.0267 122.57 26.428C122.197 26.82 122.01 27.3847 122.01 28.122C122.01 28.8593 122.192 29.4287 122.556 29.83C122.929 30.222 123.396 30.418 123.956 30.418ZM133.948 24.118C134.526 24.118 135.035 24.2347 135.474 24.468C135.912 24.692 136.258 24.986 136.51 25.35V24.244H138.484V32.056C138.484 32.7747 138.339 33.414 138.05 33.974C137.76 34.5433 137.326 34.9913 136.748 35.318C136.169 35.654 135.469 35.822 134.648 35.822C133.546 35.822 132.641 35.5653 131.932 35.052C131.232 34.5387 130.835 33.8387 130.742 32.952H132.688C132.79 33.3067 133.01 33.5867 133.346 33.792C133.691 34.0067 134.106 34.114 134.592 34.114C135.161 34.114 135.623 33.9413 135.978 33.596C136.332 33.26 136.51 32.7467 136.51 32.056V30.852C136.258 31.216 135.908 31.5193 135.46 31.762C135.021 32.0047 134.517 32.126 133.948 32.126C133.294 32.126 132.697 31.958 132.156 31.622C131.614 31.286 131.185 30.8147 130.868 30.208C130.56 29.592 130.406 28.8873 130.406 28.094C130.406 27.31 130.56 26.6147 130.868 26.008C131.185 25.4013 131.61 24.9347 132.142 24.608C132.683 24.2813 133.285 24.118 133.948 24.118ZM136.51 28.122C136.51 27.646 136.416 27.24 136.23 26.904C136.043 26.5587 135.791 26.2973 135.474 26.12C135.156 25.9333 134.816 25.84 134.452 25.84C134.088 25.84 133.752 25.9287 133.444 26.106C133.136 26.2833 132.884 26.5447 132.688 26.89C132.501 27.226 132.408 27.6273 132.408 28.094C132.408 28.5607 132.501 28.9713 132.688 29.326C132.884 29.6713 133.136 29.9373 133.444 30.124C133.761 30.3107 134.097 30.404 134.452 30.404C134.816 30.404 135.156 30.3153 135.474 30.138C135.791 29.9513 136.043 29.69 136.23 29.354C136.416 29.0087 136.51 28.598 136.51 28.122ZM147.668 23.32C147.323 23.32 147.033 23.2127 146.8 22.998C146.576 22.774 146.464 22.4987 146.464 22.172C146.464 21.8453 146.576 21.5747 146.8 21.36C147.033 21.136 147.323 21.024 147.668 21.024C148.013 21.024 148.298 21.136 148.522 21.36C148.755 21.5747 148.872 21.8453 148.872 22.172C148.872 22.4987 148.755 22.774 148.522 22.998C148.298 23.2127 148.013 23.32 147.668 23.32ZM148.634 24.244V32H146.674V24.244H148.634ZM156.338 24.132C157.262 24.132 158.009 24.426 158.578 25.014C159.148 25.5927 159.432 26.4047 159.432 27.45V32H157.472V27.716C157.472 27.1 157.318 26.6287 157.01 26.302C156.702 25.966 156.282 25.798 155.75 25.798C155.209 25.798 154.78 25.966 154.462 26.302C154.154 26.6287 154 27.1 154 27.716V32H152.04V24.244H154V25.21C154.262 24.874 154.593 24.6127 154.994 24.426C155.405 24.23 155.853 24.132 156.338 24.132ZM178.324 24.244L176.056 32H173.942L172.528 26.582L171.114 32H168.986L166.704 24.244H168.692L170.064 30.152L171.548 24.244H173.62L175.076 30.138L176.448 24.244H178.324ZM181.849 23.32C181.503 23.32 181.214 23.2127 180.981 22.998C180.757 22.774 180.645 22.4987 180.645 22.172C180.645 21.8453 180.757 21.5747 180.981 21.36C181.214 21.136 181.503 21.024 181.849 21.024C182.194 21.024 182.479 21.136 182.703 21.36C182.936 21.5747 183.053 21.8453 183.053 22.172C183.053 22.4987 182.936 22.774 182.703 22.998C182.479 23.2127 182.194 23.32 181.849 23.32ZM182.815 24.244V32H180.855V24.244H182.815ZM188.503 25.854V29.606C188.503 29.8673 188.564 30.0587 188.685 30.18C188.816 30.292 189.03 30.348 189.329 30.348H190.239V32H189.007C187.355 32 186.529 31.1973 186.529 29.592V25.854H185.605V24.244H186.529V22.326H188.503V24.244H190.239V25.854H188.503ZM197.487 24.132C198.075 24.132 198.598 24.2627 199.055 24.524C199.512 24.776 199.867 25.154 200.119 25.658C200.38 26.1527 200.511 26.75 200.511 27.45V32H198.551V27.716C198.551 27.1 198.397 26.6287 198.089 26.302C197.781 25.966 197.361 25.798 196.829 25.798C196.288 25.798 195.858 25.966 195.541 26.302C195.233 26.6287 195.079 27.1 195.079 27.716V32H193.119V21.64H195.079V25.21C195.331 24.874 195.667 24.6127 196.087 24.426C196.507 24.23 196.974 24.132 197.487 24.132ZM214.643 30.138H210.751L210.107 32H208.049L211.563 22.214H213.845L217.359 32H215.287L214.643 30.138ZM214.111 28.57L212.697 24.482L211.283 28.57H214.111ZM222.102 25.364C222.354 25.0093 222.7 24.7153 223.138 24.482C223.586 24.2393 224.095 24.118 224.664 24.118C225.327 24.118 225.924 24.2813 226.456 24.608C226.998 24.9347 227.422 25.4013 227.73 26.008C228.048 26.6053 228.206 27.3007 228.206 28.094C228.206 28.8873 228.048 29.592 227.73 30.208C227.422 30.8147 226.998 31.286 226.456 31.622C225.924 31.958 225.327 32.126 224.664 32.126C224.095 32.126 223.591 32.0093 223.152 31.776C222.723 31.5427 222.373 31.2487 222.102 30.894V35.696H220.142V24.244H222.102V25.364ZM226.204 28.094C226.204 27.6273 226.106 27.226 225.91 26.89C225.724 26.5447 225.472 26.2833 225.154 26.106C224.846 25.9287 224.51 25.84 224.146 25.84C223.792 25.84 223.456 25.9333 223.138 26.12C222.83 26.2973 222.578 26.5587 222.382 26.904C222.196 27.2493 222.102 27.6553 222.102 28.122C222.102 28.5887 222.196 28.9947 222.382 29.34C222.578 29.6853 222.83 29.9513 223.138 30.138C223.456 30.3153 223.792 30.404 224.146 30.404C224.51 30.404 224.846 30.3107 225.154 30.124C225.472 29.9373 225.724 29.6713 225.91 29.326C226.106 28.9807 226.204 28.57 226.204 28.094ZM233.06 25.364C233.312 25.0093 233.658 24.7153 234.096 24.482C234.544 24.2393 235.053 24.118 235.622 24.118C236.285 24.118 236.882 24.2813 237.414 24.608C237.956 24.9347 238.38 25.4013 238.688 26.008C239.006 26.6053 239.164 27.3007 239.164 28.094C239.164 28.8873 239.006 29.592 238.688 30.208C238.38 30.8147 237.956 31.286 237.414 31.622C236.882 31.958 236.285 32.126 235.622 32.126C235.053 32.126 234.549 32.0093 234.11 31.776C233.681 31.5427 233.331 31.2487 233.06 30.894V35.696H231.1V24.244H233.06V25.364ZM237.162 28.094C237.162 27.6273 237.064 27.226 236.868 26.89C236.682 26.5447 236.43 26.2833 236.112 26.106C235.804 25.9287 235.468 25.84 235.104 25.84C234.75 25.84 234.414 25.9333 234.096 26.12C233.788 26.2973 233.536 26.5587 233.34 26.904C233.154 27.2493 233.06 27.6553 233.06 28.122C233.06 28.5887 233.154 28.9947 233.34 29.34C233.536 29.6853 233.788 29.9513 234.096 30.138C234.414 30.3153 234.75 30.404 235.104 30.404C235.468 30.404 235.804 30.3107 236.112 30.124C236.43 29.9373 236.682 29.6713 236.868 29.326C237.064 28.9807 237.162 28.57 237.162 28.094ZM244.019 21.64V32H242.059V21.64H244.019ZM254.635 27.954C254.635 28.234 254.617 28.486 254.579 28.71H248.909C248.956 29.27 249.152 29.7087 249.497 30.026C249.843 30.3433 250.267 30.502 250.771 30.502C251.499 30.502 252.017 30.1893 252.325 29.564H254.439C254.215 30.3107 253.786 30.9267 253.151 31.412C252.517 31.888 251.737 32.126 250.813 32.126C250.067 32.126 249.395 31.9627 248.797 31.636C248.209 31.3 247.747 30.8287 247.411 30.222C247.085 29.6153 246.921 28.9153 246.921 28.122C246.921 27.3193 247.085 26.6147 247.411 26.008C247.738 25.4013 248.195 24.9347 248.783 24.608C249.371 24.2813 250.048 24.118 250.813 24.118C251.551 24.118 252.209 24.2767 252.787 24.594C253.375 24.9113 253.828 25.364 254.145 25.952C254.472 26.5307 254.635 27.198 254.635 27.954ZM252.605 27.394C252.596 26.89 252.414 26.4887 252.059 26.19C251.705 25.882 251.271 25.728 250.757 25.728C250.272 25.728 249.861 25.8773 249.525 26.176C249.199 26.4653 248.998 26.8713 248.923 27.394H252.605Z" fill="#393939"/>
<rect x="0.5" y="0.5" width="315.5" height="53" rx="26.5" stroke="#E4E7F1"/>
</svg>
