<svg width="136" height="25" viewBox="0 0 136 25" fill="none" xmlns="http://www.w3.org/2000/svg">
<rect width="136" height="25" rx="12.5" fill="white"/>
<path d="M28.3672 13.136C28.6818 13.1947 28.9405 13.352 29.1432 13.608C29.3458 13.864 29.4472 14.1573 29.4472 14.488C29.4472 14.7867 29.3725 15.0507 29.2232 15.28C29.0792 15.504 28.8685 15.68 28.5912 15.808C28.3138 15.936 27.9858 16 27.6072 16H25.1992V10.416H27.5032C27.8818 10.416 28.2072 10.4773 28.4792 10.6C28.7565 10.7227 28.9645 10.8933 29.1032 11.112C29.2472 11.3307 29.3192 11.5787 29.3192 11.856C29.3192 12.1813 29.2312 12.4533 29.0552 12.672C28.8845 12.8907 28.6552 13.0453 28.3672 13.136ZM26.3192 12.72H27.3432C27.6098 12.72 27.8152 12.6613 27.9592 12.544C28.1032 12.4213 28.1752 12.248 28.1752 12.024C28.1752 11.8 28.1032 11.6267 27.9592 11.504C27.8152 11.3813 27.6098 11.32 27.3432 11.32H26.3192V12.72ZM27.4472 15.088C27.7192 15.088 27.9298 15.024 28.0792 14.896C28.2338 14.768 28.3112 14.5867 28.3112 14.352C28.3112 14.112 28.2312 13.9253 28.0712 13.792C27.9112 13.6533 27.6952 13.584 27.4232 13.584H26.3192V15.088H27.4472ZM32.2838 10.416V13.872C32.2838 14.2507 32.3825 14.5413 32.5798 14.744C32.7771 14.9413 33.0545 15.04 33.4118 15.04C33.7745 15.04 34.0545 14.9413 34.2518 14.744C34.4491 14.5413 34.5478 14.2507 34.5478 13.872V10.416H35.6758V13.864C35.6758 14.3387 35.5718 14.7413 35.3638 15.072C35.1611 15.3973 34.8865 15.6427 34.5398 15.808C34.1985 15.9733 33.8171 16.056 33.3958 16.056C32.9798 16.056 32.6011 15.9733 32.2598 15.808C31.9238 15.6427 31.6571 15.3973 31.4598 15.072C31.2625 14.7413 31.1638 14.3387 31.1638 13.864V10.416H32.2838ZM42.0379 10.416L40.1499 14.056V16H39.0299V14.056L37.1339 10.416H38.3979L39.5979 12.968L40.7899 10.416H42.0379ZM52.3581 10.416V16H51.2381V12.368L49.7421 16H48.8941L47.3901 12.368V16H46.2701V10.416H47.5421L49.3181 14.568L51.0941 10.416H52.3581ZM56.8974 16.056C56.3748 16.056 55.8948 15.9333 55.4574 15.688C55.0201 15.4427 54.6734 15.104 54.4174 14.672C54.1614 14.2347 54.0334 13.7413 54.0334 13.192C54.0334 12.648 54.1614 12.16 54.4174 11.728C54.6734 11.2907 55.0201 10.9493 55.4574 10.704C55.8948 10.4587 56.3748 10.336 56.8974 10.336C57.4254 10.336 57.9054 10.4587 58.3374 10.704C58.7748 10.9493 59.1188 11.2907 59.3694 11.728C59.6254 12.16 59.7534 12.648 59.7534 13.192C59.7534 13.7413 59.6254 14.2347 59.3694 14.672C59.1188 15.104 58.7748 15.4427 58.3374 15.688C57.9001 15.9333 57.4201 16.056 56.8974 16.056ZM56.8974 15.056C57.2334 15.056 57.5294 14.9813 57.7854 14.832C58.0414 14.6773 58.2414 14.4587 58.3854 14.176C58.5294 13.8933 58.6014 13.5653 58.6014 13.192C58.6014 12.8187 58.5294 12.4933 58.3854 12.216C58.2414 11.9333 58.0414 11.7173 57.7854 11.568C57.5294 11.4187 57.2334 11.344 56.8974 11.344C56.5614 11.344 56.2628 11.4187 56.0014 11.568C55.7454 11.7173 55.5454 11.9333 55.4014 12.216C55.2574 12.4933 55.1854 12.8187 55.1854 13.192C55.1854 13.5653 55.2574 13.8933 55.4014 14.176C55.5454 14.4587 55.7454 14.6773 56.0014 14.832C56.2628 14.9813 56.5614 15.056 56.8974 15.056ZM64.3067 16L63.0747 13.824H62.5467V16H61.4267V10.416H63.5227C63.9547 10.416 64.3227 10.4933 64.6267 10.648C64.9307 10.7973 65.1573 11.0027 65.3067 11.264C65.4613 11.52 65.5387 11.808 65.5387 12.128C65.5387 12.496 65.432 12.8293 65.2187 13.128C65.0053 13.4213 64.688 13.624 64.2667 13.736L65.6027 16H64.3067ZM62.5467 12.984H63.4827C63.7867 12.984 64.0133 12.912 64.1627 12.768C64.312 12.6187 64.3867 12.4133 64.3867 12.152C64.3867 11.896 64.312 11.6987 64.1627 11.56C64.0133 11.416 63.7867 11.344 63.4827 11.344H62.5467V12.984ZM68.5117 11.32V12.72H70.3917V13.608H68.5117V15.088H70.6317V16H67.3917V10.408H70.6317V11.32H68.5117ZM80.0117 16H78.8917L76.3557 12.168V16H75.2357V10.408H76.3557L78.8917 14.248V10.408H80.0117V16ZM83.0625 10.416V13.872C83.0625 14.2507 83.1612 14.5413 83.3585 14.744C83.5559 14.9413 83.8332 15.04 84.1905 15.04C84.5532 15.04 84.8332 14.9413 85.0305 14.744C85.2279 14.5413 85.3265 14.2507 85.3265 13.872V10.416H86.4545V13.864C86.4545 14.3387 86.3505 14.7413 86.1425 15.072C85.9399 15.3973 85.6652 15.6427 85.3185 15.808C84.9772 15.9733 84.5959 16.056 84.1745 16.056C83.7585 16.056 83.3799 15.9733 83.0385 15.808C82.7025 15.6427 82.4359 15.3973 82.2385 15.072C82.0412 14.7413 81.9425 14.3387 81.9425 13.864V10.416H83.0625ZM90.3287 10.416C90.9153 10.416 91.43 10.5307 91.8727 10.76C92.3207 10.9893 92.6647 11.3173 92.9047 11.744C93.15 12.1653 93.2727 12.656 93.2727 13.216C93.2727 13.776 93.15 14.2667 92.9047 14.688C92.6647 15.104 92.3207 15.4267 91.8727 15.656C91.43 15.8853 90.9153 16 90.3287 16H88.3767V10.416H90.3287ZM90.2887 15.048C90.8753 15.048 91.3287 14.888 91.6487 14.568C91.9687 14.248 92.1287 13.7973 92.1287 13.216C92.1287 12.6347 91.9687 12.1813 91.6487 11.856C91.3287 11.5253 90.8753 11.36 90.2887 11.36H89.4967V15.048H90.2887ZM98.839 12.096C98.711 11.8613 98.535 11.6827 98.311 11.56C98.087 11.4373 97.8257 11.376 97.527 11.376C97.1964 11.376 96.903 11.4507 96.647 11.6C96.391 11.7493 96.191 11.9627 96.047 12.24C95.903 12.5173 95.831 12.8373 95.831 13.2C95.831 13.5733 95.903 13.8987 96.047 14.176C96.1964 14.4533 96.4017 14.6667 96.663 14.816C96.9244 14.9653 97.2284 15.04 97.575 15.04C98.0017 15.04 98.351 14.928 98.623 14.704C98.895 14.4747 99.0737 14.1573 99.159 13.752H97.239V12.896H100.263V13.872C100.188 14.2613 100.028 14.6213 99.783 14.952C99.5377 15.2827 99.2204 15.5493 98.831 15.752C98.447 15.9493 98.015 16.048 97.535 16.048C96.9964 16.048 96.5084 15.928 96.071 15.688C95.639 15.4427 95.2977 15.104 95.047 14.672C94.8017 14.24 94.679 13.7493 94.679 13.2C94.679 12.6507 94.8017 12.16 95.047 11.728C95.2977 11.2907 95.639 10.952 96.071 10.712C96.5084 10.4667 96.9937 10.344 97.527 10.344C98.1564 10.344 98.703 10.4987 99.167 10.808C99.631 11.112 99.951 11.5413 100.127 12.096H98.839ZM103.052 11.32V12.72H104.932V13.608H103.052V15.088H105.172V16H101.932V10.408H105.172V11.32H103.052ZM108.957 16.056C108.568 16.056 108.216 15.9893 107.901 15.856C107.592 15.7227 107.347 15.5307 107.165 15.28C106.984 15.0293 106.891 14.7333 106.885 14.392H108.085C108.101 14.6213 108.181 14.8027 108.325 14.936C108.475 15.0693 108.677 15.136 108.933 15.136C109.195 15.136 109.4 15.0747 109.549 14.952C109.699 14.824 109.773 14.6587 109.773 14.456C109.773 14.2907 109.723 14.1547 109.621 14.048C109.52 13.9413 109.392 13.8587 109.237 13.8C109.088 13.736 108.88 13.6667 108.613 13.592C108.251 13.4853 107.955 13.3813 107.725 13.28C107.501 13.1733 107.307 13.016 107.141 12.808C106.981 12.5947 106.901 12.312 106.901 11.96C106.901 11.6293 106.984 11.3413 107.149 11.096C107.315 10.8507 107.547 10.664 107.845 10.536C108.144 10.4027 108.485 10.336 108.869 10.336C109.445 10.336 109.912 10.4773 110.269 10.76C110.632 11.0373 110.832 11.4267 110.869 11.928H109.637C109.627 11.736 109.544 11.5787 109.389 11.456C109.24 11.328 109.04 11.264 108.789 11.264C108.571 11.264 108.395 11.32 108.261 11.432C108.133 11.544 108.069 11.7067 108.069 11.92C108.069 12.0693 108.117 12.1947 108.213 12.296C108.315 12.392 108.437 12.472 108.581 12.536C108.731 12.5947 108.939 12.664 109.205 12.744C109.568 12.8507 109.864 12.9573 110.093 13.064C110.323 13.1707 110.52 13.3307 110.685 13.544C110.851 13.7573 110.933 14.0373 110.933 14.384C110.933 14.6827 110.856 14.96 110.701 15.216C110.547 15.472 110.32 15.6773 110.021 15.832C109.723 15.9813 109.368 16.056 108.957 16.056Z" fill="#C078BA"/>
</svg>
