<svg width="24" height="19" viewBox="0 0 24 19" fill="none" xmlns="http://www.w3.org/2000/svg">
    <path
        d="M23.2015 2.94297C22.7224 2.44106 22.0608 2.14449 21.308 2.14449H17.5209V2.09886C17.5209 1.52852 17.2928 0.980988 16.9049 0.615969C16.5171 0.228137 15.9924 0 15.4221 0H8.57795C7.98479 0 7.46008 0.228137 7.07224 0.615969C6.68441 1.0038 6.45627 1.52852 6.45627 2.09886V2.14449H2.69202C1.93916 2.14449 1.27757 2.44106 0.798479 2.94297C0.319392 3.42205 0 4.10646 0 4.8365V16.1977C0 16.9506 0.296578 17.6122 0.798479 18.0913C1.27757 18.5703 1.96198 18.8897 2.69202 18.8897H21.308C22.0608 18.8897 22.7224 18.5932 23.2015 18.0913C23.6806 17.6122 24 16.9278 24 16.1977V4.8365C24 4.08365 23.7034 3.42205 23.2015 2.94297ZM22.8137 16.1977H22.7909C22.7909 16.6084 22.6312 16.9734 22.3574 17.2471C22.0837 17.5209 21.7186 17.6806 21.308 17.6806H2.69202C2.28137 17.6806 1.91635 17.5209 1.64259 17.2471C1.36882 16.9734 1.20913 16.6084 1.20913 16.1977V4.8365C1.20913 4.42586 1.36882 4.06084 1.64259 3.78707C1.91635 3.51331 2.28137 3.35361 2.69202 3.35361H7.09506C7.43726 3.35361 7.71103 3.07985 7.71103 2.73764V2.07605C7.71103 1.82509 7.80228 1.59696 7.96198 1.43726C8.12167 1.27757 8.34981 1.18631 8.60076 1.18631H15.4221C15.673 1.18631 15.9011 1.27757 16.0608 1.43726C16.2205 1.59696 16.3118 1.82509 16.3118 2.07605V2.73764C16.3118 3.07985 16.5856 3.35361 16.9278 3.35361H21.3308C21.7414 3.35361 22.1065 3.51331 22.3802 3.78707C22.654 4.06084 22.8137 4.42586 22.8137 4.8365V16.1977Z"
        fill="#53AAE0" />
    <path
        d="M11.9999 4.90497C10.4485 4.90497 9.03408 5.54375 8.03028 6.54755C7.00367 7.57417 6.3877 8.9658 6.3877 10.5171C6.3877 12.0685 7.02648 13.4829 8.03028 14.4867C9.0569 15.5133 10.4485 16.1293 11.9999 16.1293C13.5512 16.1293 14.9656 15.4905 15.9694 14.4867C16.9961 13.4601 17.612 12.0685 17.612 10.5171C17.612 8.9658 16.9733 7.55136 15.9694 6.54755C14.9656 5.54375 13.5512 4.90497 11.9999 4.90497ZM15.1025 13.6426C14.304 14.4183 13.209 14.9202 11.9999 14.9202C10.7907 14.9202 9.69568 14.4183 8.8972 13.6426C8.09872 12.8441 7.61964 11.7491 7.61964 10.5399C7.61964 9.33082 8.12154 8.23577 8.8972 7.43729C9.69568 6.63881 10.7907 6.15972 11.9999 6.15972C13.209 6.15972 14.304 6.66162 15.1025 7.43729C15.901 8.23577 16.3801 9.33082 16.3801 10.5399C16.4029 11.7491 15.901 12.8441 15.1025 13.6426Z"
        fill="#53AAE0" />
    <path
        d="M20.1218 7.11788C20.7392 7.11788 21.2396 6.61739 21.2396 6.00001C21.2396 5.38263 20.7392 4.88214 20.1218 4.88214C19.5044 4.88214 19.0039 5.38263 19.0039 6.00001C19.0039 6.61739 19.5044 7.11788 20.1218 7.11788Z"
        fill="#53AAE0" />
</svg>
