<svg width="15" height="15" viewBox="0 0 15 15" fill="none" xmlns="http://www.w3.org/2000/svg">
    <path
        d="M9.97499 7.49953L14.6154 12.14C15.1282 12.6527 15.1282 13.4839 14.6154 13.9959L13.9968 14.6145C13.4839 15.1274 12.6527 15.1274 12.1408 14.6145L7.50047 9.97421L2.86002 14.6155C2.3473 15.1282 1.51605 15.1282 1.00413 14.6155L0.384541 13.9968C-0.12818 13.4839 -0.12818 12.6527 0.384541 12.1408L5.02579 7.49953L0.385502 2.85925C-0.127379 2.34637 -0.127379 1.51512 0.385502 1.0032L1.00413 0.384569C1.51685 -0.128151 2.3481 -0.128151 2.86002 0.384569L7.50047 5.02501L12.1408 0.384569C12.6536 -0.128151 13.4849 -0.128151 13.9968 0.384569L14.6154 1.0032C15.1282 1.51608 15.1282 2.34733 14.6154 2.85925L9.97499 7.49953Z"
        fill="#5BAEE2" />
</svg>
