<svg width="315" height="54" viewBox="0 0 315 54" fill="none" xmlns="http://www.w3.org/2000/svg">
    <rect x="0.5" y="0.5" width="314" height="53" rx="26.5" fill="white" stroke="#5BAEE2" />
    <path
        d="M112.42 27.8C112.42 26.976 112.604 26.24 112.972 25.592C113.348 24.936 113.856 24.428 114.496 24.068C115.144 23.7 115.868 23.516 116.668 23.516C117.604 23.516 118.424 23.756 119.128 24.236C119.832 24.716 120.324 25.38 120.604 26.228H118.672C118.48 25.828 118.208 25.528 117.856 25.328C117.512 25.128 117.112 25.028 116.656 25.028C116.168 25.028 115.732 25.144 115.348 25.376C114.972 25.6 114.676 25.92 114.46 26.336C114.252 26.752 114.148 27.24 114.148 27.8C114.148 28.352 114.252 28.84 114.46 29.264C114.676 29.68 114.972 30.004 115.348 30.236C115.732 30.46 116.168 30.572 116.656 30.572C117.112 30.572 117.512 30.472 117.856 30.272C118.208 30.064 118.48 29.76 118.672 29.36H120.604C120.324 30.216 119.832 30.884 119.128 31.364C118.432 31.836 117.612 32.072 116.668 32.072C115.868 32.072 115.144 31.892 114.496 31.532C113.856 31.164 113.348 30.656 112.972 30.008C112.604 29.36 112.42 28.624 112.42 27.8ZM126.359 32L124.511 28.736H123.719V32H122.039V23.624H125.183C125.831 23.624 126.383 23.74 126.839 23.972C127.295 24.196 127.635 24.504 127.859 24.896C128.091 25.28 128.207 25.712 128.207 26.192C128.207 26.744 128.047 27.244 127.727 27.692C127.407 28.132 126.931 28.436 126.299 28.604L128.303 32H126.359ZM123.719 27.476H125.123C125.579 27.476 125.919 27.368 126.143 27.152C126.367 26.928 126.479 26.62 126.479 26.228C126.479 25.844 126.367 25.548 126.143 25.34C125.919 25.124 125.579 25.016 125.123 25.016H123.719V27.476ZM131.406 24.98V27.08H134.226V28.412H131.406V30.632H134.586V32H129.726V23.612H134.586V24.98H131.406ZM141.249 30.404H137.913L137.361 32H135.597L138.609 23.612H140.565L143.577 32H141.801L141.249 30.404ZM140.793 29.06L139.581 25.556L138.369 29.06H140.793ZM150.403 23.624V24.98H148.171V32H146.491V24.98H144.259V23.624H150.403ZM153.309 24.98V27.08H156.129V28.412H153.309V30.632H156.489V32H151.629V23.612H156.489V24.98H153.309ZM166.707 26.144C166.515 25.792 166.251 25.524 165.915 25.34C165.579 25.156 165.187 25.064 164.739 25.064C164.243 25.064 163.803 25.176 163.419 25.4C163.035 25.624 162.735 25.944 162.519 26.36C162.303 26.776 162.195 27.256 162.195 27.8C162.195 28.36 162.303 28.848 162.519 29.264C162.743 29.68 163.051 30 163.443 30.224C163.835 30.448 164.291 30.56 164.811 30.56C165.451 30.56 165.975 30.392 166.383 30.056C166.791 29.712 167.059 29.236 167.187 28.628H164.307V27.344H168.843V28.808C168.731 29.392 168.491 29.932 168.123 30.428C167.755 30.924 167.279 31.324 166.695 31.628C166.119 31.924 165.471 32.072 164.751 32.072C163.943 32.072 163.211 31.892 162.555 31.532C161.907 31.164 161.395 30.656 161.019 30.008C160.651 29.36 160.467 28.624 160.467 27.8C160.467 26.976 160.651 26.24 161.019 25.592C161.395 24.936 161.907 24.428 162.555 24.068C163.211 23.7 163.939 23.516 164.739 23.516C165.683 23.516 166.503 23.748 167.199 24.212C167.895 24.668 168.375 25.312 168.639 26.144H166.707ZM174.406 32L172.558 28.736H171.766V32H170.086V23.624H173.23C173.878 23.624 174.43 23.74 174.886 23.972C175.342 24.196 175.682 24.504 175.906 24.896C176.138 25.28 176.254 25.712 176.254 26.192C176.254 26.744 176.094 27.244 175.774 27.692C175.454 28.132 174.978 28.436 174.346 28.604L176.35 32H174.406ZM171.766 27.476H173.17C173.626 27.476 173.966 27.368 174.19 27.152C174.414 26.928 174.526 26.62 174.526 26.228C174.526 25.844 174.414 25.548 174.19 25.34C173.966 25.124 173.626 25.016 173.17 25.016H171.766V27.476ZM181.661 32.084C180.877 32.084 180.157 31.9 179.501 31.532C178.845 31.164 178.325 30.656 177.941 30.008C177.557 29.352 177.365 28.612 177.365 27.788C177.365 26.972 177.557 26.24 177.941 25.592C178.325 24.936 178.845 24.424 179.501 24.056C180.157 23.688 180.877 23.504 181.661 23.504C182.453 23.504 183.173 23.688 183.821 24.056C184.477 24.424 184.993 24.936 185.369 25.592C185.753 26.24 185.945 26.972 185.945 27.788C185.945 28.612 185.753 29.352 185.369 30.008C184.993 30.656 184.477 31.164 183.821 31.532C183.165 31.9 182.445 32.084 181.661 32.084ZM181.661 30.584C182.165 30.584 182.609 30.472 182.993 30.248C183.377 30.016 183.677 29.688 183.893 29.264C184.109 28.84 184.217 28.348 184.217 27.788C184.217 27.228 184.109 26.74 183.893 26.324C183.677 25.9 183.377 25.576 182.993 25.352C182.609 25.128 182.165 25.016 181.661 25.016C181.157 25.016 180.709 25.128 180.317 25.352C179.933 25.576 179.633 25.9 179.417 26.324C179.201 26.74 179.093 27.228 179.093 27.788C179.093 28.348 179.201 28.84 179.417 29.264C179.633 29.688 179.933 30.016 180.317 30.248C180.709 30.472 181.157 30.584 181.661 30.584ZM188.851 23.624V28.808C188.851 29.376 188.999 29.812 189.295 30.116C189.591 30.412 190.007 30.56 190.543 30.56C191.087 30.56 191.507 30.412 191.803 30.116C192.099 29.812 192.247 29.376 192.247 28.808V23.624H193.939V28.796C193.939 29.508 193.783 30.112 193.471 30.608C193.167 31.096 192.755 31.464 192.235 31.712C191.723 31.96 191.151 32.084 190.519 32.084C189.895 32.084 189.327 31.96 188.815 31.712C188.311 31.464 187.911 31.096 187.615 30.608C187.319 30.112 187.171 29.508 187.171 28.796V23.624H188.851ZM201.67 26.216C201.67 26.664 201.562 27.084 201.346 27.476C201.138 27.868 200.806 28.184 200.35 28.424C199.902 28.664 199.334 28.784 198.646 28.784H197.242V32H195.562V23.624H198.646C199.294 23.624 199.846 23.736 200.302 23.96C200.758 24.184 201.098 24.492 201.322 24.884C201.554 25.276 201.67 25.72 201.67 26.216ZM198.574 27.428C199.038 27.428 199.382 27.324 199.606 27.116C199.83 26.9 199.942 26.6 199.942 26.216C199.942 25.4 199.486 24.992 198.574 24.992H197.242V27.428H198.574Z"
        fill="#5BAEE2" />
</svg>
