<svg width="18" height="18" viewBox="0 0 18 18" fill="none" xmlns="http://www.w3.org/2000/svg">
<g clip-path="url(#clip0)">
<path d="M11.116 3.02319L1.21212 12.9278C1.16229 12.9777 1.12631 13.0408 1.10918 13.1087L0.0114342 17.5148C-0.0214026 17.6474 0.0175732 17.7885 0.11437 17.8853C0.187611 17.9585 0.287406 17.999 0.389485 17.999C0.420752 17.999 0.452732 17.9952 0.483855 17.9873L4.88998 16.8894C4.95865 16.8723 5.02104 16.8365 5.07087 16.7867L14.9756 6.8828L11.116 3.02319Z" fill="#FF4350"/>
<path d="M17.4297 1.67276L16.3272 0.570298C15.5904 -0.16653 14.3062 -0.165817 13.5702 0.570298L12.2197 1.92075L16.0792 5.78021L17.4297 4.42976C17.7977 4.06185 18.0004 3.57215 18.0004 3.05133C18.0004 2.53051 17.7977 2.04081 17.4297 1.67276Z" fill="#FF4350"/>
</g>
<defs>
<clipPath id="clip0">
<rect width="18" height="18" fill="white"/>
</clipPath>
</defs>
</svg>
