<svg width="319" height="54" viewBox="0 0 319 54" fill="none" xmlns="http://www.w3.org/2000/svg">
<path d="M60.8906 18.7785H41.1094C39.9463 18.7785 39 19.7248 39 20.8879V33.1121C39 34.2752 39.9463 35.2214 41.1094 35.2214H60.8906C62.0537 35.2214 63 34.2752 63 33.1121V20.8879C63 19.7248 62.0537 18.7785 60.8906 18.7785ZM60.6153 20.1848L60.3338 20.4192L51.8369 27.4946C51.3519 27.8983 50.648 27.8983 50.1631 27.4946L41.6662 20.4192L41.3847 20.1848H60.6153ZM40.4062 21.2L47.3293 26.9648L40.4062 31.5723V21.2ZM60.8906 33.8152H41.1094C40.7696 33.8152 40.4855 33.5729 40.4204 33.2522L48.4568 27.9037L49.2633 28.5752C49.7664 28.9942 50.3833 29.2037 51 29.2037C51.6168 29.2037 52.2336 28.9942 52.7368 28.5752L53.5433 27.9037L61.5797 33.2521C61.5145 33.573 61.2304 33.8152 60.8906 33.8152ZM61.5938 31.5723L54.6707 26.9649L61.5938 21.2V31.5723Z" fill="#5BAEE2"/>
<path d="M112.111 32.098C111.429 32.098 110.813 31.9813 110.263 31.748C109.721 31.5147 109.292 31.1787 108.975 30.74C108.657 30.3013 108.494 29.7833 108.485 29.186H110.585C110.613 29.5873 110.753 29.9047 111.005 30.138C111.266 30.3713 111.621 30.488 112.069 30.488C112.526 30.488 112.885 30.3807 113.147 30.166C113.408 29.942 113.539 29.6527 113.539 29.298C113.539 29.0087 113.45 28.7707 113.273 28.584C113.095 28.3973 112.871 28.2527 112.601 28.15C112.339 28.038 111.975 27.9167 111.509 27.786C110.874 27.5993 110.356 27.4173 109.955 27.24C109.563 27.0533 109.222 26.778 108.933 26.414C108.653 26.0407 108.513 25.546 108.513 24.93C108.513 24.3513 108.657 23.8473 108.947 23.418C109.236 22.9887 109.642 22.662 110.165 22.438C110.687 22.2047 111.285 22.088 111.957 22.088C112.965 22.088 113.781 22.3353 114.407 22.83C115.041 23.3153 115.391 23.9967 115.457 24.874H113.301C113.282 24.538 113.137 24.2627 112.867 24.048C112.605 23.824 112.255 23.712 111.817 23.712C111.434 23.712 111.126 23.81 110.893 24.006C110.669 24.202 110.557 24.4867 110.557 24.86C110.557 25.1213 110.641 25.3407 110.809 25.518C110.986 25.686 111.201 25.826 111.453 25.938C111.714 26.0407 112.078 26.162 112.545 26.302C113.179 26.4887 113.697 26.6753 114.099 26.862C114.5 27.0487 114.845 27.3287 115.135 27.702C115.424 28.0753 115.569 28.5653 115.569 29.172C115.569 29.6947 115.433 30.18 115.163 30.628C114.892 31.076 114.495 31.4353 113.973 31.706C113.45 31.9673 112.829 32.098 112.111 32.098ZM119.732 23.32C119.387 23.32 119.097 23.2127 118.864 22.998C118.64 22.774 118.528 22.4987 118.528 22.172C118.528 21.8453 118.64 21.5747 118.864 21.36C119.097 21.136 119.387 21.024 119.732 21.024C120.077 21.024 120.362 21.136 120.586 21.36C120.819 21.5747 120.936 21.8453 120.936 22.172C120.936 22.4987 120.819 22.774 120.586 22.998C120.362 23.2127 120.077 23.32 119.732 23.32ZM120.698 24.244V32H118.738V24.244H120.698ZM127.142 24.118C127.721 24.118 128.23 24.2347 128.668 24.468C129.107 24.692 129.452 24.986 129.704 25.35V24.244H131.678V32.056C131.678 32.7747 131.534 33.414 131.244 33.974C130.955 34.5433 130.521 34.9913 129.942 35.318C129.364 35.654 128.664 35.822 127.842 35.822C126.741 35.822 125.836 35.5653 125.126 35.052C124.426 34.5387 124.03 33.8387 123.936 32.952H125.882C125.985 33.3067 126.204 33.5867 126.54 33.792C126.886 34.0067 127.301 34.114 127.786 34.114C128.356 34.114 128.818 33.9413 129.172 33.596C129.527 33.26 129.704 32.7467 129.704 32.056V30.852C129.452 31.216 129.102 31.5193 128.654 31.762C128.216 32.0047 127.712 32.126 127.142 32.126C126.489 32.126 125.892 31.958 125.35 31.622C124.809 31.286 124.38 30.8147 124.062 30.208C123.754 29.592 123.6 28.8873 123.6 28.094C123.6 27.31 123.754 26.6147 124.062 26.008C124.38 25.4013 124.804 24.9347 125.336 24.608C125.878 24.2813 126.48 24.118 127.142 24.118ZM129.704 28.122C129.704 27.646 129.611 27.24 129.424 26.904C129.238 26.5587 128.986 26.2973 128.668 26.12C128.351 25.9333 128.01 25.84 127.646 25.84C127.282 25.84 126.946 25.9287 126.638 26.106C126.33 26.2833 126.078 26.5447 125.882 26.89C125.696 27.226 125.602 27.6273 125.602 28.094C125.602 28.5607 125.696 28.9713 125.882 29.326C126.078 29.6713 126.33 29.9373 126.638 30.124C126.956 30.3107 127.292 30.404 127.646 30.404C128.01 30.404 128.351 30.3153 128.668 30.138C128.986 29.9513 129.238 29.69 129.424 29.354C129.611 29.0087 129.704 28.598 129.704 28.122ZM139.361 24.132C140.285 24.132 141.031 24.426 141.601 25.014C142.17 25.5927 142.455 26.4047 142.455 27.45V32H140.495V27.716C140.495 27.1 140.341 26.6287 140.033 26.302C139.725 25.966 139.305 25.798 138.773 25.798C138.231 25.798 137.802 25.966 137.485 26.302C137.177 26.6287 137.023 27.1 137.023 27.716V32H135.063V24.244H137.023V25.21C137.284 24.874 137.615 24.6127 138.017 24.426C138.427 24.23 138.875 24.132 139.361 24.132ZM157.916 24.244V32H155.942V31.02C155.69 31.356 155.359 31.622 154.948 31.818C154.547 32.0047 154.108 32.098 153.632 32.098C153.026 32.098 152.489 31.972 152.022 31.72C151.556 31.4587 151.187 31.0807 150.916 30.586C150.655 30.082 150.524 29.4847 150.524 28.794V24.244H152.484V28.514C152.484 29.13 152.638 29.606 152.946 29.942C153.254 30.2687 153.674 30.432 154.206 30.432C154.748 30.432 155.172 30.2687 155.48 29.942C155.788 29.606 155.942 29.13 155.942 28.514V24.244H157.916ZM163.28 25.364C163.532 25.0093 163.878 24.7153 164.316 24.482C164.764 24.2393 165.273 24.118 165.842 24.118C166.505 24.118 167.102 24.2813 167.634 24.608C168.176 24.9347 168.6 25.4013 168.908 26.008C169.226 26.6053 169.384 27.3007 169.384 28.094C169.384 28.8873 169.226 29.592 168.908 30.208C168.6 30.8147 168.176 31.286 167.634 31.622C167.102 31.958 166.505 32.126 165.842 32.126C165.273 32.126 164.769 32.0093 164.33 31.776C163.901 31.5427 163.551 31.2487 163.28 30.894V35.696H161.32V24.244H163.28V25.364ZM167.382 28.094C167.382 27.6273 167.284 27.226 167.088 26.89C166.902 26.5447 166.65 26.2833 166.332 26.106C166.024 25.9287 165.688 25.84 165.324 25.84C164.97 25.84 164.634 25.9333 164.316 26.12C164.008 26.2973 163.756 26.5587 163.56 26.904C163.374 27.2493 163.28 27.6553 163.28 28.122C163.28 28.5887 163.374 28.9947 163.56 29.34C163.756 29.6853 164.008 29.9513 164.316 30.138C164.634 30.3153 164.97 30.404 165.324 30.404C165.688 30.404 166.024 30.3107 166.332 30.124C166.65 29.9373 166.902 29.6713 167.088 29.326C167.284 28.9807 167.382 28.57 167.382 28.094ZM187.837 24.244L185.569 32H183.455L182.041 26.582L180.627 32H178.499L176.217 24.244H178.205L179.577 30.152L181.061 24.244H183.133L184.589 30.138L185.961 24.244H187.837ZM191.361 23.32C191.016 23.32 190.726 23.2127 190.493 22.998C190.269 22.774 190.157 22.4987 190.157 22.172C190.157 21.8453 190.269 21.5747 190.493 21.36C190.726 21.136 191.016 21.024 191.361 21.024C191.706 21.024 191.991 21.136 192.215 21.36C192.448 21.5747 192.565 21.8453 192.565 22.172C192.565 22.4987 192.448 22.774 192.215 22.998C191.991 23.2127 191.706 23.32 191.361 23.32ZM192.327 24.244V32H190.367V24.244H192.327ZM198.015 25.854V29.606C198.015 29.8673 198.076 30.0587 198.197 30.18C198.328 30.292 198.543 30.348 198.841 30.348H199.751V32H198.519C196.867 32 196.041 31.1973 196.041 29.592V25.854H195.117V24.244H196.041V22.326H198.015V24.244H199.751V25.854H198.015ZM206.999 24.132C207.587 24.132 208.11 24.2627 208.567 24.524C209.025 24.776 209.379 25.154 209.631 25.658C209.893 26.1527 210.023 26.75 210.023 27.45V32H208.063V27.716C208.063 27.1 207.909 26.6287 207.601 26.302C207.293 25.966 206.873 25.798 206.341 25.798C205.8 25.798 205.371 25.966 205.053 26.302C204.745 26.6287 204.591 27.1 204.591 27.716V32H202.631V21.64H204.591V25.21C204.843 24.874 205.179 24.6127 205.599 24.426C206.019 24.23 206.486 24.132 206.999 24.132ZM220.123 23.81V26.26H223.413V27.814H220.123V30.404H223.833V32H218.163V22.214H223.833V23.81H220.123ZM236.716 24.132C237.668 24.132 238.434 24.426 239.012 25.014C239.6 25.5927 239.894 26.4047 239.894 27.45V32H237.934V27.716C237.934 27.1093 237.78 26.6473 237.472 26.33C237.164 26.0033 236.744 25.84 236.212 25.84C235.68 25.84 235.256 26.0033 234.938 26.33C234.63 26.6473 234.476 27.1093 234.476 27.716V32H232.516V27.716C232.516 27.1093 232.362 26.6473 232.054 26.33C231.746 26.0033 231.326 25.84 230.794 25.84C230.253 25.84 229.824 26.0033 229.506 26.33C229.198 26.6473 229.044 27.1093 229.044 27.716V32H227.084V24.244H229.044V25.182C229.296 24.8553 229.618 24.5987 230.01 24.412C230.412 24.2253 230.85 24.132 231.326 24.132C231.933 24.132 232.474 24.2627 232.95 24.524C233.426 24.776 233.795 25.14 234.056 25.616C234.308 25.168 234.672 24.8087 235.148 24.538C235.634 24.2673 236.156 24.132 236.716 24.132ZM242.72 28.094C242.72 27.31 242.874 26.6147 243.182 26.008C243.499 25.4013 243.924 24.9347 244.456 24.608C244.997 24.2813 245.599 24.118 246.262 24.118C246.841 24.118 247.345 24.2347 247.774 24.468C248.213 24.7013 248.563 24.9953 248.824 25.35V24.244H250.798V32H248.824V30.866C248.572 31.23 248.222 31.5333 247.774 31.776C247.335 32.0093 246.827 32.126 246.248 32.126C245.595 32.126 244.997 31.958 244.456 31.622C243.924 31.286 243.499 30.8147 243.182 30.208C242.874 29.592 242.72 28.8873 242.72 28.094ZM248.824 28.122C248.824 27.646 248.731 27.24 248.544 26.904C248.357 26.5587 248.105 26.2973 247.788 26.12C247.471 25.9333 247.13 25.84 246.766 25.84C246.402 25.84 246.066 25.9287 245.758 26.106C245.45 26.2833 245.198 26.5447 245.002 26.89C244.815 27.226 244.722 27.6273 244.722 28.094C244.722 28.5607 244.815 28.9713 245.002 29.326C245.198 29.6713 245.45 29.9373 245.758 30.124C246.075 30.3107 246.411 30.404 246.766 30.404C247.13 30.404 247.471 30.3153 247.788 30.138C248.105 29.9513 248.357 29.69 248.544 29.354C248.731 29.0087 248.824 28.598 248.824 28.122ZM255.176 23.32C254.831 23.32 254.542 23.2127 254.308 22.998C254.084 22.774 253.972 22.4987 253.972 22.172C253.972 21.8453 254.084 21.5747 254.308 21.36C254.542 21.136 254.831 21.024 255.176 21.024C255.522 21.024 255.806 21.136 256.03 21.36C256.264 21.5747 256.38 21.8453 256.38 22.172C256.38 22.4987 256.264 22.774 256.03 22.998C255.806 23.2127 255.522 23.32 255.176 23.32ZM256.142 24.244V32H254.182V24.244H256.142ZM261.509 21.64V32H259.549V21.64H261.509Z" fill="#393939"/>
<rect x="0.5" y="0.5" width="317.25" height="53" rx="26.5" stroke="#E4E7F1"/>
</svg>
