<svg width="315" height="54" viewBox="0 0 315 54" fill="none" xmlns="http://www.w3.org/2000/svg">
<rect x="0.5" y="0.5" width="314" height="53" rx="26.5" stroke="#E4E7F1"/>
<path d="M94.6556 32.098C93.9743 32.098 93.3583 31.9813 92.8076 31.748C92.2663 31.5147 91.837 31.1787 91.5196 30.74C91.2023 30.3013 91.039 29.7833 91.0296 29.186H93.1296C93.1576 29.5873 93.2976 29.9047 93.5496 30.138C93.811 30.3713 94.1656 30.488 94.6136 30.488C95.071 30.488 95.4303 30.3807 95.6916 30.166C95.953 29.942 96.0836 29.6527 96.0836 29.298C96.0836 29.0087 95.995 28.7707 95.8176 28.584C95.6403 28.3973 95.4163 28.2527 95.1456 28.15C94.8843 28.038 94.5203 27.9167 94.0536 27.786C93.419 27.5993 92.901 27.4173 92.4996 27.24C92.1076 27.0533 91.767 26.778 91.4776 26.414C91.1976 26.0407 91.0576 25.546 91.0576 24.93C91.0576 24.3513 91.2023 23.8473 91.4916 23.418C91.781 22.9887 92.187 22.662 92.7096 22.438C93.2323 22.2047 93.8296 22.088 94.5016 22.088C95.5096 22.088 96.3263 22.3353 96.9516 22.83C97.5863 23.3153 97.9363 23.9967 98.0016 24.874H95.8456C95.827 24.538 95.6823 24.2627 95.4116 24.048C95.1503 23.824 94.8003 23.712 94.3616 23.712C93.979 23.712 93.671 23.81 93.4376 24.006C93.2136 24.202 93.1016 24.4867 93.1016 24.86C93.1016 25.1213 93.1856 25.3407 93.3536 25.518C93.531 25.686 93.7456 25.826 93.9976 25.938C94.259 26.0407 94.623 26.162 95.0896 26.302C95.7243 26.4887 96.2423 26.6753 96.6436 26.862C97.045 27.0487 97.3903 27.3287 97.6796 27.702C97.969 28.0753 98.1136 28.5653 98.1136 29.172C98.1136 29.6947 97.9783 30.18 97.7076 30.628C97.437 31.076 97.0403 31.4353 96.5176 31.706C95.995 31.9673 95.3743 32.098 94.6556 32.098ZM102.277 23.32C101.932 23.32 101.642 23.2127 101.409 22.998C101.185 22.774 101.073 22.4987 101.073 22.172C101.073 21.8453 101.185 21.5747 101.409 21.36C101.642 21.136 101.932 21.024 102.277 21.024C102.622 21.024 102.907 21.136 103.131 21.36C103.364 21.5747 103.481 21.8453 103.481 22.172C103.481 22.4987 103.364 22.774 103.131 22.998C102.907 23.2127 102.622 23.32 102.277 23.32ZM103.243 24.244V32H101.283V24.244H103.243ZM109.687 24.118C110.266 24.118 110.775 24.2347 111.213 24.468C111.652 24.692 111.997 24.986 112.249 25.35V24.244H114.223V32.056C114.223 32.7747 114.079 33.414 113.789 33.974C113.5 34.5433 113.066 34.9913 112.487 35.318C111.909 35.654 111.209 35.822 110.387 35.822C109.286 35.822 108.381 35.5653 107.671 35.052C106.971 34.5387 106.575 33.8387 106.481 32.952H108.427C108.53 33.3067 108.749 33.5867 109.085 33.792C109.431 34.0067 109.846 34.114 110.331 34.114C110.901 34.114 111.363 33.9413 111.717 33.596C112.072 33.26 112.249 32.7467 112.249 32.056V30.852C111.997 31.216 111.647 31.5193 111.199 31.762C110.761 32.0047 110.257 32.126 109.687 32.126C109.034 32.126 108.437 31.958 107.895 31.622C107.354 31.286 106.925 30.8147 106.607 30.208C106.299 29.592 106.145 28.8873 106.145 28.094C106.145 27.31 106.299 26.6147 106.607 26.008C106.925 25.4013 107.349 24.9347 107.881 24.608C108.423 24.2813 109.025 24.118 109.687 24.118ZM112.249 28.122C112.249 27.646 112.156 27.24 111.969 26.904C111.783 26.5587 111.531 26.2973 111.213 26.12C110.896 25.9333 110.555 25.84 110.191 25.84C109.827 25.84 109.491 25.9287 109.183 26.106C108.875 26.2833 108.623 26.5447 108.427 26.89C108.241 27.226 108.147 27.6273 108.147 28.094C108.147 28.5607 108.241 28.9713 108.427 29.326C108.623 29.6713 108.875 29.9373 109.183 30.124C109.501 30.3107 109.837 30.404 110.191 30.404C110.555 30.404 110.896 30.3153 111.213 30.138C111.531 29.9513 111.783 29.69 111.969 29.354C112.156 29.0087 112.249 28.598 112.249 28.122ZM121.906 24.132C122.83 24.132 123.576 24.426 124.146 25.014C124.715 25.5927 125 26.4047 125 27.45V32H123.04V27.716C123.04 27.1 122.886 26.6287 122.578 26.302C122.27 25.966 121.85 25.798 121.318 25.798C120.776 25.798 120.347 25.966 120.03 26.302C119.722 26.6287 119.568 27.1 119.568 27.716V32H117.608V24.244H119.568V25.21C119.829 24.874 120.16 24.6127 120.562 24.426C120.972 24.23 121.42 24.132 121.906 24.132ZM134.133 23.32C133.788 23.32 133.499 23.2127 133.265 22.998C133.041 22.774 132.929 22.4987 132.929 22.172C132.929 21.8453 133.041 21.5747 133.265 21.36C133.499 21.136 133.788 21.024 134.133 21.024C134.479 21.024 134.763 21.136 134.987 21.36C135.221 21.5747 135.337 21.8453 135.337 22.172C135.337 22.4987 135.221 22.774 134.987 22.998C134.763 23.2127 134.479 23.32 134.133 23.32ZM135.099 24.244V32H133.139V24.244H135.099ZM142.804 24.132C143.728 24.132 144.475 24.426 145.044 25.014C145.613 25.5927 145.898 26.4047 145.898 27.45V32H143.938V27.716C143.938 27.1 143.784 26.6287 143.476 26.302C143.168 25.966 142.748 25.798 142.216 25.798C141.675 25.798 141.245 25.966 140.928 26.302C140.62 26.6287 140.466 27.1 140.466 27.716V32H138.506V24.244H140.466V25.21C140.727 24.874 141.059 24.6127 141.46 24.426C141.871 24.23 142.319 24.132 142.804 24.132ZM164.79 24.244L162.522 32H160.408L158.994 26.582L157.58 32H155.452L153.17 24.244H155.158L156.53 30.152L158.014 24.244H160.086L161.542 30.138L162.914 24.244H164.79ZM168.314 23.32C167.969 23.32 167.68 23.2127 167.446 22.998C167.222 22.774 167.11 22.4987 167.11 22.172C167.11 21.8453 167.222 21.5747 167.446 21.36C167.68 21.136 167.969 21.024 168.314 21.024C168.66 21.024 168.944 21.136 169.168 21.36C169.402 21.5747 169.518 21.8453 169.518 22.172C169.518 22.4987 169.402 22.774 169.168 22.998C168.944 23.2127 168.66 23.32 168.314 23.32ZM169.28 24.244V32H167.32V24.244H169.28ZM174.969 25.854V29.606C174.969 29.8673 175.029 30.0587 175.151 30.18C175.281 30.292 175.496 30.348 175.795 30.348H176.705V32H175.473C173.821 32 172.995 31.1973 172.995 29.592V25.854H172.071V24.244H172.995V22.326H174.969V24.244H176.705V25.854H174.969ZM183.952 24.132C184.54 24.132 185.063 24.2627 185.52 24.524C185.978 24.776 186.332 25.154 186.584 25.658C186.846 26.1527 186.976 26.75 186.976 27.45V32H185.016V27.716C185.016 27.1 184.862 26.6287 184.554 26.302C184.246 25.966 183.826 25.798 183.294 25.798C182.753 25.798 182.324 25.966 182.006 26.302C181.698 26.6287 181.544 27.1 181.544 27.716V32H179.584V21.64H181.544V25.21C181.796 24.874 182.132 24.6127 182.552 24.426C182.972 24.23 183.439 24.132 183.952 24.132ZM201.15 22.228V23.81H197.076V26.316H200.198V27.87H197.076V32H195.116V22.228H201.15ZM203.506 28.094C203.506 27.31 203.66 26.6147 203.968 26.008C204.285 25.4013 204.71 24.9347 205.242 24.608C205.783 24.2813 206.385 24.118 207.048 24.118C207.627 24.118 208.131 24.2347 208.56 24.468C208.999 24.7013 209.349 24.9953 209.61 25.35V24.244H211.584V32H209.61V30.866C209.358 31.23 209.008 31.5333 208.56 31.776C208.121 32.0093 207.613 32.126 207.034 32.126C206.381 32.126 205.783 31.958 205.242 31.622C204.71 31.286 204.285 30.8147 203.968 30.208C203.66 29.592 203.506 28.8873 203.506 28.094ZM209.61 28.122C209.61 27.646 209.517 27.24 209.33 26.904C209.143 26.5587 208.891 26.2973 208.574 26.12C208.257 25.9333 207.916 25.84 207.552 25.84C207.188 25.84 206.852 25.9287 206.544 26.106C206.236 26.2833 205.984 26.5447 205.788 26.89C205.601 27.226 205.508 27.6273 205.508 28.094C205.508 28.5607 205.601 28.9713 205.788 29.326C205.984 29.6713 206.236 29.9373 206.544 30.124C206.861 30.3107 207.197 30.404 207.552 30.404C207.916 30.404 208.257 30.3153 208.574 30.138C208.891 29.9513 209.143 29.69 209.33 29.354C209.517 29.0087 209.61 28.598 209.61 28.122ZM214.464 28.122C214.464 27.3193 214.628 26.6193 214.954 26.022C215.281 25.4153 215.734 24.9487 216.312 24.622C216.891 24.286 217.554 24.118 218.3 24.118C219.262 24.118 220.055 24.3607 220.68 24.846C221.315 25.322 221.74 25.994 221.954 26.862H219.84C219.728 26.526 219.537 26.2647 219.266 26.078C219.005 25.882 218.678 25.784 218.286 25.784C217.726 25.784 217.283 25.9893 216.956 26.4C216.63 26.8013 216.466 27.3753 216.466 28.122C216.466 28.8593 216.63 29.4333 216.956 29.844C217.283 30.2453 217.726 30.446 218.286 30.446C219.08 30.446 219.598 30.0913 219.84 29.382H221.954C221.74 30.222 221.315 30.8893 220.68 31.384C220.046 31.8787 219.252 32.126 218.3 32.126C217.554 32.126 216.891 31.9627 216.312 31.636C215.734 31.3 215.281 30.8333 214.954 30.236C214.628 29.6293 214.464 28.9247 214.464 28.122ZM232.07 27.954C232.07 28.234 232.052 28.486 232.014 28.71H226.344C226.391 29.27 226.587 29.7087 226.932 30.026C227.278 30.3433 227.702 30.502 228.206 30.502C228.934 30.502 229.452 30.1893 229.76 29.564H231.874C231.65 30.3107 231.221 30.9267 230.586 31.412C229.952 31.888 229.172 32.126 228.248 32.126C227.502 32.126 226.83 31.9627 226.232 31.636C225.644 31.3 225.182 30.8287 224.846 30.222C224.52 29.6153 224.356 28.9153 224.356 28.122C224.356 27.3193 224.52 26.6147 224.846 26.008C225.173 25.4013 225.63 24.9347 226.218 24.608C226.806 24.2813 227.483 24.118 228.248 24.118C228.986 24.118 229.644 24.2767 230.222 24.594C230.81 24.9113 231.263 25.364 231.58 25.952C231.907 26.5307 232.07 27.198 232.07 27.954ZM230.04 27.394C230.031 26.89 229.849 26.4887 229.494 26.19C229.14 25.882 228.706 25.728 228.192 25.728C227.707 25.728 227.296 25.8773 226.96 26.176C226.634 26.4653 226.433 26.8713 226.358 27.394H230.04ZM236.931 25.378C237.183 25.0047 237.528 24.7013 237.967 24.468C238.415 24.2347 238.924 24.118 239.493 24.118C240.156 24.118 240.753 24.2813 241.285 24.608C241.826 24.9347 242.251 25.4013 242.559 26.008C242.876 26.6053 243.035 27.3007 243.035 28.094C243.035 28.8873 242.876 29.592 242.559 30.208C242.251 30.8147 241.826 31.286 241.285 31.622C240.753 31.958 240.156 32.126 239.493 32.126C238.914 32.126 238.406 32.014 237.967 31.79C237.538 31.5567 237.192 31.258 236.931 30.894V32H234.971V21.64H236.931V25.378ZM241.033 28.094C241.033 27.6273 240.935 27.226 240.739 26.89C240.552 26.5447 240.3 26.2833 239.983 26.106C239.675 25.9287 239.339 25.84 238.975 25.84C238.62 25.84 238.284 25.9333 237.967 26.12C237.659 26.2973 237.407 26.5587 237.211 26.904C237.024 27.2493 236.931 27.6553 236.931 28.122C236.931 28.5887 237.024 28.9947 237.211 29.34C237.407 29.6853 237.659 29.9513 237.967 30.138C238.284 30.3153 238.62 30.404 238.975 30.404C239.339 30.404 239.675 30.3107 239.983 30.124C240.3 29.9373 240.552 29.6713 240.739 29.326C240.935 28.9807 241.033 28.57 241.033 28.094ZM249.373 32.126C248.626 32.126 247.954 31.9627 247.357 31.636C246.76 31.3 246.288 30.8287 245.943 30.222C245.607 29.6153 245.439 28.9153 245.439 28.122C245.439 27.3287 245.612 26.6287 245.957 26.022C246.312 25.4153 246.792 24.9487 247.399 24.622C248.006 24.286 248.682 24.118 249.429 24.118C250.176 24.118 250.852 24.286 251.459 24.622C252.066 24.9487 252.542 25.4153 252.887 26.022C253.242 26.6287 253.419 27.3287 253.419 28.122C253.419 28.9153 253.237 29.6153 252.873 30.222C252.518 30.8287 252.033 31.3 251.417 31.636C250.81 31.9627 250.129 32.126 249.373 32.126ZM249.373 30.418C249.728 30.418 250.059 30.334 250.367 30.166C250.684 29.9887 250.936 29.7273 251.123 29.382C251.31 29.0367 251.403 28.6167 251.403 28.122C251.403 27.3847 251.207 26.82 250.815 26.428C250.432 26.0267 249.961 25.826 249.401 25.826C248.841 25.826 248.37 26.0267 247.987 26.428C247.614 26.82 247.427 27.3847 247.427 28.122C247.427 28.8593 247.609 29.4287 247.973 29.83C248.346 30.222 248.813 30.418 249.373 30.418ZM259.771 32.126C259.024 32.126 258.352 31.9627 257.755 31.636C257.158 31.3 256.686 30.8287 256.341 30.222C256.005 29.6153 255.837 28.9153 255.837 28.122C255.837 27.3287 256.01 26.6287 256.355 26.022C256.71 25.4153 257.19 24.9487 257.797 24.622C258.404 24.286 259.08 24.118 259.827 24.118C260.574 24.118 261.25 24.286 261.857 24.622C262.464 24.9487 262.94 25.4153 263.285 26.022C263.64 26.6287 263.817 27.3287 263.817 28.122C263.817 28.9153 263.635 29.6153 263.271 30.222C262.916 30.8287 262.431 31.3 261.815 31.636C261.208 31.9627 260.527 32.126 259.771 32.126ZM259.771 30.418C260.126 30.418 260.457 30.334 260.765 30.166C261.082 29.9887 261.334 29.7273 261.521 29.382C261.708 29.0367 261.801 28.6167 261.801 28.122C261.801 27.3847 261.605 26.82 261.213 26.428C260.83 26.0267 260.359 25.826 259.799 25.826C259.239 25.826 258.768 26.0267 258.385 26.428C258.012 26.82 257.825 27.3847 257.825 28.122C257.825 28.8593 258.007 29.4287 258.371 29.83C258.744 30.222 259.211 30.418 259.771 30.418ZM271.317 32L268.685 28.696V32H266.725V21.64H268.685V27.534L271.289 24.244H273.837L270.421 28.136L273.865 32H271.317Z" fill="#393939"/>
<path d="M58.6752 15H37.3237C36.5925 15.0004 35.9998 15.5934 36 16.3248V37.6763C36.0004 38.4075 36.5934 39.0002 37.3248 39H58.6752C59.4067 39.0002 59.9998 38.4073 60 37.6758C60 37.6756 60 37.6754 60 37.6752V16.3237C59.9996 15.5925 59.4066 14.9998 58.6752 15Z" fill="#4267B2"/>
<path d="M52.5703 39V29.7188H55.6992L56.168 26.0859H52.5703V23.7722C52.5703 22.7228 52.8616 22.0078 54.3664 22.0078H56.2734V18.7674C55.9417 18.7233 54.8033 18.6246 53.4787 18.6246C50.7131 18.6246 48.8203 20.3121 48.8203 23.4124V26.0859H45.7031V29.7188H48.8203V39H52.5703Z" fill="white"/>
</svg>
