<svg width="307" height="54" viewBox="0 0 307 54" fill="none" xmlns="http://www.w3.org/2000/svg">
<path d="M55.6752 15H34.3237C33.5925 15.0004 32.9998 15.5934 33 16.3248V37.6763C33.0004 38.4075 33.5934 39.0002 34.3248 39H55.6752C56.4067 39.0002 56.9998 38.4073 57 37.6758C57 37.6756 57 37.6754 57 37.6752V16.3237C56.9996 15.5925 56.4066 14.9998 55.6752 15Z" fill="#4267B2"/>
<path d="M49.5703 38.9999V29.7187H52.6992L53.168 26.0859H49.5703V23.7722C49.5703 22.7228 49.8616 22.0078 51.3664 22.0078H53.2734V18.7673C52.9417 18.7232 51.8033 18.6245 50.4787 18.6245C47.7131 18.6245 45.8203 20.312 45.8203 23.4124V26.0859H42.7031V29.7187H45.8203V38.9999H49.5703Z" fill="white"/>
<path d="M94.1417 30.446H97.3617V32H92.1817V22.228H94.1417V30.446ZM103.521 32.126C102.775 32.126 102.103 31.9627 101.505 31.636C100.908 31.3 100.437 30.8287 100.091 30.222C99.7554 29.6153 99.5874 28.9153 99.5874 28.122C99.5874 27.3287 99.7601 26.6287 100.105 26.022C100.46 25.4153 100.941 24.9487 101.547 24.622C102.154 24.286 102.831 24.118 103.577 24.118C104.324 24.118 105.001 24.286 105.607 24.622C106.214 24.9487 106.69 25.4153 107.035 26.022C107.39 26.6287 107.567 27.3287 107.567 28.122C107.567 28.9153 107.385 29.6153 107.021 30.222C106.667 30.8287 106.181 31.3 105.565 31.636C104.959 31.9627 104.277 32.126 103.521 32.126ZM103.521 30.418C103.876 30.418 104.207 30.334 104.515 30.166C104.833 29.9887 105.085 29.7273 105.271 29.382C105.458 29.0367 105.551 28.6167 105.551 28.122C105.551 27.3847 105.355 26.82 104.963 26.428C104.581 26.0267 104.109 25.826 103.549 25.826C102.989 25.826 102.518 26.0267 102.135 26.428C101.762 26.82 101.575 27.3847 101.575 28.122C101.575 28.8593 101.757 29.4287 102.121 29.83C102.495 30.222 102.961 30.418 103.521 30.418ZM113.513 24.118C114.092 24.118 114.601 24.2347 115.039 24.468C115.478 24.692 115.823 24.986 116.075 25.35V24.244H118.049V32.056C118.049 32.7747 117.905 33.414 117.615 33.974C117.326 34.5433 116.892 34.9913 116.313 35.318C115.735 35.654 115.035 35.822 114.213 35.822C113.112 35.822 112.207 35.5653 111.497 35.052C110.797 34.5387 110.401 33.8387 110.307 32.952H112.253C112.356 33.3067 112.575 33.5867 112.911 33.792C113.257 34.0067 113.672 34.114 114.157 34.114C114.727 34.114 115.189 33.9413 115.543 33.596C115.898 33.26 116.075 32.7467 116.075 32.056V30.852C115.823 31.216 115.473 31.5193 115.025 31.762C114.587 32.0047 114.083 32.126 113.513 32.126C112.86 32.126 112.263 31.958 111.721 31.622C111.18 31.286 110.751 30.8147 110.433 30.208C110.125 29.592 109.971 28.8873 109.971 28.094C109.971 27.31 110.125 26.6147 110.433 26.008C110.751 25.4013 111.175 24.9347 111.707 24.608C112.249 24.2813 112.851 24.118 113.513 24.118ZM116.075 28.122C116.075 27.646 115.982 27.24 115.795 26.904C115.609 26.5587 115.357 26.2973 115.039 26.12C114.722 25.9333 114.381 25.84 114.017 25.84C113.653 25.84 113.317 25.9287 113.009 26.106C112.701 26.2833 112.449 26.5447 112.253 26.89C112.067 27.226 111.973 27.6273 111.973 28.094C111.973 28.5607 112.067 28.9713 112.253 29.326C112.449 29.6713 112.701 29.9373 113.009 30.124C113.327 30.3107 113.663 30.404 114.017 30.404C114.381 30.404 114.722 30.3153 115.039 30.138C115.357 29.9513 115.609 29.69 115.795 29.354C115.982 29.0087 116.075 28.598 116.075 28.122ZM127.233 23.32C126.888 23.32 126.599 23.2127 126.365 22.998C126.141 22.774 126.029 22.4987 126.029 22.172C126.029 21.8453 126.141 21.5747 126.365 21.36C126.599 21.136 126.888 21.024 127.233 21.024C127.579 21.024 127.863 21.136 128.087 21.36C128.321 21.5747 128.437 21.8453 128.437 22.172C128.437 22.4987 128.321 22.774 128.087 22.998C127.863 23.2127 127.579 23.32 127.233 23.32ZM128.199 24.244V32H126.239V24.244H128.199ZM135.904 24.132C136.828 24.132 137.575 24.426 138.144 25.014C138.713 25.5927 138.998 26.4047 138.998 27.45V32H137.038V27.716C137.038 27.1 136.884 26.6287 136.576 26.302C136.268 25.966 135.848 25.798 135.316 25.798C134.775 25.798 134.345 25.966 134.028 26.302C133.72 26.6287 133.566 27.1 133.566 27.716V32H131.606V24.244H133.566V25.21C133.827 24.874 134.159 24.6127 134.56 24.426C134.971 24.23 135.419 24.132 135.904 24.132ZM157.89 24.244L155.622 32H153.508L152.094 26.582L150.68 32H148.552L146.27 24.244H148.258L149.63 30.152L151.114 24.244H153.186L154.642 30.138L156.014 24.244H157.89ZM161.414 23.32C161.069 23.32 160.78 23.2127 160.546 22.998C160.322 22.774 160.21 22.4987 160.21 22.172C160.21 21.8453 160.322 21.5747 160.546 21.36C160.78 21.136 161.069 21.024 161.414 21.024C161.76 21.024 162.044 21.136 162.268 21.36C162.502 21.5747 162.618 21.8453 162.618 22.172C162.618 22.4987 162.502 22.774 162.268 22.998C162.044 23.2127 161.76 23.32 161.414 23.32ZM162.38 24.244V32H160.42V24.244H162.38ZM168.069 25.854V29.606C168.069 29.8673 168.129 30.0587 168.251 30.18C168.381 30.292 168.596 30.348 168.895 30.348H169.805V32H168.573C166.921 32 166.095 31.1973 166.095 29.592V25.854H165.171V24.244H166.095V22.326H168.069V24.244H169.805V25.854H168.069ZM177.052 24.132C177.64 24.132 178.163 24.2627 178.62 24.524C179.078 24.776 179.432 25.154 179.684 25.658C179.946 26.1527 180.076 26.75 180.076 27.45V32H178.116V27.716C178.116 27.1 177.962 26.6287 177.654 26.302C177.346 25.966 176.926 25.798 176.394 25.798C175.853 25.798 175.424 25.966 175.106 26.302C174.798 26.6287 174.644 27.1 174.644 27.716V32H172.684V21.64H174.644V25.21C174.896 24.874 175.232 24.6127 175.652 24.426C176.072 24.23 176.539 24.132 177.052 24.132ZM194.25 22.228V23.81H190.176V26.316H193.298V27.87H190.176V32H188.216V22.228H194.25ZM196.606 28.094C196.606 27.31 196.76 26.6147 197.068 26.008C197.385 25.4013 197.81 24.9347 198.342 24.608C198.883 24.2813 199.485 24.118 200.148 24.118C200.727 24.118 201.231 24.2347 201.66 24.468C202.099 24.7013 202.449 24.9953 202.71 25.35V24.244H204.684V32H202.71V30.866C202.458 31.23 202.108 31.5333 201.66 31.776C201.221 32.0093 200.713 32.126 200.134 32.126C199.481 32.126 198.883 31.958 198.342 31.622C197.81 31.286 197.385 30.8147 197.068 30.208C196.76 29.592 196.606 28.8873 196.606 28.094ZM202.71 28.122C202.71 27.646 202.617 27.24 202.43 26.904C202.243 26.5587 201.991 26.2973 201.674 26.12C201.357 25.9333 201.016 25.84 200.652 25.84C200.288 25.84 199.952 25.9287 199.644 26.106C199.336 26.2833 199.084 26.5447 198.888 26.89C198.701 27.226 198.608 27.6273 198.608 28.094C198.608 28.5607 198.701 28.9713 198.888 29.326C199.084 29.6713 199.336 29.9373 199.644 30.124C199.961 30.3107 200.297 30.404 200.652 30.404C201.016 30.404 201.357 30.3153 201.674 30.138C201.991 29.9513 202.243 29.69 202.43 29.354C202.617 29.0087 202.71 28.598 202.71 28.122ZM207.564 28.122C207.564 27.3193 207.728 26.6193 208.054 26.022C208.381 25.4153 208.834 24.9487 209.412 24.622C209.991 24.286 210.654 24.118 211.4 24.118C212.362 24.118 213.155 24.3607 213.78 24.846C214.415 25.322 214.84 25.994 215.054 26.862H212.94C212.828 26.526 212.637 26.2647 212.366 26.078C212.105 25.882 211.778 25.784 211.386 25.784C210.826 25.784 210.383 25.9893 210.056 26.4C209.73 26.8013 209.566 27.3753 209.566 28.122C209.566 28.8593 209.73 29.4333 210.056 29.844C210.383 30.2453 210.826 30.446 211.386 30.446C212.18 30.446 212.698 30.0913 212.94 29.382H215.054C214.84 30.222 214.415 30.8893 213.78 31.384C213.146 31.8787 212.352 32.126 211.4 32.126C210.654 32.126 209.991 31.9627 209.412 31.636C208.834 31.3 208.381 30.8333 208.054 30.236C207.728 29.6293 207.564 28.9247 207.564 28.122ZM225.17 27.954C225.17 28.234 225.152 28.486 225.114 28.71H219.444C219.491 29.27 219.687 29.7087 220.032 30.026C220.378 30.3433 220.802 30.502 221.306 30.502C222.034 30.502 222.552 30.1893 222.86 29.564H224.974C224.75 30.3107 224.321 30.9267 223.686 31.412C223.052 31.888 222.272 32.126 221.348 32.126C220.602 32.126 219.93 31.9627 219.332 31.636C218.744 31.3 218.282 30.8287 217.946 30.222C217.62 29.6153 217.456 28.9153 217.456 28.122C217.456 27.3193 217.62 26.6147 217.946 26.008C218.273 25.4013 218.73 24.9347 219.318 24.608C219.906 24.2813 220.583 24.118 221.348 24.118C222.086 24.118 222.744 24.2767 223.322 24.594C223.91 24.9113 224.363 25.364 224.68 25.952C225.007 26.5307 225.17 27.198 225.17 27.954ZM223.14 27.394C223.131 26.89 222.949 26.4887 222.594 26.19C222.24 25.882 221.806 25.728 221.292 25.728C220.807 25.728 220.396 25.8773 220.06 26.176C219.734 26.4653 219.533 26.8713 219.458 27.394H223.14ZM230.031 25.378C230.283 25.0047 230.628 24.7013 231.067 24.468C231.515 24.2347 232.023 24.118 232.593 24.118C233.255 24.118 233.853 24.2813 234.385 24.608C234.926 24.9347 235.351 25.4013 235.659 26.008C235.976 26.6053 236.135 27.3007 236.135 28.094C236.135 28.8873 235.976 29.592 235.659 30.208C235.351 30.8147 234.926 31.286 234.385 31.622C233.853 31.958 233.255 32.126 232.593 32.126C232.014 32.126 231.505 32.014 231.067 31.79C230.637 31.5567 230.292 31.258 230.031 30.894V32H228.071V21.64H230.031V25.378ZM234.133 28.094C234.133 27.6273 234.035 27.226 233.839 26.89C233.652 26.5447 233.4 26.2833 233.083 26.106C232.775 25.9287 232.439 25.84 232.075 25.84C231.72 25.84 231.384 25.9333 231.067 26.12C230.759 26.2973 230.507 26.5587 230.311 26.904C230.124 27.2493 230.031 27.6553 230.031 28.122C230.031 28.5887 230.124 28.9947 230.311 29.34C230.507 29.6853 230.759 29.9513 231.067 30.138C231.384 30.3153 231.72 30.404 232.075 30.404C232.439 30.404 232.775 30.3107 233.083 30.124C233.4 29.9373 233.652 29.6713 233.839 29.326C234.035 28.9807 234.133 28.57 234.133 28.094ZM242.473 32.126C241.726 32.126 241.054 31.9627 240.457 31.636C239.86 31.3 239.388 30.8287 239.043 30.222C238.707 29.6153 238.539 28.9153 238.539 28.122C238.539 27.3287 238.712 26.6287 239.057 26.022C239.412 25.4153 239.892 24.9487 240.499 24.622C241.106 24.286 241.782 24.118 242.529 24.118C243.276 24.118 243.952 24.286 244.559 24.622C245.166 24.9487 245.642 25.4153 245.987 26.022C246.342 26.6287 246.519 27.3287 246.519 28.122C246.519 28.9153 246.337 29.6153 245.973 30.222C245.618 30.8287 245.133 31.3 244.517 31.636C243.91 31.9627 243.229 32.126 242.473 32.126ZM242.473 30.418C242.828 30.418 243.159 30.334 243.467 30.166C243.784 29.9887 244.036 29.7273 244.223 29.382C244.41 29.0367 244.503 28.6167 244.503 28.122C244.503 27.3847 244.307 26.82 243.915 26.428C243.532 26.0267 243.061 25.826 242.501 25.826C241.941 25.826 241.47 26.0267 241.087 26.428C240.714 26.82 240.527 27.3847 240.527 28.122C240.527 28.8593 240.709 29.4287 241.073 29.83C241.446 30.222 241.913 30.418 242.473 30.418ZM252.871 32.126C252.124 32.126 251.452 31.9627 250.855 31.636C250.257 31.3 249.786 30.8287 249.441 30.222C249.105 29.6153 248.937 28.9153 248.937 28.122C248.937 27.3287 249.109 26.6287 249.455 26.022C249.809 25.4153 250.29 24.9487 250.897 24.622C251.503 24.286 252.18 24.118 252.927 24.118C253.673 24.118 254.35 24.286 254.957 24.622C255.563 24.9487 256.039 25.4153 256.385 26.022C256.739 26.6287 256.917 27.3287 256.917 28.122C256.917 28.9153 256.735 29.6153 256.371 30.222C256.016 30.8287 255.531 31.3 254.915 31.636C254.308 31.9627 253.627 32.126 252.871 32.126ZM252.871 30.418C253.225 30.418 253.557 30.334 253.865 30.166C254.182 29.9887 254.434 29.7273 254.621 29.382C254.807 29.0367 254.901 28.6167 254.901 28.122C254.901 27.3847 254.705 26.82 254.313 26.428C253.93 26.0267 253.459 25.826 252.899 25.826C252.339 25.826 251.867 26.0267 251.485 26.428C251.111 26.82 250.925 27.3847 250.925 28.122C250.925 28.8593 251.107 29.4287 251.471 29.83C251.844 30.222 252.311 30.418 252.871 30.418ZM264.417 32L261.785 28.696V32H259.825V21.64H261.785V27.534L264.389 24.244H266.937L263.521 28.136L266.965 32H264.417Z" fill="#393939"/>
<rect x="0.5" y="0.5" width="305.25" height="53" rx="26.5" stroke="#E4E7F1"/>
</svg>
