<svg width="319" height="54" viewBox="0 0 319 54" fill="none" xmlns="http://www.w3.org/2000/svg">
<path d="M44.3189 29.5036L43.4835 32.6223L40.4301 32.6869C39.5176 30.9944 39 29.0579 39 27.0001C39 25.0102 39.4839 23.1337 40.3418 21.4814H40.3424L43.0608 21.9798L44.2516 24.6819C44.0024 25.4085 43.8665 26.1885 43.8665 27.0001C43.8666 27.881 44.0262 28.725 44.3189 29.5036Z" fill="#FBBB00"/>
<path d="M62.7902 24.7583C62.928 25.4842 62.9999 26.2339 62.9999 27.0001C62.9999 27.8592 62.9095 28.6972 62.7375 29.5056C62.1533 32.2563 60.6269 34.6583 58.5124 36.3581L58.5118 36.3574L55.0878 36.1827L54.6032 33.1576C56.0063 32.3348 57.1028 31.0471 57.6804 29.5056H51.2637V24.7583H57.774H62.7902Z" fill="#518EF8"/>
<path d="M58.5119 36.3572L58.5126 36.3579C56.4561 38.0109 53.8438 38.9999 51.0001 38.9999C46.4302 38.9999 42.457 36.4456 40.4302 32.6867L44.319 29.5034C45.3324 32.208 47.9414 34.1333 51.0001 34.1333C52.3148 34.1333 53.5465 33.7779 54.6033 33.1575L58.5119 36.3572Z" fill="#28B446"/>
<path d="M58.6596 17.7626L54.7721 20.9453C53.6783 20.2615 52.3853 19.8666 51 19.8666C47.8721 19.8666 45.2143 21.8802 44.2517 24.6818L40.3425 21.4813H40.3418C42.339 17.6308 46.3622 15 51 15C53.9117 15 56.5814 16.0372 58.6596 17.7626Z" fill="#F14336"/>
<path d="M115.745 30.446H118.965V32H113.785V22.228H115.745V30.446ZM125.125 32.126C124.378 32.126 123.706 31.9627 123.109 31.636C122.512 31.3 122.04 30.8287 121.695 30.222C121.359 29.6153 121.191 28.9153 121.191 28.122C121.191 27.3287 121.364 26.6287 121.709 26.022C122.064 25.4153 122.544 24.9487 123.151 24.622C123.758 24.286 124.434 24.118 125.181 24.118C125.928 24.118 126.604 24.286 127.211 24.622C127.818 24.9487 128.294 25.4153 128.639 26.022C128.994 26.6287 129.171 27.3287 129.171 28.122C129.171 28.9153 128.989 29.6153 128.625 30.222C128.27 30.8287 127.785 31.3 127.169 31.636C126.562 31.9627 125.881 32.126 125.125 32.126ZM125.125 30.418C125.48 30.418 125.811 30.334 126.119 30.166C126.436 29.9887 126.688 29.7273 126.875 29.382C127.062 29.0367 127.155 28.6167 127.155 28.122C127.155 27.3847 126.959 26.82 126.567 26.428C126.184 26.0267 125.713 25.826 125.153 25.826C124.593 25.826 124.122 26.0267 123.739 26.428C123.366 26.82 123.179 27.3847 123.179 28.122C123.179 28.8593 123.361 29.4287 123.725 29.83C124.098 30.222 124.565 30.418 125.125 30.418ZM135.117 24.118C135.695 24.118 136.204 24.2347 136.643 24.468C137.081 24.692 137.427 24.986 137.679 25.35V24.244H139.653V32.056C139.653 32.7747 139.508 33.414 139.219 33.974C138.929 34.5433 138.495 34.9913 137.917 35.318C137.338 35.654 136.638 35.822 135.817 35.822C134.715 35.822 133.81 35.5653 133.101 35.052C132.401 34.5387 132.004 33.8387 131.911 32.952H133.857C133.959 33.3067 134.179 33.5867 134.515 33.792C134.86 34.0067 135.275 34.114 135.761 34.114C136.33 34.114 136.792 33.9413 137.147 33.596C137.501 33.26 137.679 32.7467 137.679 32.056V30.852C137.427 31.216 137.077 31.5193 136.629 31.762C136.19 32.0047 135.686 32.126 135.117 32.126C134.463 32.126 133.866 31.958 133.325 31.622C132.783 31.286 132.354 30.8147 132.037 30.208C131.729 29.592 131.575 28.8873 131.575 28.094C131.575 27.31 131.729 26.6147 132.037 26.008C132.354 25.4013 132.779 24.9347 133.311 24.608C133.852 24.2813 134.454 24.118 135.117 24.118ZM137.679 28.122C137.679 27.646 137.585 27.24 137.399 26.904C137.212 26.5587 136.96 26.2973 136.643 26.12C136.325 25.9333 135.985 25.84 135.621 25.84C135.257 25.84 134.921 25.9287 134.613 26.106C134.305 26.2833 134.053 26.5447 133.857 26.89C133.67 27.226 133.577 27.6273 133.577 28.094C133.577 28.5607 133.67 28.9713 133.857 29.326C134.053 29.6713 134.305 29.9373 134.613 30.124C134.93 30.3107 135.266 30.404 135.621 30.404C135.985 30.404 136.325 30.3153 136.643 30.138C136.96 29.9513 137.212 29.69 137.399 29.354C137.585 29.0087 137.679 28.598 137.679 28.122ZM148.837 23.32C148.491 23.32 148.202 23.2127 147.969 22.998C147.745 22.774 147.633 22.4987 147.633 22.172C147.633 21.8453 147.745 21.5747 147.969 21.36C148.202 21.136 148.491 21.024 148.837 21.024C149.182 21.024 149.467 21.136 149.691 21.36C149.924 21.5747 150.041 21.8453 150.041 22.172C150.041 22.4987 149.924 22.774 149.691 22.998C149.467 23.2127 149.182 23.32 148.837 23.32ZM149.803 24.244V32H147.843V24.244H149.803ZM157.507 24.132C158.431 24.132 159.178 24.426 159.747 25.014C160.317 25.5927 160.601 26.4047 160.601 27.45V32H158.641V27.716C158.641 27.1 158.487 26.6287 158.179 26.302C157.871 25.966 157.451 25.798 156.919 25.798C156.378 25.798 155.949 25.966 155.631 26.302C155.323 26.6287 155.169 27.1 155.169 27.716V32H153.209V24.244H155.169V25.21C155.431 24.874 155.762 24.6127 156.163 24.426C156.574 24.23 157.022 24.132 157.507 24.132ZM179.493 24.244L177.225 32H175.111L173.697 26.582L172.283 32H170.155L167.873 24.244H169.861L171.233 30.152L172.717 24.244H174.789L176.245 30.138L177.617 24.244H179.493ZM183.018 23.32C182.672 23.32 182.383 23.2127 182.15 22.998C181.926 22.774 181.814 22.4987 181.814 22.172C181.814 21.8453 181.926 21.5747 182.15 21.36C182.383 21.136 182.672 21.024 183.018 21.024C183.363 21.024 183.648 21.136 183.872 21.36C184.105 21.5747 184.222 21.8453 184.222 22.172C184.222 22.4987 184.105 22.774 183.872 22.998C183.648 23.2127 183.363 23.32 183.018 23.32ZM183.984 24.244V32H182.024V24.244H183.984ZM189.672 25.854V29.606C189.672 29.8673 189.733 30.0587 189.854 30.18C189.985 30.292 190.199 30.348 190.498 30.348H191.408V32H190.176C188.524 32 187.698 31.1973 187.698 29.592V25.854H186.774V24.244H187.698V22.326H189.672V24.244H191.408V25.854H189.672ZM198.656 24.132C199.244 24.132 199.766 24.2627 200.224 24.524C200.681 24.776 201.036 25.154 201.288 25.658C201.549 26.1527 201.68 26.75 201.68 27.45V32H199.72V27.716C199.72 27.1 199.566 26.6287 199.258 26.302C198.95 25.966 198.53 25.798 197.998 25.798C197.456 25.798 197.027 25.966 196.71 26.302C196.402 26.6287 196.248 27.1 196.248 27.716V32H194.288V21.64H196.248V25.21C196.5 24.874 196.836 24.6127 197.256 24.426C197.676 24.23 198.142 24.132 198.656 24.132ZM216.624 25.168C216.4 24.7573 216.092 24.4447 215.7 24.23C215.308 24.0153 214.85 23.908 214.328 23.908C213.749 23.908 213.236 24.0387 212.788 24.3C212.34 24.5613 211.99 24.9347 211.738 25.42C211.486 25.9053 211.36 26.4653 211.36 27.1C211.36 27.7533 211.486 28.3227 211.738 28.808C211.999 29.2933 212.358 29.6667 212.816 29.928C213.273 30.1893 213.805 30.32 214.412 30.32C215.158 30.32 215.77 30.124 216.246 29.732C216.722 29.3307 217.034 28.7753 217.184 28.066H213.824V26.568H219.116V28.276C218.985 28.9573 218.705 29.5873 218.276 30.166C217.846 30.7447 217.291 31.2113 216.61 31.566C215.938 31.9113 215.182 32.084 214.342 32.084C213.399 32.084 212.545 31.874 211.78 31.454C211.024 31.0247 210.426 30.432 209.988 29.676C209.558 28.92 209.344 28.0613 209.344 27.1C209.344 26.1387 209.558 25.28 209.988 24.524C210.426 23.7587 211.024 23.166 211.78 22.746C212.545 22.3167 213.394 22.102 214.328 22.102C215.429 22.102 216.386 22.3727 217.198 22.914C218.01 23.446 218.57 24.1973 218.878 25.168H216.624ZM231.668 24.132C232.62 24.132 233.385 24.426 233.964 25.014C234.552 25.5927 234.846 26.4047 234.846 27.45V32H232.886V27.716C232.886 27.1093 232.732 26.6473 232.424 26.33C232.116 26.0033 231.696 25.84 231.164 25.84C230.632 25.84 230.207 26.0033 229.89 26.33C229.582 26.6473 229.428 27.1093 229.428 27.716V32H227.468V27.716C227.468 27.1093 227.314 26.6473 227.006 26.33C226.698 26.0033 226.278 25.84 225.746 25.84C225.204 25.84 224.775 26.0033 224.458 26.33C224.15 26.6473 223.996 27.1093 223.996 27.716V32H222.036V24.244H223.996V25.182C224.248 24.8553 224.57 24.5987 224.962 24.412C225.363 24.2253 225.802 24.132 226.278 24.132C226.884 24.132 227.426 24.2627 227.902 24.524C228.378 24.776 228.746 25.14 229.008 25.616C229.26 25.168 229.624 24.8087 230.1 24.538C230.585 24.2673 231.108 24.132 231.668 24.132ZM237.672 28.094C237.672 27.31 237.826 26.6147 238.134 26.008C238.451 25.4013 238.876 24.9347 239.408 24.608C239.949 24.2813 240.551 24.118 241.214 24.118C241.792 24.118 242.296 24.2347 242.726 24.468C243.164 24.7013 243.514 24.9953 243.776 25.35V24.244H245.75V32H243.776V30.866C243.524 31.23 243.174 31.5333 242.726 31.776C242.287 32.0093 241.778 32.126 241.2 32.126C240.546 32.126 239.949 31.958 239.408 31.622C238.876 31.286 238.451 30.8147 238.134 30.208C237.826 29.592 237.672 28.8873 237.672 28.094ZM243.776 28.122C243.776 27.646 243.682 27.24 243.496 26.904C243.309 26.5587 243.057 26.2973 242.74 26.12C242.422 25.9333 242.082 25.84 241.718 25.84C241.354 25.84 241.018 25.9287 240.71 26.106C240.402 26.2833 240.15 26.5447 239.954 26.89C239.767 27.226 239.674 27.6273 239.674 28.094C239.674 28.5607 239.767 28.9713 239.954 29.326C240.15 29.6713 240.402 29.9373 240.71 30.124C241.027 30.3107 241.363 30.404 241.718 30.404C242.082 30.404 242.422 30.3153 242.74 30.138C243.057 29.9513 243.309 29.69 243.496 29.354C243.682 29.0087 243.776 28.598 243.776 28.122ZM250.128 23.32C249.783 23.32 249.493 23.2127 249.26 22.998C249.036 22.774 248.924 22.4987 248.924 22.172C248.924 21.8453 249.036 21.5747 249.26 21.36C249.493 21.136 249.783 21.024 250.128 21.024C250.473 21.024 250.758 21.136 250.982 21.36C251.215 21.5747 251.332 21.8453 251.332 22.172C251.332 22.4987 251.215 22.774 250.982 22.998C250.758 23.2127 250.473 23.32 250.128 23.32ZM251.094 24.244V32H249.134V24.244H251.094ZM256.46 21.64V32H254.5V21.64H256.46Z" fill="#393939"/>
<rect x="0.5" y="0.5" width="317.25" height="53" rx="26.5" stroke="#E4E7F1"/>
</svg>
