<svg width="315" height="54" viewBox="0 0 315 54" fill="none" xmlns="http://www.w3.org/2000/svg">
<rect x="0.5" y="0.5" width="314" height="53" rx="26.5" stroke="#E4E7F1"/>
<path d="M110.259 32.098C109.578 32.098 108.962 31.9813 108.411 31.748C107.87 31.5147 107.44 31.1787 107.123 30.74C106.806 30.3013 106.642 29.7833 106.633 29.186H108.733C108.761 29.5873 108.901 29.9047 109.153 30.138C109.414 30.3713 109.769 30.488 110.217 30.488C110.674 30.488 111.034 30.3807 111.295 30.166C111.556 29.942 111.687 29.6527 111.687 29.298C111.687 29.0087 111.598 28.7707 111.421 28.584C111.244 28.3973 111.02 28.2527 110.749 28.15C110.488 28.038 110.124 27.9167 109.657 27.786C109.022 27.5993 108.504 27.4173 108.103 27.24C107.711 27.0533 107.37 26.778 107.081 26.414C106.801 26.0407 106.661 25.546 106.661 24.93C106.661 24.3513 106.806 23.8473 107.095 23.418C107.384 22.9887 107.79 22.662 108.313 22.438C108.836 22.2047 109.433 22.088 110.105 22.088C111.113 22.088 111.93 22.3353 112.555 22.83C113.19 23.3153 113.54 23.9967 113.605 24.874H111.449C111.43 24.538 111.286 24.2627 111.015 24.048C110.754 23.824 110.404 23.712 109.965 23.712C109.582 23.712 109.274 23.81 109.041 24.006C108.817 24.202 108.705 24.4867 108.705 24.86C108.705 25.1213 108.789 25.3407 108.957 25.518C109.134 25.686 109.349 25.826 109.601 25.938C109.862 26.0407 110.226 26.162 110.693 26.302C111.328 26.4887 111.846 26.6753 112.247 26.862C112.648 27.0487 112.994 27.3287 113.283 27.702C113.572 28.0753 113.717 28.5653 113.717 29.172C113.717 29.6947 113.582 30.18 113.311 30.628C113.04 31.076 112.644 31.4353 112.121 31.706C111.598 31.9673 110.978 32.098 110.259 32.098ZM117.88 23.32C117.535 23.32 117.246 23.2127 117.012 22.998C116.788 22.774 116.676 22.4987 116.676 22.172C116.676 21.8453 116.788 21.5747 117.012 21.36C117.246 21.136 117.535 21.024 117.88 21.024C118.226 21.024 118.51 21.136 118.734 21.36C118.968 21.5747 119.084 21.8453 119.084 22.172C119.084 22.4987 118.968 22.774 118.734 22.998C118.51 23.2127 118.226 23.32 117.88 23.32ZM118.846 24.244V32H116.886V24.244H118.846ZM125.291 24.118C125.869 24.118 126.378 24.2347 126.817 24.468C127.255 24.692 127.601 24.986 127.853 25.35V24.244H129.827V32.056C129.827 32.7747 129.682 33.414 129.393 33.974C129.103 34.5433 128.669 34.9913 128.091 35.318C127.512 35.654 126.812 35.822 125.991 35.822C124.889 35.822 123.984 35.5653 123.275 35.052C122.575 34.5387 122.178 33.8387 122.085 32.952H124.031C124.133 33.3067 124.353 33.5867 124.689 33.792C125.034 34.0067 125.449 34.114 125.935 34.114C126.504 34.114 126.966 33.9413 127.321 33.596C127.675 33.26 127.853 32.7467 127.853 32.056V30.852C127.601 31.216 127.251 31.5193 126.803 31.762C126.364 32.0047 125.86 32.126 125.291 32.126C124.637 32.126 124.04 31.958 123.499 31.622C122.957 31.286 122.528 30.8147 122.211 30.208C121.903 29.592 121.749 28.8873 121.749 28.094C121.749 27.31 121.903 26.6147 122.211 26.008C122.528 25.4013 122.953 24.9347 123.485 24.608C124.026 24.2813 124.628 24.118 125.291 24.118ZM127.853 28.122C127.853 27.646 127.759 27.24 127.573 26.904C127.386 26.5587 127.134 26.2973 126.817 26.12C126.499 25.9333 126.159 25.84 125.795 25.84C125.431 25.84 125.095 25.9287 124.787 26.106C124.479 26.2833 124.227 26.5447 124.031 26.89C123.844 27.226 123.751 27.6273 123.751 28.094C123.751 28.5607 123.844 28.9713 124.031 29.326C124.227 29.6713 124.479 29.9373 124.787 30.124C125.104 30.3107 125.44 30.404 125.795 30.404C126.159 30.404 126.499 30.3153 126.817 30.138C127.134 29.9513 127.386 29.69 127.573 29.354C127.759 29.0087 127.853 28.598 127.853 28.122ZM137.509 24.132C138.433 24.132 139.18 24.426 139.749 25.014C140.318 25.5927 140.603 26.4047 140.603 27.45V32H138.643V27.716C138.643 27.1 138.489 26.6287 138.181 26.302C137.873 25.966 137.453 25.798 136.921 25.798C136.38 25.798 135.95 25.966 135.633 26.302C135.325 26.6287 135.171 27.1 135.171 27.716V32H133.211V24.244H135.171V25.21C135.432 24.874 135.764 24.6127 136.165 24.426C136.576 24.23 137.024 24.132 137.509 24.132ZM149.737 23.32C149.392 23.32 149.102 23.2127 148.869 22.998C148.645 22.774 148.533 22.4987 148.533 22.172C148.533 21.8453 148.645 21.5747 148.869 21.36C149.102 21.136 149.392 21.024 149.737 21.024C150.082 21.024 150.367 21.136 150.591 21.36C150.824 21.5747 150.941 21.8453 150.941 22.172C150.941 22.4987 150.824 22.774 150.591 22.998C150.367 23.2127 150.082 23.32 149.737 23.32ZM150.703 24.244V32H148.743V24.244H150.703ZM158.407 24.132C159.331 24.132 160.078 24.426 160.647 25.014C161.217 25.5927 161.501 26.4047 161.501 27.45V32H159.541V27.716C159.541 27.1 159.387 26.6287 159.079 26.302C158.771 25.966 158.351 25.798 157.819 25.798C157.278 25.798 156.849 25.966 156.531 26.302C156.223 26.6287 156.069 27.1 156.069 27.716V32H154.109V24.244H156.069V25.21C156.331 24.874 156.662 24.6127 157.063 24.426C157.474 24.23 157.922 24.132 158.407 24.132ZM180.393 24.244L178.125 32H176.011L174.597 26.582L173.183 32H171.055L168.773 24.244H170.761L172.133 30.152L173.617 24.244H175.689L177.145 30.138L178.517 24.244H180.393ZM183.918 23.32C183.572 23.32 183.283 23.2127 183.05 22.998C182.826 22.774 182.714 22.4987 182.714 22.172C182.714 21.8453 182.826 21.5747 183.05 21.36C183.283 21.136 183.572 21.024 183.918 21.024C184.263 21.024 184.548 21.136 184.772 21.36C185.005 21.5747 185.122 21.8453 185.122 22.172C185.122 22.4987 185.005 22.774 184.772 22.998C184.548 23.2127 184.263 23.32 183.918 23.32ZM184.884 24.244V32H182.924V24.244H184.884ZM190.572 25.854V29.606C190.572 29.8673 190.633 30.0587 190.754 30.18C190.885 30.292 191.099 30.348 191.398 30.348H192.308V32H191.076C189.424 32 188.598 31.1973 188.598 29.592V25.854H187.674V24.244H188.598V22.326H190.572V24.244H192.308V25.854H190.572ZM199.556 24.132C200.144 24.132 200.667 24.2627 201.124 24.524C201.581 24.776 201.936 25.154 202.188 25.658C202.449 26.1527 202.58 26.75 202.58 27.45V32H200.62V27.716C200.62 27.1 200.466 26.6287 200.158 26.302C199.85 25.966 199.43 25.798 198.898 25.798C198.357 25.798 197.927 25.966 197.61 26.302C197.302 26.6287 197.148 27.1 197.148 27.716V32H195.188V21.64H197.148V25.21C197.4 24.874 197.736 24.6127 198.156 24.426C198.576 24.23 199.043 24.132 199.556 24.132ZM217.524 25.168C217.3 24.7573 216.992 24.4447 216.6 24.23C216.208 24.0153 215.75 23.908 215.228 23.908C214.649 23.908 214.136 24.0387 213.688 24.3C213.24 24.5613 212.89 24.9347 212.638 25.42C212.386 25.9053 212.26 26.4653 212.26 27.1C212.26 27.7533 212.386 28.3227 212.638 28.808C212.899 29.2933 213.258 29.6667 213.716 29.928C214.173 30.1893 214.705 30.32 215.312 30.32C216.058 30.32 216.67 30.124 217.146 29.732C217.622 29.3307 217.934 28.7753 218.084 28.066H214.724V26.568H220.016V28.276C219.885 28.9573 219.605 29.5873 219.176 30.166C218.746 30.7447 218.191 31.2113 217.51 31.566C216.838 31.9113 216.082 32.084 215.242 32.084C214.299 32.084 213.445 31.874 212.68 31.454C211.924 31.0247 211.326 30.432 210.888 29.676C210.458 28.92 210.244 28.0613 210.244 27.1C210.244 26.1387 210.458 25.28 210.888 24.524C211.326 23.7587 211.924 23.166 212.68 22.746C213.445 22.3167 214.294 22.102 215.228 22.102C216.329 22.102 217.286 22.3727 218.098 22.914C218.91 23.446 219.47 24.1973 219.778 25.168H217.524ZM232.568 24.132C233.52 24.132 234.285 24.426 234.864 25.014C235.452 25.5927 235.746 26.4047 235.746 27.45V32H233.786V27.716C233.786 27.1093 233.632 26.6473 233.324 26.33C233.016 26.0033 232.596 25.84 232.064 25.84C231.532 25.84 231.107 26.0033 230.79 26.33C230.482 26.6473 230.328 27.1093 230.328 27.716V32H228.368V27.716C228.368 27.1093 228.214 26.6473 227.906 26.33C227.598 26.0033 227.178 25.84 226.646 25.84C226.104 25.84 225.675 26.0033 225.358 26.33C225.05 26.6473 224.896 27.1093 224.896 27.716V32H222.936V24.244H224.896V25.182C225.148 24.8553 225.47 24.5987 225.862 24.412C226.263 24.2253 226.702 24.132 227.178 24.132C227.784 24.132 228.326 24.2627 228.802 24.524C229.278 24.776 229.646 25.14 229.908 25.616C230.16 25.168 230.524 24.8087 231 24.538C231.485 24.2673 232.008 24.132 232.568 24.132ZM238.572 28.094C238.572 27.31 238.726 26.6147 239.034 26.008C239.351 25.4013 239.776 24.9347 240.308 24.608C240.849 24.2813 241.451 24.118 242.114 24.118C242.692 24.118 243.196 24.2347 243.626 24.468C244.064 24.7013 244.414 24.9953 244.676 25.35V24.244H246.65V32H244.676V30.866C244.424 31.23 244.074 31.5333 243.626 31.776C243.187 32.0093 242.678 32.126 242.1 32.126C241.446 32.126 240.849 31.958 240.308 31.622C239.776 31.286 239.351 30.8147 239.034 30.208C238.726 29.592 238.572 28.8873 238.572 28.094ZM244.676 28.122C244.676 27.646 244.582 27.24 244.396 26.904C244.209 26.5587 243.957 26.2973 243.64 26.12C243.322 25.9333 242.982 25.84 242.618 25.84C242.254 25.84 241.918 25.9287 241.61 26.106C241.302 26.2833 241.05 26.5447 240.854 26.89C240.667 27.226 240.574 27.6273 240.574 28.094C240.574 28.5607 240.667 28.9713 240.854 29.326C241.05 29.6713 241.302 29.9373 241.61 30.124C241.927 30.3107 242.263 30.404 242.618 30.404C242.982 30.404 243.322 30.3153 243.64 30.138C243.957 29.9513 244.209 29.69 244.396 29.354C244.582 29.0087 244.676 28.598 244.676 28.122ZM251.028 23.32C250.683 23.32 250.393 23.2127 250.16 22.998C249.936 22.774 249.824 22.4987 249.824 22.172C249.824 21.8453 249.936 21.5747 250.16 21.36C250.393 21.136 250.683 21.024 251.028 21.024C251.373 21.024 251.658 21.136 251.882 21.36C252.115 21.5747 252.232 21.8453 252.232 22.172C252.232 22.4987 252.115 22.774 251.882 22.998C251.658 23.2127 251.373 23.32 251.028 23.32ZM251.994 24.244V32H250.034V24.244H251.994ZM257.36 21.64V32H255.4V21.64H257.36Z" fill="#393939"/>
<path d="M41.3189 29.5035L40.4835 32.6222L37.4301 32.6868C36.5176 30.9943 36 29.0578 36 27C36 25.0101 36.4839 23.1336 37.3418 21.4813H37.3424L40.0608 21.9797L41.2516 24.6818C41.0024 25.4084 40.8665 26.1884 40.8665 27C40.8666 27.8809 41.0262 28.7249 41.3189 29.5035Z" fill="#FBBB00"/>
<path d="M59.7903 24.7582C59.9281 25.4841 60 26.2338 60 26.9999C60 27.8591 59.9097 28.6971 59.7376 29.5054C59.1534 32.2562 57.627 34.6582 55.5126 36.358L55.5119 36.3573L52.088 36.1826L51.6034 33.1575C53.0064 32.3347 54.1029 31.047 54.6805 29.5054H48.2638V24.7582H54.7741H59.7903Z" fill="#518EF8"/>
<path d="M55.5119 36.3574L55.5125 36.358C53.4561 38.011 50.8437 39 48 39C43.4301 39 39.4569 36.4457 37.4301 32.6868L41.3189 29.5035C42.3323 32.2081 44.9413 34.1334 48 34.1334C49.3147 34.1334 50.5464 33.778 51.6033 33.1576L55.5119 36.3574Z" fill="#28B446"/>
<path d="M55.6596 17.7626L51.7721 20.9453C50.6783 20.2615 49.3853 19.8666 48 19.8666C44.8721 19.8666 42.2143 21.8802 41.2516 24.6818L37.3424 21.4813H37.3418C39.3389 17.6308 43.3622 15 48 15C50.9116 15 53.5813 16.0372 55.6596 17.7626Z" fill="#F14336"/>
</svg>
