<svg width="36" height="36" viewBox="0 0 36 36" fill="none" xmlns="http://www.w3.org/2000/svg">
    <circle cx="18" cy="18" r="17" fill="#5BAEE2" stroke="#5BAEE2" stroke-width="2" />
    <g clip-path="url(#clip0)">
        <path
            d="M19.4103 14.0155L12.8077 20.6185C12.7745 20.6518 12.7505 20.6939 12.7391 20.7391L12.0073 23.6765C11.9854 23.765 12.0114 23.859 12.0759 23.9235C12.1247 23.9723 12.1913 23.9994 12.2593 23.9994C12.2802 23.9994 12.3015 23.9968 12.3222 23.9916L15.2596 23.2596C15.3054 23.2482 15.347 23.2243 15.3802 23.1911L21.9834 16.5885L19.4103 14.0155Z"
            fill="white" />
        <path
            d="M23.6197 13.1152L22.8847 12.3802C22.3935 11.889 21.5374 11.8895 21.0467 12.3802L20.1464 13.2805L22.7194 15.8535L23.6197 14.9532C23.8651 14.7079 24.0002 14.3815 24.0002 14.0343C24.0002 13.687 23.8651 13.3606 23.6197 13.1152Z"
            fill="white" />
    </g>
    <defs>
        <clipPath id="clip0">
            <rect width="12" height="12" fill="white" transform="translate(12 12)" />
        </clipPath>
    </defs>
</svg>
