<svg width="315" height="54" viewBox="0 0 315 54" fill="none" xmlns="http://www.w3.org/2000/svg">
    <rect x="0.5" y="0.5" width="314" height="53" rx="26.5" stroke="#E4E7F1" />
    <path
        d="M91.1657 32.098C90.4844 32.098 89.8684 31.9813 89.3177 31.748C88.7764 31.5147 88.3471 31.1787 88.0297 30.74C87.7124 30.3013 87.5491 29.7833 87.5397 29.186H89.6397C89.6677 29.5873 89.8077 29.9047 90.0597 30.138C90.3211 30.3713 90.6757 30.488 91.1237 30.488C91.5811 30.488 91.9404 30.3807 92.2017 30.166C92.4631 29.942 92.5937 29.6527 92.5937 29.298C92.5937 29.0087 92.5051 28.7707 92.3277 28.584C92.1504 28.3973 91.9264 28.2527 91.6557 28.15C91.3944 28.038 91.0304 27.9167 90.5637 27.786C89.9291 27.5993 89.4111 27.4173 89.0097 27.24C88.6177 27.0533 88.2771 26.778 87.9877 26.414C87.7077 26.0407 87.5677 25.546 87.5677 24.93C87.5677 24.3513 87.7124 23.8473 88.0017 23.418C88.2911 22.9887 88.6971 22.662 89.2197 22.438C89.7424 22.2047 90.3397 22.088 91.0117 22.088C92.0197 22.088 92.8364 22.3353 93.4617 22.83C94.0964 23.3153 94.4464 23.9967 94.5117 24.874H92.3557C92.3371 24.538 92.1924 24.2627 91.9217 24.048C91.6604 23.824 91.3104 23.712 90.8717 23.712C90.4891 23.712 90.1811 23.81 89.9477 24.006C89.7237 24.202 89.6117 24.4867 89.6117 24.86C89.6117 25.1213 89.6957 25.3407 89.8637 25.518C90.0411 25.686 90.2557 25.826 90.5077 25.938C90.7691 26.0407 91.1331 26.162 91.5997 26.302C92.2344 26.4887 92.7524 26.6753 93.1537 26.862C93.5551 27.0487 93.9004 27.3287 94.1897 27.702C94.4791 28.0753 94.6237 28.5653 94.6237 29.172C94.6237 29.6947 94.4884 30.18 94.2177 30.628C93.9471 31.076 93.5504 31.4353 93.0277 31.706C92.5051 31.9673 91.8844 32.098 91.1657 32.098ZM98.787 23.32C98.4417 23.32 98.1523 23.2127 97.919 22.998C97.695 22.774 97.583 22.4987 97.583 22.172C97.583 21.8453 97.695 21.5747 97.919 21.36C98.1523 21.136 98.4417 21.024 98.787 21.024C99.1323 21.024 99.417 21.136 99.641 21.36C99.8743 21.5747 99.991 21.8453 99.991 22.172C99.991 22.4987 99.8743 22.774 99.641 22.998C99.417 23.2127 99.1323 23.32 98.787 23.32ZM99.753 24.244V32H97.793V24.244H99.753ZM106.197 24.118C106.776 24.118 107.285 24.2347 107.723 24.468C108.162 24.692 108.507 24.986 108.759 25.35V24.244H110.733V32.056C110.733 32.7747 110.589 33.414 110.299 33.974C110.01 34.5433 109.576 34.9913 108.997 35.318C108.419 35.654 107.719 35.822 106.897 35.822C105.796 35.822 104.891 35.5653 104.181 35.052C103.481 34.5387 103.085 33.8387 102.991 32.952H104.937C105.04 33.3067 105.259 33.5867 105.595 33.792C105.941 34.0067 106.356 34.114 106.841 34.114C107.411 34.114 107.873 33.9413 108.227 33.596C108.582 33.26 108.759 32.7467 108.759 32.056V30.852C108.507 31.216 108.157 31.5193 107.709 31.762C107.271 32.0047 106.767 32.126 106.197 32.126C105.544 32.126 104.947 31.958 104.405 31.622C103.864 31.286 103.435 30.8147 103.117 30.208C102.809 29.592 102.655 28.8873 102.655 28.094C102.655 27.31 102.809 26.6147 103.117 26.008C103.435 25.4013 103.859 24.9347 104.391 24.608C104.933 24.2813 105.535 24.118 106.197 24.118ZM108.759 28.122C108.759 27.646 108.666 27.24 108.479 26.904C108.293 26.5587 108.041 26.2973 107.723 26.12C107.406 25.9333 107.065 25.84 106.701 25.84C106.337 25.84 106.001 25.9287 105.693 26.106C105.385 26.2833 105.133 26.5447 104.937 26.89C104.751 27.226 104.657 27.6273 104.657 28.094C104.657 28.5607 104.751 28.9713 104.937 29.326C105.133 29.6713 105.385 29.9373 105.693 30.124C106.011 30.3107 106.347 30.404 106.701 30.404C107.065 30.404 107.406 30.3153 107.723 30.138C108.041 29.9513 108.293 29.69 108.479 29.354C108.666 29.0087 108.759 28.598 108.759 28.122ZM118.416 24.132C119.34 24.132 120.086 24.426 120.656 25.014C121.225 25.5927 121.51 26.4047 121.51 27.45V32H119.55V27.716C119.55 27.1 119.396 26.6287 119.088 26.302C118.78 25.966 118.36 25.798 117.828 25.798C117.286 25.798 116.857 25.966 116.54 26.302C116.232 26.6287 116.078 27.1 116.078 27.716V32H114.118V24.244H116.078V25.21C116.339 24.874 116.67 24.6127 117.072 24.426C117.482 24.23 117.93 24.132 118.416 24.132ZM130.644 23.32C130.298 23.32 130.009 23.2127 129.776 22.998C129.552 22.774 129.44 22.4987 129.44 22.172C129.44 21.8453 129.552 21.5747 129.776 21.36C130.009 21.136 130.298 21.024 130.644 21.024C130.989 21.024 131.274 21.136 131.498 21.36C131.731 21.5747 131.848 21.8453 131.848 22.172C131.848 22.4987 131.731 22.774 131.498 22.998C131.274 23.2127 130.989 23.32 130.644 23.32ZM131.61 24.244V32H129.65V24.244H131.61ZM139.314 24.132C140.238 24.132 140.985 24.426 141.554 25.014C142.123 25.5927 142.408 26.4047 142.408 27.45V32H140.448V27.716C140.448 27.1 140.294 26.6287 139.986 26.302C139.678 25.966 139.258 25.798 138.726 25.798C138.185 25.798 137.755 25.966 137.438 26.302C137.13 26.6287 136.976 27.1 136.976 27.716V32H135.016V24.244H136.976V25.21C137.237 24.874 137.569 24.6127 137.97 24.426C138.381 24.23 138.829 24.132 139.314 24.132ZM161.3 24.244L159.032 32H156.918L155.504 26.582L154.09 32H151.962L149.68 24.244H151.668L153.04 30.152L154.524 24.244H156.596L158.052 30.138L159.424 24.244H161.3ZM164.824 23.32C164.479 23.32 164.19 23.2127 163.956 22.998C163.732 22.774 163.62 22.4987 163.62 22.172C163.62 21.8453 163.732 21.5747 163.956 21.36C164.19 21.136 164.479 21.024 164.824 21.024C165.17 21.024 165.454 21.136 165.678 21.36C165.912 21.5747 166.028 21.8453 166.028 22.172C166.028 22.4987 165.912 22.774 165.678 22.998C165.454 23.2127 165.17 23.32 164.824 23.32ZM165.79 24.244V32H163.83V24.244H165.79ZM171.479 25.854V29.606C171.479 29.8673 171.539 30.0587 171.661 30.18C171.791 30.292 172.006 30.348 172.305 30.348H173.215V32H171.983C170.331 32 169.505 31.1973 169.505 29.592V25.854H168.581V24.244H169.505V22.326H171.479V24.244H173.215V25.854H171.479ZM180.463 24.132C181.051 24.132 181.573 24.2627 182.031 24.524C182.488 24.776 182.843 25.154 183.095 25.658C183.356 26.1527 183.487 26.75 183.487 27.45V32H181.527V27.716C181.527 27.1 181.373 26.6287 181.065 26.302C180.757 25.966 180.337 25.798 179.805 25.798C179.263 25.798 178.834 25.966 178.517 26.302C178.209 26.6287 178.055 27.1 178.055 27.716V32H176.095V21.64H178.055V25.21C178.307 24.874 178.643 24.6127 179.063 24.426C179.483 24.23 179.949 24.132 180.463 24.132ZM193.586 22.228V32H191.626V22.228H193.586ZM201.291 24.132C202.215 24.132 202.962 24.426 203.531 25.014C204.1 25.5927 204.385 26.4047 204.385 27.45V32H202.425V27.716C202.425 27.1 202.271 26.6287 201.963 26.302C201.655 25.966 201.235 25.798 200.703 25.798C200.162 25.798 199.732 25.966 199.415 26.302C199.107 26.6287 198.953 27.1 198.953 27.716V32H196.993V24.244H198.953V25.21C199.214 24.874 199.546 24.6127 199.947 24.426C200.358 24.23 200.806 24.132 201.291 24.132ZM210.687 32.126C210.052 32.126 209.483 32.014 208.979 31.79C208.475 31.5567 208.073 31.244 207.775 30.852C207.485 30.46 207.327 30.026 207.299 29.55H209.273C209.31 29.8487 209.455 30.096 209.707 30.292C209.968 30.488 210.29 30.586 210.673 30.586C211.046 30.586 211.335 30.5113 211.541 30.362C211.755 30.2127 211.863 30.0213 211.863 29.788C211.863 29.536 211.732 29.3493 211.471 29.228C211.219 29.0973 210.813 28.9573 210.253 28.808C209.674 28.668 209.198 28.5233 208.825 28.374C208.461 28.2247 208.143 27.996 207.873 27.688C207.611 27.38 207.481 26.9647 207.481 26.442C207.481 26.0127 207.602 25.6207 207.845 25.266C208.097 24.9113 208.451 24.6313 208.909 24.426C209.375 24.2207 209.921 24.118 210.547 24.118C211.471 24.118 212.208 24.3513 212.759 24.818C213.309 25.2753 213.613 25.896 213.669 26.68H211.793C211.765 26.372 211.634 26.1293 211.401 25.952C211.177 25.7653 210.873 25.672 210.491 25.672C210.136 25.672 209.861 25.7373 209.665 25.868C209.478 25.9987 209.385 26.1807 209.385 26.414C209.385 26.6753 209.515 26.876 209.777 27.016C210.038 27.1467 210.444 27.282 210.995 27.422C211.555 27.562 212.017 27.7067 212.381 27.856C212.745 28.0053 213.057 28.2387 213.319 28.556C213.589 28.864 213.729 29.2747 213.739 29.788C213.739 30.236 213.613 30.6373 213.361 30.992C213.118 31.3467 212.763 31.6267 212.297 31.832C211.839 32.028 211.303 32.126 210.687 32.126ZM219.1 25.854V29.606C219.1 29.8673 219.16 30.0587 219.282 30.18C219.412 30.292 219.627 30.348 219.926 30.348H220.836V32H219.604C217.952 32 217.126 31.1973 217.126 29.592V25.854H216.202V24.244H217.126V22.326H219.1V24.244H220.836V25.854H219.1ZM223.211 28.094C223.211 27.31 223.365 26.6147 223.673 26.008C223.991 25.4013 224.415 24.9347 224.947 24.608C225.489 24.2813 226.091 24.118 226.753 24.118C227.332 24.118 227.836 24.2347 228.265 24.468C228.704 24.7013 229.054 24.9953 229.315 25.35V24.244H231.289V32H229.315V30.866C229.063 31.23 228.713 31.5333 228.265 31.776C227.827 32.0093 227.318 32.126 226.739 32.126C226.086 32.126 225.489 31.958 224.947 31.622C224.415 31.286 223.991 30.8147 223.673 30.208C223.365 29.592 223.211 28.8873 223.211 28.094ZM229.315 28.122C229.315 27.646 229.222 27.24 229.035 26.904C228.849 26.5587 228.597 26.2973 228.279 26.12C227.962 25.9333 227.621 25.84 227.257 25.84C226.893 25.84 226.557 25.9287 226.249 26.106C225.941 26.2833 225.689 26.5447 225.493 26.89C225.307 27.226 225.213 27.6273 225.213 28.094C225.213 28.5607 225.307 28.9713 225.493 29.326C225.689 29.6713 225.941 29.9373 226.249 30.124C226.567 30.3107 226.903 30.404 227.257 30.404C227.621 30.404 227.962 30.3153 228.279 30.138C228.597 29.9513 228.849 29.69 229.035 29.354C229.222 29.0087 229.315 28.598 229.315 28.122ZM237.712 24.118C238.29 24.118 238.799 24.2347 239.238 24.468C239.676 24.692 240.022 24.986 240.274 25.35V24.244H242.248V32.056C242.248 32.7747 242.103 33.414 241.814 33.974C241.524 34.5433 241.09 34.9913 240.512 35.318C239.933 35.654 239.233 35.822 238.412 35.822C237.31 35.822 236.405 35.5653 235.696 35.052C234.996 34.5387 234.599 33.8387 234.506 32.952H236.452C236.554 33.3067 236.774 33.5867 237.11 33.792C237.455 34.0067 237.87 34.114 238.356 34.114C238.925 34.114 239.387 33.9413 239.742 33.596C240.096 33.26 240.274 32.7467 240.274 32.056V30.852C240.022 31.216 239.672 31.5193 239.224 31.762C238.785 32.0047 238.281 32.126 237.712 32.126C237.058 32.126 236.461 31.958 235.92 31.622C235.378 31.286 234.949 30.8147 234.632 30.208C234.324 29.592 234.17 28.8873 234.17 28.094C234.17 27.31 234.324 26.6147 234.632 26.008C234.949 25.4013 235.374 24.9347 235.906 24.608C236.447 24.2813 237.049 24.118 237.712 24.118ZM240.274 28.122C240.274 27.646 240.18 27.24 239.994 26.904C239.807 26.5587 239.555 26.2973 239.238 26.12C238.92 25.9333 238.58 25.84 238.216 25.84C237.852 25.84 237.516 25.9287 237.208 26.106C236.9 26.2833 236.648 26.5447 236.452 26.89C236.265 27.226 236.172 27.6273 236.172 28.094C236.172 28.5607 236.265 28.9713 236.452 29.326C236.648 29.6713 236.9 29.9373 237.208 30.124C237.525 30.3107 237.861 30.404 238.216 30.404C238.58 30.404 238.92 30.3153 239.238 30.138C239.555 29.9513 239.807 29.69 239.994 29.354C240.18 29.0087 240.274 28.598 240.274 28.122ZM247.592 25.448C247.844 25.0373 248.171 24.7153 248.572 24.482C248.983 24.2487 249.449 24.132 249.972 24.132V26.19H249.454C248.838 26.19 248.371 26.3347 248.054 26.624C247.746 26.9133 247.592 27.4173 247.592 28.136V32H245.632V24.244H247.592V25.448ZM252.258 28.094C252.258 27.31 252.412 26.6147 252.72 26.008C253.037 25.4013 253.462 24.9347 253.994 24.608C254.535 24.2813 255.137 24.118 255.8 24.118C256.379 24.118 256.883 24.2347 257.312 24.468C257.751 24.7013 258.101 24.9953 258.362 25.35V24.244H260.336V32H258.362V30.866C258.11 31.23 257.76 31.5333 257.312 31.776C256.873 32.0093 256.365 32.126 255.786 32.126C255.133 32.126 254.535 31.958 253.994 31.622C253.462 31.286 253.037 30.8147 252.72 30.208C252.412 29.592 252.258 28.8873 252.258 28.094ZM258.362 28.122C258.362 27.646 258.269 27.24 258.082 26.904C257.895 26.5587 257.643 26.2973 257.326 26.12C257.009 25.9333 256.668 25.84 256.304 25.84C255.94 25.84 255.604 25.9287 255.296 26.106C254.988 26.2833 254.736 26.5447 254.54 26.89C254.353 27.226 254.26 27.6273 254.26 28.094C254.26 28.5607 254.353 28.9713 254.54 29.326C254.736 29.6713 254.988 29.9373 255.296 30.124C255.613 30.3107 255.949 30.404 256.304 30.404C256.668 30.404 257.009 30.3153 257.326 30.138C257.643 29.9513 257.895 29.69 258.082 29.354C258.269 29.0087 258.362 28.598 258.362 28.122ZM273.352 24.132C274.304 24.132 275.07 24.426 275.648 25.014C276.236 25.5927 276.53 26.4047 276.53 27.45V32H274.57V27.716C274.57 27.1093 274.416 26.6473 274.108 26.33C273.8 26.0033 273.38 25.84 272.848 25.84C272.316 25.84 271.892 26.0033 271.574 26.33C271.266 26.6473 271.112 27.1093 271.112 27.716V32H269.152V27.716C269.152 27.1093 268.998 26.6473 268.69 26.33C268.382 26.0033 267.962 25.84 267.43 25.84C266.889 25.84 266.46 26.0033 266.142 26.33C265.834 26.6473 265.68 27.1093 265.68 27.716V32H263.72V24.244H265.68V25.182C265.932 24.8553 266.254 24.5987 266.646 24.412C267.048 24.2253 267.486 24.132 267.962 24.132C268.569 24.132 269.11 24.2627 269.586 24.524C270.062 24.776 270.431 25.14 270.692 25.616C270.944 25.168 271.308 24.8087 271.784 24.538C272.27 24.2673 272.792 24.132 273.352 24.132Z"
        fill="#393939" />
    <path
        d="M58.9279 22.0525C58.8694 20.7751 58.6666 19.9028 58.3699 19.1396C58.0687 18.3389 57.5963 17.6136 56.9858 17.0142C56.3865 16.4037 55.6611 15.9311 54.8604 15.6297C54.097 15.3333 53.2249 15.1306 51.9475 15.0725C50.6678 15.0139 50.2589 15 47 15C43.7411 15 43.3322 15.0139 42.0525 15.0721C40.7751 15.1306 39.903 15.3334 39.1396 15.6301C38.3389 15.9313 37.6136 16.4037 37.0142 17.0142C36.4037 17.6135 35.9311 18.3387 35.6297 19.1395C35.3333 19.9028 35.1306 20.7751 35.0725 22.0523C35.0139 23.3322 35 23.7409 35 26.9998C35 30.2589 35.0139 30.6678 35.0725 31.9475C35.1307 33.2247 35.3336 34.097 35.6302 34.8604C35.9315 35.6609 36.4039 36.3864 37.0143 36.9857C37.6136 37.5961 38.3391 38.0685 39.1398 38.3698C39.903 38.6666 40.7753 38.8693 42.0527 38.9277C43.3326 38.9861 43.7413 38.9998 47.0002 38.9998C50.2591 38.9998 50.668 38.9861 51.9477 38.9277C53.225 38.8693 54.0972 38.6666 54.8605 38.3698C56.4724 37.7465 57.7466 36.4722 58.3699 34.8604C58.6667 34.097 58.8694 33.2247 58.9279 31.9475C58.9861 30.6676 59 30.2589 59 27C59 23.7409 58.9861 23.3322 58.9279 22.0525ZM56.7678 31.8492C56.7145 33.0192 56.5189 33.6546 56.3547 34.0774C55.9509 35.124 55.1238 35.9511 54.0772 36.3549C53.6544 36.5191 53.019 36.7147 51.849 36.7679C50.5839 36.8258 50.2043 36.8379 47 36.8379C43.7955 36.8379 43.4161 36.8258 42.1508 36.7679C40.981 36.7147 40.3456 36.5191 39.9226 36.3549C39.4015 36.1624 38.93 35.8557 38.5429 35.4571C38.1443 35.07 37.8376 34.5987 37.6451 34.0774C37.4809 33.6546 37.2853 33.0192 37.2321 31.8492C37.1744 30.5839 37.1621 30.2043 37.1621 27.0002C37.1621 23.7958 37.1744 23.4164 37.2321 22.151C37.2855 20.981 37.4809 20.3456 37.6451 19.9228C37.8376 19.4015 38.1445 18.93 38.5429 18.5429C38.93 18.1443 39.4015 17.8376 39.9228 17.6453C40.3456 17.4809 40.981 17.2855 42.151 17.2321C43.4163 17.1744 43.7958 17.1621 47 17.1621H46.9998C50.204 17.1621 50.5836 17.1744 51.849 17.2322C53.019 17.2855 53.6542 17.4811 54.0772 17.6453C54.5983 17.8378 55.0698 18.1445 55.4569 18.5429C55.8555 18.93 56.1622 19.4015 56.3545 19.9228C56.5189 20.3456 56.7145 20.981 56.7678 22.151C56.8254 23.4163 56.8377 23.7958 56.8377 27C56.8377 30.2043 56.8256 30.5837 56.7678 31.8492Z"
        fill="url(#paint0_linear)" />
    <path
        d="M46.9998 20.8378C43.5966 20.8378 40.8378 23.5968 40.8378 27C40.8378 30.4032 43.5966 33.162 46.9998 33.162C50.4032 33.162 53.162 30.4032 53.162 27C53.162 23.5968 50.4032 20.8378 46.9998 20.8378ZM46.9998 30.9999C44.7908 30.9998 42.9999 29.209 43.0001 26.9998C43.0001 24.7908 44.7908 22.9999 47 22.9999C49.2092 23.0001 50.9999 24.7908 50.9999 26.9998C50.9999 29.209 49.209 30.9999 46.9998 30.9999Z"
        fill="url(#paint1_linear)" />
    <path
        d="M54.8455 20.5944C54.8455 21.3896 54.2008 22.0344 53.4056 22.0344C52.6102 22.0344 51.9655 21.3896 51.9655 20.5944C51.9655 19.799 52.6102 19.1543 53.4056 19.1543C54.2008 19.1543 54.8455 19.799 54.8455 20.5944Z"
        fill="url(#paint2_linear)" />
    <defs>
        <linearGradient id="paint0_linear" x1="37.014" y1="36.9858" x2="56.986" y2="17.0138"
            gradientUnits="userSpaceOnUse">
            <stop stop-color="#FFD600" />
            <stop offset="0.5" stop-color="#FF0100" />
            <stop offset="1" stop-color="#D800B9" />
        </linearGradient>
        <linearGradient id="paint1_linear" x1="42.6426" y1="31.3572" x2="51.3572" y2="22.6426"
            gradientUnits="userSpaceOnUse">
            <stop stop-color="#FF6400" />
            <stop offset="0.5" stop-color="#FF0100" />
            <stop offset="1" stop-color="#FD0056" />
        </linearGradient>
        <linearGradient id="paint2_linear" x1="52.3873" y1="21.6125" x2="54.4237" y2="19.5761"
            gradientUnits="userSpaceOnUse">
            <stop stop-color="#F30072" />
            <stop offset="1" stop-color="#E50097" />
        </linearGradient>
    </defs>
</svg>
