<svg width="62" height="14" viewBox="0 0 62 14" fill="none" xmlns="http://www.w3.org/2000/svg">
<path d="M6.9637 0.256L4.7137 13H0.717697L2.9677 0.256H6.9637ZM20.6665 0.256L20.1085 3.424H16.7245L15.0325 13H11.0365L12.7285 3.424H9.38048L9.93848 0.256H20.6665ZM24.6843 0.256H28.6443L25.5843 5.566H22.9563L24.6843 0.256ZM35.555 13.126C33.995 13.126 32.747 12.814 31.811 12.19C30.887 11.566 30.425 10.654 30.425 9.454C30.425 9.334 30.437 9.154 30.461 8.914H34.709C34.673 9.286 34.727 9.562 34.871 9.742C35.027 9.922 35.279 10.012 35.627 10.012C35.843 10.012 36.023 9.958 36.167 9.85C36.311 9.742 36.383 9.586 36.383 9.382C36.383 9.094 36.239 8.854 35.951 8.662C35.675 8.47 35.225 8.242 34.601 7.978C33.917 7.69 33.353 7.414 32.909 7.15C32.477 6.886 32.099 6.526 31.775 6.07C31.451 5.614 31.289 5.044 31.289 4.36C31.289 3.46 31.511 2.686 31.955 2.038C32.411 1.378 33.041 0.879999 33.845 0.543999C34.649 0.207999 35.567 0.0399995 36.599 0.0399995C37.523 0.0399995 38.345 0.183999 39.065 0.471999C39.797 0.759999 40.367 1.18 40.775 1.732C41.195 2.272 41.405 2.914 41.405 3.658C41.405 3.754 41.393 3.922 41.369 4.162H37.067C37.091 4.018 37.103 3.922 37.103 3.874C37.103 3.646 37.037 3.472 36.905 3.352C36.773 3.22 36.593 3.154 36.365 3.154C36.161 3.154 35.993 3.214 35.861 3.334C35.729 3.454 35.663 3.61 35.663 3.802C35.663 4.066 35.801 4.3 36.077 4.504C36.353 4.696 36.791 4.936 37.391 5.224C38.075 5.548 38.639 5.854 39.083 6.142C39.539 6.43 39.929 6.814 40.253 7.294C40.577 7.762 40.739 8.338 40.739 9.022C40.739 9.802 40.529 10.504 40.109 11.128C39.701 11.752 39.107 12.244 38.327 12.604C37.547 12.952 36.623 13.126 35.555 13.126ZM56.9844 11.074H52.7364L51.7644 13H47.5704L54.4824 0.256H59.0904L61.4844 13H57.2724L56.9844 11.074ZM56.5524 8.068L56.0304 4.522L54.2484 8.068H56.5524Z" fill="white"/>
</svg>
