<svg width="10" height="14" viewBox="0 0 10 14" fill="none" xmlns="http://www.w3.org/2000/svg">
<path d="M1.11123 6.45372L7.34141 0.223657C7.48551 0.0794464 7.67786 -1.25446e-07 7.88297 -1.07515e-07C8.08807 -8.95841e-08 8.28043 0.0794465 8.42452 0.223657L8.88333 0.682352C9.18188 0.981244 9.18188 1.46703 8.88333 1.76547L3.6517 6.9971L8.88914 12.2345C9.03323 12.3787 9.11279 12.571 9.11279 12.776C9.11279 12.9812 9.03323 13.1734 8.88914 13.3178L8.43033 13.7763C8.28612 13.9206 8.09387 14 7.88877 14C7.68367 14 7.49131 13.9206 7.34721 13.7763L1.11123 7.54059C0.966795 7.39592 0.887463 7.20277 0.887918 6.99744C0.887463 6.79131 0.966795 6.59827 1.11123 6.45372Z" fill="#FF4350"/>
</svg>
