<svg width="88" height="104" viewBox="0 0 88 104" fill="none" xmlns="http://www.w3.org/2000/svg">
<path d="M84.3091 79.4839H50.8962C49.9249 79.4839 49.1479 79.098 48.3709 78.5193L26.8079 56.912C26.2252 56.3332 25.0596 56.3332 24.4768 56.912C24.0883 57.2978 24.0883 57.6837 23.894 58.0695V75.8183C23.894 77.7476 22.34 79.2909 20.3974 79.2909H3.49669C1.55408 79.2909 0 77.7476 0 75.8183V3.4726C0 1.54338 1.55408 0 3.49669 0H22.34C23.3113 0 24.2826 0.385844 25.0596 1.15753L61.1921 41.0924C61.7748 41.6712 62.7461 41.8641 63.5232 41.2853C63.9117 40.8995 64.106 40.5136 64.106 40.1278V16.9771C64.106 15.0479 65.66 13.5045 67.6026 13.5045H84.5033C86.4459 13.5045 88 15.0479 88 16.9771V76.0113C87.8057 77.9405 86.2517 79.4839 84.3091 79.4839Z" fill="white"/>
<path d="M6.46878 103.544H4.52716L1.94162 99.6768V103.544H0V96.6241H1.94162L4.52716 100.541V96.6241H6.46878V103.544Z" fill="white"/>
<path d="M14.6181 98.1652V99.294H16.847V100.757H14.6181V102.003H17.1442V103.544H12.6765V96.6241H17.1442V98.1652H14.6181Z" fill="white"/>
<path d="M25.1074 96.6241V100.639C25.1074 101.012 25.1932 101.3 25.365 101.503C25.5433 101.705 25.8107 101.807 26.1674 101.807C26.524 101.807 26.7915 101.705 26.9698 101.503C27.1547 101.293 27.2471 101.005 27.2471 100.639V96.6241H29.1888V100.639C29.1888 101.273 29.0534 101.817 28.7826 102.268C28.5118 102.713 28.142 103.05 27.6731 103.279C27.2108 103.502 26.6957 103.613 26.1277 103.613C25.5598 103.613 25.0513 103.502 24.6022 103.279C24.1597 103.05 23.8097 102.713 23.5521 102.268C23.3011 101.823 23.1757 101.28 23.1757 100.639V96.6241H25.1074Z" fill="white"/>
<path d="M38.896 103.544L37.5092 100.992H37.3011V103.544H35.3595V96.6241H38.4205C38.9819 96.6241 39.4574 96.7223 39.847 96.9186C40.2367 97.1083 40.5306 97.3734 40.7287 97.7136C40.9268 98.0474 41.0259 98.4237 41.0259 98.8425C41.0259 99.3136 40.8938 99.7291 40.6296 100.089C40.3721 100.442 39.9923 100.694 39.4904 100.845L41.0655 103.544H38.896ZM37.3011 99.6768H38.262C38.5262 99.6768 38.7243 99.6146 38.8564 99.4903C38.9885 99.366 39.0545 99.186 39.0545 98.9504C39.0545 98.7279 38.9852 98.5545 38.8465 98.4302C38.7144 98.2993 38.5196 98.2339 38.262 98.2339H37.3011V99.6768Z" fill="white"/>
<path d="M50.3589 103.613C49.7051 103.613 49.1041 103.462 48.5559 103.161C48.0078 102.854 47.5719 102.432 47.2483 101.895C46.9313 101.352 46.7728 100.74 46.7728 100.06C46.7728 99.3791 46.9313 98.7705 47.2483 98.2339C47.5719 97.6907 48.0078 97.2687 48.5559 96.9677C49.1041 96.6666 49.7051 96.5161 50.3589 96.5161C51.0193 96.5161 51.6203 96.6666 52.1618 96.9677C52.71 97.2687 53.1425 97.6907 53.4595 98.2339C53.7765 98.7705 53.935 99.3791 53.935 100.06C53.935 100.74 53.7765 101.352 53.4595 101.895C53.1425 102.432 52.71 102.854 52.1618 103.161C51.6137 103.462 51.0127 103.613 50.3589 103.613ZM50.3589 101.826C50.8542 101.826 51.2438 101.666 51.5278 101.345C51.8184 101.025 51.9637 100.596 51.9637 100.06C51.9637 99.5099 51.8184 99.078 51.5278 98.7639C51.2438 98.4433 50.8542 98.283 50.3589 98.283C49.857 98.283 49.464 98.4433 49.18 98.7639C48.8961 99.078 48.7541 99.5099 48.7541 100.06C48.7541 100.603 48.8961 101.035 49.18 101.355C49.464 101.669 49.857 101.826 50.3589 101.826Z" fill="white"/>
<path d="M65.4274 98.9308C65.4274 99.3496 65.3283 99.7324 65.1302 100.079C64.9387 100.42 64.6448 100.694 64.2485 100.904C63.8589 101.107 63.3801 101.208 62.8121 101.208H61.8512V103.544H59.9096V96.6241H62.8121C63.3735 96.6241 63.849 96.7223 64.2386 96.9186C64.6349 97.1149 64.9321 97.3865 65.1302 97.7333C65.3283 98.0801 65.4274 98.4793 65.4274 98.9308ZM62.6239 99.6768C63.172 99.6768 63.4461 99.4281 63.4461 98.9308C63.4461 98.4269 63.172 98.175 62.6239 98.175H61.8512V99.6768H62.6239Z" fill="white"/>
<path d="M75.7273 102.415H73.2508L72.8743 103.544H70.8336L73.3795 96.6241H75.6183L78.1543 103.544H76.1038L75.7273 102.415ZM75.2419 100.943L74.489 98.705L73.7461 100.943H75.2419Z" fill="white"/>
<path d="M85.8305 102.072H88V103.544H83.8889V96.6241H85.8305V102.072Z" fill="white"/>
</svg>
