<svg width="174" height="29" viewBox="0 0 174 29" fill="none" xmlns="http://www.w3.org/2000/svg">
<path d="M35.7192 2.512L31.2192 28H23.2632L25.4952 15.328L19.3392 28H12.4992L10.8072 15.22L8.57521 28H0.583206L5.08321 2.512H14.8752L17.7912 17.848L25.9632 2.512H35.7192ZM55.6334 24.148H47.1374L45.1934 28H36.8054L50.6294 2.512H59.8454L64.6334 28H56.2094L55.6334 24.148ZM54.7694 18.136L53.7254 11.044L50.1614 18.136H54.7694ZM94.7451 2.512L93.6291 8.848H86.8611L83.4771 28H75.4851L78.8691 8.848H72.1731L73.2891 2.512H94.7451ZM97.7407 15.22C98.1727 12.7 99.0727 10.456 100.441 8.488C101.809 6.52 103.537 4.996 105.625 3.916C107.713 2.812 110.041 2.26 112.609 2.26C114.817 2.26 116.713 2.68 118.297 3.52C119.905 4.336 121.129 5.5 121.969 7.012C122.809 8.524 123.217 10.288 123.193 12.304H114.769C114.529 11.464 114.097 10.816 113.473 10.36C112.849 9.88 112.081 9.64 111.169 9.64C109.825 9.64 108.673 10.144 107.713 11.152C106.753 12.16 106.129 13.516 105.841 15.22C105.745 15.7 105.697 16.216 105.697 16.768C105.697 18.016 105.997 19 106.597 19.72C107.221 20.44 108.097 20.8 109.225 20.8C110.137 20.8 110.989 20.572 111.781 20.116C112.573 19.636 113.233 18.976 113.761 18.136H122.185C121.465 20.152 120.421 21.916 119.053 23.428C117.685 24.94 116.053 26.116 114.157 26.956C112.285 27.772 110.245 28.18 108.037 28.18C105.805 28.18 103.897 27.772 102.313 26.956C100.729 26.116 99.5287 24.94 98.7127 23.428C97.8967 21.892 97.4887 20.116 97.4887 18.1C97.4887 17.116 97.5727 16.156 97.7407 15.22ZM155.158 2.512L150.658 28H142.666L144.43 18.064H136.834L135.07 28H127.078L131.578 2.512H139.57L137.95 11.692H145.546L147.166 2.512H155.158ZM173.586 0.819998L169.662 17.884H162.822L164.874 0.819998H173.586ZM164.406 28.288C163.158 28.288 162.174 27.988 161.454 27.388C160.758 26.788 160.41 26.008 160.41 25.048C160.41 24.208 160.638 23.428 161.094 22.708C161.574 21.988 162.222 21.424 163.038 21.016C163.878 20.584 164.802 20.368 165.81 20.368C167.034 20.368 167.994 20.68 168.69 21.304C169.386 21.904 169.734 22.684 169.734 23.644C169.734 24.484 169.506 25.264 169.05 25.984C168.594 26.68 167.958 27.244 167.142 27.676C166.326 28.084 165.414 28.288 164.406 28.288Z" fill="white"/>
</svg>
