<svg width="162" height="12" viewBox="0 0 162 12" fill="none" xmlns="http://www.w3.org/2000/svg">
<path d="M10.206 11H7.09795L3.80795 6.01598V11H0.699951V1.08798H3.80795L7.09795 6.15598V1.08798H10.206V11Z" fill="white"/>
<path d="M26.9681 3.56598V4.78398H30.0481V7.12198H26.9681V8.52198H30.4681V11H23.8601V1.08798H30.4681V3.56598H26.9681Z" fill="white"/>
<path d="M46.9274 1.08798V6.67398C46.9274 7.13132 47.0254 7.49532 47.2214 7.76598C47.4267 8.02732 47.7534 8.15798 48.2014 8.15798C48.6494 8.15798 48.9807 8.02732 49.1954 7.76598C49.4101 7.49532 49.5174 7.13132 49.5174 6.67398V1.08798H52.6114V6.67398C52.6114 7.61665 52.4154 8.42398 52.0234 9.09598C51.6314 9.75865 51.0947 10.258 50.4134 10.594C49.7321 10.93 48.9714 11.098 48.1314 11.098C47.2914 11.098 46.5447 10.93 45.8914 10.594C45.2474 10.258 44.7434 9.75865 44.3794 9.09598C44.0154 8.43332 43.8334 7.62598 43.8334 6.67398V1.08798H46.9274Z" fill="white"/>
<path d="M71.1859 11L69.3239 7.44398H69.3099V11H66.2019V1.08798H70.8219C71.6246 1.08798 72.3106 1.23265 72.8799 1.52198C73.4492 1.80198 73.8739 2.18932 74.1539 2.68398C74.4432 3.16932 74.5879 3.71998 74.5879 4.33598C74.5879 4.99865 74.4012 5.58665 74.0279 6.09998C73.6639 6.61332 73.1366 6.98198 72.4459 7.20598L74.6019 11H71.1859ZM69.3099 5.37198H70.5419C70.8406 5.37198 71.0646 5.30665 71.2139 5.17598C71.3632 5.03598 71.4379 4.82132 71.4379 4.53198C71.4379 4.27065 71.3586 4.06532 71.1999 3.91598C71.0506 3.76665 70.8312 3.69198 70.5419 3.69198H69.3099V5.37198Z" fill="white"/>
<path d="M92.6608 11.098C91.7275 11.098 90.8688 10.8787 90.0848 10.44C89.3101 10.0013 88.6941 9.39465 88.2368 8.61998C87.7795 7.84532 87.5508 6.97265 87.5508 6.00198C87.5508 5.03132 87.7795 4.15865 88.2368 3.38398C88.6941 2.60932 89.3101 2.00732 90.0848 1.57798C90.8688 1.13932 91.7275 0.919983 92.6608 0.919983C93.5941 0.919983 94.4481 1.13932 95.2228 1.57798C95.9975 2.00732 96.6088 2.60932 97.0568 3.38398C97.5141 4.15865 97.7428 5.03132 97.7428 6.00198C97.7428 6.97265 97.5141 7.84532 97.0568 8.61998C96.6088 9.39465 95.9928 10.0013 95.2088 10.44C94.4341 10.8787 93.5848 11.098 92.6608 11.098ZM92.6608 8.19998C93.2768 8.19998 93.7528 8.00398 94.0888 7.61198C94.4248 7.21065 94.5928 6.67398 94.5928 6.00198C94.5928 5.32065 94.4248 4.78398 94.0888 4.39198C93.7528 3.99065 93.2768 3.78998 92.6608 3.78998C92.0355 3.78998 91.5548 3.99065 91.2188 4.39198C90.8828 4.78398 90.7148 5.32065 90.7148 6.00198C90.7148 6.67398 90.8828 7.21065 91.2188 7.61198C91.5548 8.00398 92.0355 8.19998 92.6608 8.19998Z" fill="white"/>
<path d="M119.22 4.48998C119.22 5.11532 119.075 5.68465 118.786 6.19798C118.497 6.70198 118.067 7.10332 117.498 7.40198C116.938 7.70065 116.257 7.84998 115.454 7.84998H114.222V11H111.114V1.08798H115.454C116.667 1.08798 117.596 1.39598 118.24 2.01198C118.893 2.62798 119.22 3.45398 119.22 4.48998ZM115.104 5.39998C115.748 5.39998 116.07 5.09665 116.07 4.48998C116.07 3.88332 115.748 3.57998 115.104 3.57998H114.222V5.39998H115.104Z" fill="white"/>
<path d="M138.812 9.50198H135.508L135.018 11H131.756L135.382 1.08798H138.966L142.578 11H139.302L138.812 9.50198ZM138.056 7.16398L137.16 4.40598L136.264 7.16398H138.056Z" fill="white"/>
<path d="M158.642 8.64798H161.638V11H155.534V1.08798H158.642V8.64798Z" fill="white"/>
</svg>
