<svg width="12" height="18" viewBox="0 0 12 18" fill="none" xmlns="http://www.w3.org/2000/svg">
<path d="M11.52 9.29649C11.52 8.93649 11.2447 8.66119 10.8847 8.66119C10.5247 8.66119 10.2494 8.93649 10.2494 9.29649C10.2494 11.7741 8.23765 13.7859 5.76 13.7859C3.28235 13.7859 1.27059 11.7741 1.27059 9.29649C1.27059 8.93649 0.995294 8.66119 0.635294 8.66119C0.275294 8.66119 0 8.93649 0 9.29649C0 12.24 2.20235 14.7177 5.12471 15.0353V16.7294H2.81647C2.45647 16.7294 2.18118 17.0047 2.18118 17.3647C2.18118 17.7247 2.45647 18 2.81647 18H8.70353C9.06353 18 9.33882 17.7247 9.33882 17.3647C9.33882 17.0047 9.06353 16.7294 8.70353 16.7294H6.39529V15.0353C9.31765 14.7177 11.52 12.24 11.52 9.29649Z" fill="#53AAE0"/>
<path d="M5.7601 0C3.81187 0 2.22363 1.58824 2.22363 3.53647V9.27529C2.22363 11.2447 3.81187 12.8118 5.7601 12.8329C7.70834 12.8329 9.29657 11.2447 9.29657 9.29647V3.53647C9.29657 1.58824 7.70834 0 5.7601 0Z" fill="#53AAE0"/>
</svg>
