<svg width="315" height="60" viewBox="0 0 315 60" fill="none" xmlns="http://www.w3.org/2000/svg">
<rect x="0.5" y="0.5" width="314" height="59" rx="29.5" stroke="white"/>
<path d="M92.9776 35.098C92.2962 35.098 91.6802 34.9813 91.1296 34.748C90.5882 34.5147 90.1589 34.1787 89.8416 33.74C89.5242 33.3013 89.3609 32.7833 89.3516 32.186H91.4516C91.4796 32.5873 91.6196 32.9047 91.8716 33.138C92.1329 33.3713 92.4876 33.488 92.9356 33.488C93.3929 33.488 93.7522 33.3807 94.0136 33.166C94.2749 32.942 94.4056 32.6527 94.4056 32.298C94.4056 32.0087 94.3169 31.7707 94.1396 31.584C93.9622 31.3973 93.7382 31.2527 93.4676 31.15C93.2062 31.038 92.8422 30.9167 92.3756 30.786C91.7409 30.5993 91.2229 30.4173 90.8216 30.24C90.4296 30.0533 90.0889 29.778 89.7996 29.414C89.5196 29.0407 89.3796 28.546 89.3796 27.93C89.3796 27.3513 89.5242 26.8473 89.8136 26.418C90.1029 25.9887 90.5089 25.662 91.0316 25.438C91.5542 25.2047 92.1516 25.088 92.8236 25.088C93.8316 25.088 94.6482 25.3353 95.2736 25.83C95.9082 26.3153 96.2582 26.9967 96.3236 27.874H94.1676C94.1489 27.538 94.0042 27.2627 93.7336 27.048C93.4722 26.824 93.1222 26.712 92.6836 26.712C92.3009 26.712 91.9929 26.81 91.7596 27.006C91.5356 27.202 91.4236 27.4867 91.4236 27.86C91.4236 28.1213 91.5076 28.3407 91.6756 28.518C91.8529 28.686 92.0676 28.826 92.3196 28.938C92.5809 29.0407 92.9449 29.162 93.4116 29.302C94.0462 29.4887 94.5642 29.6753 94.9656 29.862C95.3669 30.0487 95.7122 30.3287 96.0016 30.702C96.2909 31.0753 96.4356 31.5653 96.4356 32.172C96.4356 32.6947 96.3002 33.18 96.0296 33.628C95.7589 34.076 95.3622 34.4353 94.8396 34.706C94.3169 34.9673 93.6962 35.098 92.9776 35.098ZM101.565 26.81V29.26H104.855V30.814H101.565V33.404H105.275V35H99.6048V25.214H105.275V26.81H101.565ZM116.884 35H114.924L110.486 28.294V35H108.526V25.214H110.486L114.924 31.934V25.214H116.884V35ZM123.707 25.228C124.734 25.228 125.634 25.4287 126.409 25.83C127.193 26.2313 127.795 26.8053 128.215 27.552C128.644 28.2893 128.859 29.148 128.859 30.128C128.859 31.108 128.644 31.9667 128.215 32.704C127.795 33.432 127.193 33.9967 126.409 34.398C125.634 34.7993 124.734 35 123.707 35H120.291V25.228H123.707ZM123.637 33.334C124.664 33.334 125.457 33.054 126.017 32.494C126.577 31.934 126.857 31.1453 126.857 30.128C126.857 29.1107 126.577 28.3173 126.017 27.748C125.457 27.1693 124.664 26.88 123.637 26.88H122.251V33.334H123.637ZM142.594 33.138H138.702L138.058 35H136L139.514 25.214H141.796L145.31 35H143.238L142.594 33.138ZM142.062 31.57L140.648 27.482L139.234 31.57H142.062ZM163.553 25.228V35H161.593V28.644L158.975 35H157.491L154.859 28.644V35H152.899V25.228H155.125L158.233 32.494L161.341 25.228H163.553ZM168.921 26.81V29.26H172.211V30.814H168.921V33.404H172.631V35H166.961V25.214H172.631V26.81H168.921ZM179.256 35.098C178.575 35.098 177.959 34.9813 177.408 34.748C176.867 34.5147 176.438 34.1787 176.12 33.74C175.803 33.3013 175.64 32.7833 175.63 32.186H177.73C177.758 32.5873 177.898 32.9047 178.15 33.138C178.412 33.3713 178.766 33.488 179.214 33.488C179.672 33.488 180.031 33.3807 180.292 33.166C180.554 32.942 180.684 32.6527 180.684 32.298C180.684 32.0087 180.596 31.7707 180.418 31.584C180.241 31.3973 180.017 31.2527 179.746 31.15C179.485 31.038 179.121 30.9167 178.654 30.786C178.02 30.5993 177.502 30.4173 177.1 30.24C176.708 30.0533 176.368 29.778 176.078 29.414C175.798 29.0407 175.658 28.546 175.658 27.93C175.658 27.3513 175.803 26.8473 176.092 26.418C176.382 25.9887 176.788 25.662 177.31 25.438C177.833 25.2047 178.43 25.088 179.102 25.088C180.11 25.088 180.927 25.3353 181.552 25.83C182.187 26.3153 182.537 26.9967 182.602 27.874H180.446C180.428 27.538 180.283 27.2627 180.012 27.048C179.751 26.824 179.401 26.712 178.962 26.712C178.58 26.712 178.272 26.81 178.038 27.006C177.814 27.202 177.702 27.4867 177.702 27.86C177.702 28.1213 177.786 28.3407 177.954 28.518C178.132 28.686 178.346 28.826 178.598 28.938C178.86 29.0407 179.224 29.162 179.69 29.302C180.325 29.4887 180.843 29.6753 181.244 29.862C181.646 30.0487 181.991 30.3287 182.28 30.702C182.57 31.0753 182.714 31.5653 182.714 32.172C182.714 32.6947 182.579 33.18 182.308 33.628C182.038 34.076 181.641 34.4353 181.118 34.706C180.596 34.9673 179.975 35.098 179.256 35.098ZM189.258 35.098C188.576 35.098 187.96 34.9813 187.41 34.748C186.868 34.5147 186.439 34.1787 186.122 33.74C185.804 33.3013 185.641 32.7833 185.632 32.186H187.732C187.76 32.5873 187.9 32.9047 188.152 33.138C188.413 33.3713 188.768 33.488 189.216 33.488C189.673 33.488 190.032 33.3807 190.294 33.166C190.555 32.942 190.686 32.6527 190.686 32.298C190.686 32.0087 190.597 31.7707 190.42 31.584C190.242 31.3973 190.018 31.2527 189.748 31.15C189.486 31.038 189.122 30.9167 188.656 30.786C188.021 30.5993 187.503 30.4173 187.102 30.24C186.71 30.0533 186.369 29.778 186.08 29.414C185.8 29.0407 185.66 28.546 185.66 27.93C185.66 27.3513 185.804 26.8473 186.094 26.418C186.383 25.9887 186.789 25.662 187.312 25.438C187.834 25.2047 188.432 25.088 189.104 25.088C190.112 25.088 190.928 25.3353 191.554 25.83C192.188 26.3153 192.538 26.9967 192.604 27.874H190.448C190.429 27.538 190.284 27.2627 190.014 27.048C189.752 26.824 189.402 26.712 188.964 26.712C188.581 26.712 188.273 26.81 188.04 27.006C187.816 27.202 187.704 27.4867 187.704 27.86C187.704 28.1213 187.788 28.3407 187.956 28.518C188.133 28.686 188.348 28.826 188.6 28.938C188.861 29.0407 189.225 29.162 189.692 29.302C190.326 29.4887 190.844 29.6753 191.246 29.862C191.647 30.0487 191.992 30.3287 192.282 30.702C192.571 31.0753 192.716 31.5653 192.716 32.172C192.716 32.6947 192.58 33.18 192.31 33.628C192.039 34.076 191.642 34.4353 191.12 34.706C190.597 34.9673 189.976 35.098 189.258 35.098ZM201.877 33.138H197.985L197.341 35H195.283L198.797 25.214H201.079L204.593 35H202.521L201.877 33.138ZM201.345 31.57L199.931 27.482L198.517 31.57H201.345ZM214.18 28.168C213.956 27.7573 213.648 27.4447 213.256 27.23C212.864 27.0153 212.407 26.908 211.884 26.908C211.306 26.908 210.792 27.0387 210.344 27.3C209.896 27.5613 209.546 27.9347 209.294 28.42C209.042 28.9053 208.916 29.4653 208.916 30.1C208.916 30.7533 209.042 31.3227 209.294 31.808C209.556 32.2933 209.915 32.6667 210.372 32.928C210.83 33.1893 211.362 33.32 211.968 33.32C212.715 33.32 213.326 33.124 213.802 32.732C214.278 32.3307 214.591 31.7753 214.74 31.066H211.38V29.568H216.672V31.276C216.542 31.9573 216.262 32.5873 215.832 33.166C215.403 33.7447 214.848 34.2113 214.166 34.566C213.494 34.9113 212.738 35.084 211.898 35.084C210.956 35.084 210.102 34.874 209.336 34.454C208.58 34.0247 207.983 33.432 207.544 32.676C207.115 31.92 206.9 31.0613 206.9 30.1C206.9 29.1387 207.115 28.28 207.544 27.524C207.983 26.7587 208.58 26.166 209.336 25.746C210.102 25.3167 210.951 25.102 211.884 25.102C212.986 25.102 213.942 25.3727 214.754 25.914C215.566 26.446 216.126 27.1973 216.434 28.168H214.18ZM221.552 26.81V29.26H224.842V30.814H221.552V33.404H225.262V35H219.592V25.214H225.262V26.81H221.552Z" fill="white"/>
</svg>
