<svg width="24" height="23" viewBox="0 0 24 23" fill="none" xmlns="http://www.w3.org/2000/svg">
<path d="M23.6935 14.1656L21.5402 13.0327C21.7576 11.9643 21.7576 10.8683 21.5402 9.79987L23.6935 8.667C23.9411 8.53805 24.0523 8.27095 23.9715 8.02227C23.4104 6.38283 22.4551 4.89996 21.2066 3.66577C21.0145 3.47696 20.7012 3.4309 20.4585 3.55985L18.3053 4.69273C17.4006 3.98353 16.3593 3.43551 15.2322 3.07631V0.815161C15.2322 0.55727 15.035 0.331616 14.757 0.276354C12.902 -0.101271 11.0015 -0.0828502 9.23748 0.276354C8.95948 0.331616 8.76235 0.55727 8.76235 0.815161V3.08091C7.64024 3.44472 6.59901 3.99274 5.68919 4.69733L3.54101 3.56446C3.29334 3.43551 2.98501 3.47696 2.79294 3.67037C1.54447 4.89996 0.589163 6.38283 0.0281093 8.02688C-0.0578179 8.27556 0.0584365 8.54266 0.306109 8.6716L2.45934 9.80448C2.242 10.8729 2.242 11.9689 2.45934 13.0373L0.306109 14.1702C0.0584365 14.2991 -0.0527633 14.5662 0.0281093 14.8149C0.589163 16.4544 1.54447 17.9372 2.79294 19.1714C2.98501 19.3602 3.29839 19.4063 3.54101 19.2773L5.69425 18.1445C6.59901 18.8537 7.64024 19.4017 8.76741 19.7609V22.0266C8.76741 22.2845 8.96453 22.5102 9.24253 22.5654C11.0975 22.9431 12.9981 22.9246 14.7621 22.5654C15.0401 22.5102 15.2372 22.2845 15.2372 22.0266V19.7609C16.3593 19.3971 17.4006 18.8491 18.3104 18.1445L20.4636 19.2773C20.7113 19.4063 21.0196 19.3648 21.2117 19.1714C22.4601 17.9418 23.4155 16.459 23.9765 14.8149C24.0523 14.5616 23.9411 14.2945 23.6935 14.1656ZM11.9973 15.1004C9.7682 15.1004 7.95362 13.4472 7.95362 11.4163C7.95362 9.38541 9.7682 7.73215 11.9973 7.73215C14.2263 7.73215 16.0409 9.38541 16.0409 11.4163C16.0409 13.4472 14.2263 15.1004 11.9973 15.1004Z" fill="#FF4350"/>
</svg>
