<svg width="319" height="54" viewBox="0 0 319 54" fill="none" xmlns="http://www.w3.org/2000/svg">
<path d="M60.8906 18.7786H41.1094C39.9463 18.7786 39 19.7248 39 20.8879V33.1121C39 34.2752 39.9463 35.2215 41.1094 35.2215H60.8906C62.0537 35.2215 63 34.2752 63 33.1121V20.8879C63 19.7248 62.0537 18.7786 60.8906 18.7786ZM60.6153 20.1848L60.3338 20.4192L51.8369 27.4946C51.3519 27.8984 50.648 27.8984 50.1631 27.4946L41.6662 20.4192L41.3847 20.1848H60.6153ZM40.4062 21.2L47.3293 26.9649L40.4062 31.5723V21.2ZM60.8906 33.8152H41.1094C40.7696 33.8152 40.4855 33.573 40.4204 33.2522L48.4568 27.9037L49.2633 28.5753C49.7664 28.9942 50.3833 29.2037 51 29.2037C51.6168 29.2037 52.2336 28.9942 52.7368 28.5753L53.5433 27.9037L61.5797 33.2522C61.5145 33.573 61.2304 33.8152 60.8906 33.8152ZM61.5938 31.5723L54.6707 26.9649L61.5938 21.2V31.5723Z" fill="#5BAEE2"/>
<path d="M117.393 30.446H120.613V32H115.433V22.228H117.393V30.446ZM126.772 32.126C126.026 32.126 125.354 31.9627 124.756 31.636C124.159 31.3 123.688 30.8287 123.342 30.222C123.006 29.6153 122.838 28.9153 122.838 28.122C122.838 27.3287 123.011 26.6287 123.356 26.022C123.711 25.4153 124.192 24.9487 124.798 24.622C125.405 24.286 126.082 24.118 126.828 24.118C127.575 24.118 128.252 24.286 128.858 24.622C129.465 24.9487 129.941 25.4153 130.286 26.022C130.641 26.6287 130.818 27.3287 130.818 28.122C130.818 28.9153 130.636 29.6153 130.272 30.222C129.918 30.8287 129.432 31.3 128.816 31.636C128.21 31.9627 127.528 32.126 126.772 32.126ZM126.772 30.418C127.127 30.418 127.458 30.334 127.766 30.166C128.084 29.9887 128.336 29.7273 128.522 29.382C128.709 29.0367 128.802 28.6167 128.802 28.122C128.802 27.3847 128.606 26.82 128.214 26.428C127.832 26.0267 127.36 25.826 126.8 25.826C126.24 25.826 125.769 26.0267 125.386 26.428C125.013 26.82 124.826 27.3847 124.826 28.122C124.826 28.8593 125.008 29.4287 125.372 29.83C125.746 30.222 126.212 30.418 126.772 30.418ZM136.764 24.118C137.343 24.118 137.851 24.2347 138.29 24.468C138.729 24.692 139.074 24.986 139.326 25.35V24.244H141.3V32.056C141.3 32.7747 141.155 33.414 140.866 33.974C140.577 34.5433 140.143 34.9913 139.564 35.318C138.985 35.654 138.285 35.822 137.464 35.822C136.363 35.822 135.457 35.5653 134.748 35.052C134.048 34.5387 133.651 33.8387 133.558 32.952H135.504C135.607 33.3067 135.826 33.5867 136.162 33.792C136.507 34.0067 136.923 34.114 137.408 34.114C137.977 34.114 138.439 33.9413 138.794 33.596C139.149 33.26 139.326 32.7467 139.326 32.056V30.852C139.074 31.216 138.724 31.5193 138.276 31.762C137.837 32.0047 137.333 32.126 136.764 32.126C136.111 32.126 135.513 31.958 134.972 31.622C134.431 31.286 134.001 30.8147 133.684 30.208C133.376 29.592 133.222 28.8873 133.222 28.094C133.222 27.31 133.376 26.6147 133.684 26.008C134.001 25.4013 134.426 24.9347 134.958 24.608C135.499 24.2813 136.101 24.118 136.764 24.118ZM139.326 28.122C139.326 27.646 139.233 27.24 139.046 26.904C138.859 26.5587 138.607 26.2973 138.29 26.12C137.973 25.9333 137.632 25.84 137.268 25.84C136.904 25.84 136.568 25.9287 136.26 26.106C135.952 26.2833 135.7 26.5447 135.504 26.89C135.317 27.226 135.224 27.6273 135.224 28.094C135.224 28.5607 135.317 28.9713 135.504 29.326C135.7 29.6713 135.952 29.9373 136.26 30.124C136.577 30.3107 136.913 30.404 137.268 30.404C137.632 30.404 137.973 30.3153 138.29 30.138C138.607 29.9513 138.859 29.69 139.046 29.354C139.233 29.0087 139.326 28.598 139.326 28.122ZM150.484 23.32C150.139 23.32 149.85 23.2127 149.616 22.998C149.392 22.774 149.28 22.4987 149.28 22.172C149.28 21.8453 149.392 21.5747 149.616 21.36C149.85 21.136 150.139 21.024 150.484 21.024C150.83 21.024 151.114 21.136 151.338 21.36C151.572 21.5747 151.688 21.8453 151.688 22.172C151.688 22.4987 151.572 22.774 151.338 22.998C151.114 23.2127 150.83 23.32 150.484 23.32ZM151.45 24.244V32H149.49V24.244H151.45ZM159.155 24.132C160.079 24.132 160.825 24.426 161.395 25.014C161.964 25.5927 162.249 26.4047 162.249 27.45V32H160.289V27.716C160.289 27.1 160.135 26.6287 159.827 26.302C159.519 25.966 159.099 25.798 158.567 25.798C158.025 25.798 157.596 25.966 157.279 26.302C156.971 26.6287 156.817 27.1 156.817 27.716V32H154.857V24.244H156.817V25.21C157.078 24.874 157.409 24.6127 157.811 24.426C158.221 24.23 158.669 24.132 159.155 24.132ZM181.141 24.244L178.873 32H176.759L175.345 26.582L173.931 32H171.803L169.521 24.244H171.509L172.881 30.152L174.365 24.244H176.437L177.893 30.138L179.265 24.244H181.141ZM184.665 23.32C184.32 23.32 184.03 23.2127 183.797 22.998C183.573 22.774 183.461 22.4987 183.461 22.172C183.461 21.8453 183.573 21.5747 183.797 21.36C184.03 21.136 184.32 21.024 184.665 21.024C185.01 21.024 185.295 21.136 185.519 21.36C185.752 21.5747 185.869 21.8453 185.869 22.172C185.869 22.4987 185.752 22.774 185.519 22.998C185.295 23.2127 185.01 23.32 184.665 23.32ZM185.631 24.244V32H183.671V24.244H185.631ZM191.32 25.854V29.606C191.32 29.8673 191.38 30.0587 191.502 30.18C191.632 30.292 191.847 30.348 192.146 30.348H193.056V32H191.824C190.172 32 189.346 31.1973 189.346 29.592V25.854H188.422V24.244H189.346V22.326H191.32V24.244H193.056V25.854H191.32ZM200.303 24.132C200.891 24.132 201.414 24.2627 201.871 24.524C202.329 24.776 202.683 25.154 202.935 25.658C203.197 26.1527 203.327 26.75 203.327 27.45V32H201.367V27.716C201.367 27.1 201.213 26.6287 200.905 26.302C200.597 25.966 200.177 25.798 199.645 25.798C199.104 25.798 198.675 25.966 198.357 26.302C198.049 26.6287 197.895 27.1 197.895 27.716V32H195.935V21.64H197.895V25.21C198.147 24.874 198.483 24.6127 198.903 24.426C199.323 24.23 199.79 24.132 200.303 24.132ZM213.427 23.81V26.26H216.717V27.814H213.427V30.404H217.137V32H211.467V22.214H217.137V23.81H213.427ZM230.02 24.132C230.972 24.132 231.738 24.426 232.316 25.014C232.904 25.5927 233.198 26.4047 233.198 27.45V32H231.238V27.716C231.238 27.1093 231.084 26.6473 230.776 26.33C230.468 26.0033 230.048 25.84 229.516 25.84C228.984 25.84 228.56 26.0033 228.242 26.33C227.934 26.6473 227.78 27.1093 227.78 27.716V32H225.82V27.716C225.82 27.1093 225.666 26.6473 225.358 26.33C225.05 26.0033 224.63 25.84 224.098 25.84C223.557 25.84 223.128 26.0033 222.81 26.33C222.502 26.6473 222.348 27.1093 222.348 27.716V32H220.388V24.244H222.348V25.182C222.6 24.8553 222.922 24.5987 223.314 24.412C223.716 24.2253 224.154 24.132 224.63 24.132C225.237 24.132 225.778 24.2627 226.254 24.524C226.73 24.776 227.099 25.14 227.36 25.616C227.612 25.168 227.976 24.8087 228.452 24.538C228.938 24.2673 229.46 24.132 230.02 24.132ZM236.024 28.094C236.024 27.31 236.178 26.6147 236.486 26.008C236.804 25.4013 237.228 24.9347 237.76 24.608C238.302 24.2813 238.904 24.118 239.566 24.118C240.145 24.118 240.649 24.2347 241.078 24.468C241.517 24.7013 241.867 24.9953 242.128 25.35V24.244H244.102V32H242.128V30.866C241.876 31.23 241.526 31.5333 241.078 31.776C240.64 32.0093 240.131 32.126 239.552 32.126C238.899 32.126 238.302 31.958 237.76 31.622C237.228 31.286 236.804 30.8147 236.486 30.208C236.178 29.592 236.024 28.8873 236.024 28.094ZM242.128 28.122C242.128 27.646 242.035 27.24 241.848 26.904C241.662 26.5587 241.41 26.2973 241.092 26.12C240.775 25.9333 240.434 25.84 240.07 25.84C239.706 25.84 239.37 25.9287 239.062 26.106C238.754 26.2833 238.502 26.5447 238.306 26.89C238.12 27.226 238.026 27.6273 238.026 28.094C238.026 28.5607 238.12 28.9713 238.306 29.326C238.502 29.6713 238.754 29.9373 239.062 30.124C239.38 30.3107 239.716 30.404 240.07 30.404C240.434 30.404 240.775 30.3153 241.092 30.138C241.41 29.9513 241.662 29.69 241.848 29.354C242.035 29.0087 242.128 28.598 242.128 28.122ZM248.48 23.32C248.135 23.32 247.846 23.2127 247.612 22.998C247.388 22.774 247.276 22.4987 247.276 22.172C247.276 21.8453 247.388 21.5747 247.612 21.36C247.846 21.136 248.135 21.024 248.48 21.024C248.826 21.024 249.11 21.136 249.334 21.36C249.568 21.5747 249.684 21.8453 249.684 22.172C249.684 22.4987 249.568 22.774 249.334 22.998C249.11 23.2127 248.826 23.32 248.48 23.32ZM249.446 24.244V32H247.486V24.244H249.446ZM254.813 21.64V32H252.853V21.64H254.813Z" fill="#393939"/>
<rect x="0.5" y="0.5" width="317.25" height="53" rx="26.5" stroke="#E4E7F1"/>
</svg>
