<svg width="349" height="516" viewBox="0 0 349 516" fill="none" xmlns="http://www.w3.org/2000/svg">
<path d="M134.14 26.2713C135.106 22.6661 136.711 19.4024 138.8 16.5693L174.389 7.03304L209.979 16.5693C212.068 19.4024 213.672 22.6661 214.638 26.2713L285.826 291.948C289.972 307.419 280.791 323.32 265.32 327.466L174.389 351.831L83.4586 327.466C67.9881 323.32 58.8072 307.419 62.9525 291.948L134.14 26.2713ZM135.846 17.3607C134.263 19.8999 133.023 22.7132 132.208 25.7537L61.0206 291.43C60.5235 293.286 60.2057 295.147 60.0565 296.996L2.73046 83.0519C-1.41485 67.5814 7.76604 51.6796 23.2366 47.5343L135.846 17.3607ZM170.526 5.99777L141.026 13.9022C148.108 6.38793 158.985 2.90556 169.658 5.76525L170.526 5.99777ZM207.753 13.9022L178.253 5.99777L179.121 5.76525C189.793 2.90556 200.671 6.38793 207.753 13.9022ZM216.57 25.7537C215.756 22.7132 214.516 19.8999 212.933 17.3607L325.542 47.5343C341.013 51.6796 350.194 67.5814 346.048 83.0519L288.722 296.996C288.573 295.147 288.255 293.286 287.758 291.43L216.57 25.7537ZM265.838 329.398C273.257 327.41 279.323 322.893 283.356 317.023L274.861 348.729C270.715 364.199 254.813 373.38 239.343 369.235L178.253 352.866L265.838 329.398ZM82.9409 329.398L170.526 352.866L109.436 369.235C93.9654 373.38 78.0636 364.199 73.9183 348.729L65.4227 317.023C69.4563 322.893 75.5221 327.41 82.9409 329.398Z" fill="white" stroke="#E9CFE7" stroke-width="2"/>
<path d="M52 30.591C52 14.5748 64.9837 1.59106 81 1.59106H268C284.016 1.59106 297 14.5748 297 30.5911V344.409C297 360.425 284.016 373.409 268 373.409H81C64.9837 373.409 52 360.425 52 344.409V30.591Z" fill="white" stroke="#C078BA" stroke-width="2"/>
<path fill-rule="evenodd" clip-rule="evenodd" d="M124 514C139.464 514 152 501.464 152 486C152 470.536 139.464 458 124 458C108.536 458 96 470.536 96 486C96 501.464 108.536 514 124 514ZM124 516C140.569 516 154 502.569 154 486C154 469.431 140.569 456 124 456C107.431 456 94 469.431 94 486C94 502.569 107.431 516 124 516Z" fill="#5BAEE2"/>
<path d="M124.001 489.3L117.813 495.487C117.13 496.171 116.021 496.171 115.339 495.487L114.514 494.662C113.83 493.979 113.83 492.87 114.514 492.188L120.701 486.001L114.513 479.813C113.829 479.13 113.829 478.021 114.513 477.339L115.338 476.513C116.021 475.829 117.13 475.829 117.812 476.513L124.001 482.701L130.188 476.514C130.872 475.83 131.98 475.83 132.662 476.514L133.487 477.339C134.171 478.022 134.171 479.131 133.487 479.813L127.3 486.001L133.487 492.188C134.171 492.872 134.171 493.98 133.487 494.662L132.662 495.487C131.979 496.171 130.87 496.171 130.188 495.487L124.001 489.3Z" fill="#5BAEE2"/>
<path fill-rule="evenodd" clip-rule="evenodd" d="M226 514C241.464 514 254 501.464 254 486C254 470.536 241.464 458 226 458C210.536 458 198 470.536 198 486C198 501.464 210.536 514 226 514ZM226 516C242.569 516 256 502.569 256 486C256 469.431 242.569 456 226 456C209.431 456 196 469.431 196 486C196 502.569 209.431 516 226 516Z" fill="#C078BA"/>
<path d="M216.69 487.113C216.472 487.367 216.367 487.689 216.392 488.022C216.418 488.356 216.572 488.659 216.826 488.876L222.995 494.164C223.224 494.36 223.508 494.465 223.807 494.465C223.843 494.465 223.881 494.463 223.918 494.46C224.256 494.43 224.56 494.269 224.775 494.008L235.327 481.166C235.538 480.907 235.638 480.582 235.605 480.25C235.572 479.917 235.413 479.617 235.154 479.405L233.222 477.818C232.69 477.382 231.902 477.458 231.463 477.991L223.342 487.875L220.079 485.079C219.556 484.632 218.766 484.692 218.317 485.215L216.69 487.113Z" fill="#C078BA"/>
<path fill-rule="evenodd" clip-rule="evenodd" d="M174 3.97872L174 2H176V3.97872L174 3.97872ZM174 11.8936L174 7.93617H176L176 11.8936H174ZM174 19.8085L174 15.8511H176L176 19.8085H174ZM174 27.7234L174 23.766H176V27.7234H174ZM174 35.6383L174 31.6809H176V35.6383H174ZM174 43.5532L174 39.5957H176L176 43.5532H174ZM174 51.4681L174 47.5106H176L176 51.4681H174ZM174 59.383L174 55.4255H176V59.383H174ZM174 67.2979L174 63.3404L176 63.3404L176 67.2979H174ZM174 75.2128L174 71.2553H176L176 75.2128H174ZM174 83.1276L174 79.1702H176L176 83.1276H174ZM174 91.0425L174 87.0851H176V91.0425H174ZM174 98.9574L174 95H176L176 98.9574L174 98.9574ZM174 106.872L174 102.915H176L176 106.872H174ZM174 114.787L174 110.83H176V114.787H174ZM174 122.702L174 118.745H176V122.702H174ZM174 130.617L174 126.66H176L176 130.617H174ZM174 138.532L174 134.574H176L176 138.532H174ZM174 146.447L174 142.489H176V146.447H174ZM174 154.362L174 150.404H176L176 154.362H174ZM174 162.277L174 158.319H176L176 162.277H174ZM174 170.191L174 166.234H176V170.191H174ZM174 178.106L174 174.149H176V178.106H174ZM174 186.021L174 182.064H176L176 186.021H174ZM174 193.936L174 189.979H176L176 193.936H174ZM174 201.851L174 197.894H176V201.851H174ZM174 209.766L174 205.808H176L176 209.766H174ZM174 217.681L174 213.723H176L176 217.681H174ZM174 225.596L174 221.638H176L176 225.596H174ZM174 233.51L174 229.553H176V233.51H174ZM174 241.425L174 237.468H176L176 241.425H174ZM174 249.34L174 245.383H176L176 249.34H174ZM174 257.255L174 253.298H176V257.255H174ZM174 265.17L174 261.213H176V265.17H174ZM174 273.085L174 269.128H176L176 273.085H174ZM174 281L174 277.042H176L176 281H174ZM174 288.915L174 284.957H176V288.915H174ZM174 296.83L174 292.872H176L176 296.83H174ZM174 304.745L174 300.787H176L176 304.745H174ZM174 312.66L174 308.702H176V312.66H174ZM174 320.574L174 316.617H176V320.574H174ZM174 328.489L174 324.532H176L176 328.489H174ZM174 336.404L174 332.447H176L176 336.404H174ZM174 344.319L174 340.362H176V344.319H174ZM174 352.234L174 348.277H176L176 352.234H174ZM174 360.149L174 356.192H176L176 360.149H174ZM174 368.064L174 364.107H176L176 368.064H174ZM174 374L174 372.021H176V374H174Z" fill="#C078BA"/>
<path d="M251.776 175.671L254.308 166.224C255.031 163.524 254.191 160.955 252.06 159.352C250.913 158.489 249.595 158.083 248.45 158.185C248.137 157.453 247.645 156.778 246.99 156.208C245.743 155.12 244.146 154.589 242.72 154.727C242.259 153.749 241.473 152.902 240.414 152.303C239.527 151.802 238.591 151.552 237.73 151.551L239.845 142.911C240.46 140.399 239.078 137.932 236.698 137.294C234.305 136.653 231.82 138.14 231.158 140.61L225.413 162.051C225.082 161.482 224.874 160.919 224.66 160.339C224.128 158.899 223.525 157.268 221.025 155.984C218.907 154.897 216.672 155.492 215.492 156.506C214.559 157.307 214.207 158.399 214.55 159.426C214.651 159.729 214.782 160.039 214.92 160.367C215.373 161.44 215.994 162.911 216.239 165.703C216.58 169.593 218.382 171.789 219.829 173.554C221.225 175.257 222.279 176.544 221.961 178.953C221.367 178.835 220.776 179.195 220.617 179.789L218.516 187.627C218.351 188.245 218.718 188.881 219.336 189.046L244.107 195.684C244.725 195.849 245.361 195.482 245.527 194.864L247.627 187.026C247.787 186.43 247.451 185.82 246.873 185.628C247.404 184.241 248.195 182.895 249.024 181.488C250.102 179.656 251.216 177.762 251.776 175.671ZM243.587 193.144L221.056 187.107L222.556 181.508L228.783 183.177C229.401 183.342 230.037 182.975 230.203 182.357C230.368 181.739 230.001 181.103 229.383 180.937L224.216 179.553C224.802 175.965 223.188 173.994 221.622 172.084C220.248 170.409 218.827 168.676 218.549 165.5C218.272 162.345 217.54 160.612 217.057 159.465C216.931 159.167 216.822 158.91 216.749 158.691C216.696 158.533 216.971 158.292 217.003 158.265C217.617 157.737 218.864 157.481 219.966 158.047C221.663 158.918 221.99 159.803 222.485 161.142C222.88 162.211 223.361 163.512 224.659 164.865L224.535 165.327C224.37 165.946 224.737 166.581 225.355 166.747C225.973 166.913 226.609 166.546 226.775 165.927L233.398 141.21C233.729 139.975 234.94 139.223 236.099 139.533C237.23 139.837 237.9 141.105 237.593 142.36L233.947 157.254C233.797 157.868 234.165 158.487 234.773 158.65C234.781 158.652 234.789 158.654 234.797 158.656C235.419 158.808 236.047 158.428 236.199 157.806L237.138 153.968C237.58 153.771 238.437 153.848 239.272 154.321C239.758 154.596 241.302 155.646 240.772 157.624C240.607 158.243 240.974 158.878 241.592 159.044C242.21 159.21 242.846 158.843 243.012 158.224C243.119 157.823 243.179 157.422 243.192 157.027C243.933 157.038 244.803 157.376 245.467 157.955C245.998 158.418 246.83 159.412 246.438 160.875C246.272 161.493 246.639 162.129 247.257 162.295C247.876 162.46 248.511 162.093 248.677 161.475C248.765 161.146 248.82 160.816 248.842 160.488C249.35 160.503 250.033 160.728 250.667 161.205C251.314 161.691 252.746 163.096 252.068 165.624L249.537 175.071C249.058 176.858 248.071 178.535 247.026 180.311C246.141 181.814 245.233 183.36 244.626 185.021L239.46 183.637C238.842 183.472 238.206 183.839 238.04 184.457C237.875 185.075 238.242 185.711 238.86 185.877L245.088 187.545L243.587 193.144Z" fill="#C078BA"/>
<path d="M234.422 182.287C233.804 182.122 233.167 182.488 233.002 183.107C232.836 183.725 233.203 184.361 233.822 184.527C234.44 184.692 235.076 184.325 235.242 183.707C235.407 183.089 235.04 182.453 234.422 182.287Z" fill="#C078BA"/>
<path d="M243.913 140.899L253.584 143.49L250.906 145.036C250.352 145.356 250.162 146.065 250.482 146.619C250.642 146.897 250.899 147.083 251.186 147.159C251.472 147.236 251.788 147.204 252.066 147.044L257.167 144.098C257.433 143.945 257.627 143.692 257.707 143.395C257.786 143.098 257.745 142.781 257.591 142.515L254.646 137.414C254.326 136.859 253.617 136.669 253.062 136.989C252.508 137.31 252.318 138.019 252.638 138.573L254.184 141.25L244.513 138.659C243.895 138.494 243.259 138.861 243.094 139.479C242.928 140.097 243.295 140.733 243.913 140.899Z" fill="#C078BA"/>
<path d="M97.9139 175.671L95.3825 166.224C94.659 163.524 95.4991 160.955 97.6299 159.352C98.777 158.489 100.095 158.083 101.24 158.185C101.553 157.453 102.045 156.778 102.7 156.208C103.948 155.12 105.544 154.589 106.97 154.727C107.431 153.749 108.217 152.902 109.276 152.303C110.163 151.802 111.099 151.552 111.96 151.551L109.845 142.911C109.23 140.399 110.613 137.932 112.992 137.294C115.385 136.653 117.87 138.14 118.532 140.61L124.277 162.051C124.608 161.482 124.816 160.919 125.03 160.339C125.562 158.899 126.165 157.268 128.666 155.984C130.784 154.897 133.018 155.492 134.198 156.506C135.131 157.307 135.484 158.399 135.14 159.426C135.039 159.729 134.908 160.039 134.77 160.367C134.317 161.44 133.696 162.911 133.451 165.703C133.11 169.593 131.309 171.789 129.861 173.554C128.465 175.257 127.411 176.544 127.729 178.953C128.323 178.835 128.915 179.195 129.074 179.789L131.174 187.627C131.339 188.245 130.972 188.881 130.354 189.046L105.583 195.684C104.965 195.849 104.329 195.482 104.164 194.864L102.063 187.026C101.904 186.43 102.239 185.82 102.817 185.628C102.286 184.241 101.495 182.895 100.667 181.488C99.5887 179.656 98.4741 177.762 97.9139 175.671ZM106.103 193.144L128.634 187.107L127.134 181.508L120.907 183.177C120.289 183.342 119.653 182.975 119.488 182.357C119.322 181.739 119.689 181.103 120.307 180.937L125.475 179.553C124.888 175.965 126.502 173.994 128.068 172.084C129.442 170.409 130.863 168.676 131.142 165.5C131.419 162.345 132.15 160.612 132.634 159.465C132.759 159.167 132.868 158.91 132.941 158.691C132.994 158.533 132.719 158.292 132.687 158.265C132.073 157.737 130.826 157.481 129.724 158.047C128.027 158.918 127.7 159.803 127.205 161.142C126.81 162.211 126.329 163.512 125.031 164.865L125.155 165.327C125.321 165.946 124.954 166.581 124.335 166.747C123.717 166.913 123.081 166.546 122.915 165.927L116.292 141.21C115.962 139.975 114.75 139.223 113.592 139.533C112.46 139.837 111.79 141.105 112.097 142.36L115.743 157.254C115.893 157.868 115.525 158.487 114.918 158.65C114.909 158.652 114.901 158.654 114.893 158.656C114.271 158.808 113.643 158.428 113.491 157.806L112.552 153.968C112.11 153.771 111.253 153.848 110.418 154.321C109.932 154.596 108.388 155.646 108.918 157.624C109.084 158.243 108.717 158.878 108.098 159.044C107.48 159.21 106.844 158.843 106.678 158.224C106.571 157.823 106.511 157.422 106.498 157.027C105.757 157.038 104.887 157.376 104.223 157.955C103.692 158.418 102.861 159.412 103.253 160.875C103.418 161.493 103.051 162.129 102.433 162.295C101.815 162.46 101.179 162.093 101.013 161.475C100.925 161.146 100.87 160.816 100.848 160.488C100.34 160.503 99.6576 160.728 99.0235 161.205C98.3764 161.691 96.9446 163.096 97.6219 165.624L100.153 175.071C100.632 176.858 101.619 178.535 102.664 180.311C103.549 181.814 104.457 183.36 105.065 185.021L110.23 183.637C110.848 183.472 111.484 183.839 111.65 184.457C111.815 185.075 111.448 185.711 110.83 185.877L104.603 187.545L106.103 193.144Z" fill="#C078BA"/>
<path d="M115.268 182.287C115.887 182.122 116.523 182.488 116.688 183.107C116.854 183.725 116.487 184.361 115.868 184.527C115.25 184.692 114.614 184.325 114.449 183.707C114.283 183.089 114.65 182.453 115.268 182.287Z" fill="#C078BA"/>
<path d="M105.777 140.899L96.1064 143.49L98.7839 145.036C99.3383 145.356 99.5282 146.065 99.2082 146.619C99.0481 146.897 98.7908 147.083 98.5043 147.159C98.2178 147.236 97.902 147.204 97.6247 147.044L92.5234 144.098C92.2572 143.945 92.0629 143.692 91.9833 143.395C91.9038 143.098 91.9455 142.781 92.0992 142.515L95.0444 137.414C95.3646 136.859 96.0733 136.669 96.628 136.989C97.1824 137.31 97.3724 138.019 97.0523 138.573L95.5064 141.25L105.177 138.659C105.795 138.494 106.431 138.861 106.597 139.479C106.762 140.097 106.395 140.733 105.777 140.899Z" fill="#C078BA"/>
<path d="M77.4763 227.084C76.9163 227.084 76.4123 226.988 75.9643 226.796C75.5163 226.596 75.1643 226.316 74.9083 225.956C74.6523 225.596 74.5243 225.176 74.5243 224.696H75.9883C76.0203 225.056 76.1603 225.352 76.4083 225.584C76.6643 225.816 77.0203 225.932 77.4763 225.932C77.9483 225.932 78.3163 225.82 78.5803 225.596C78.8443 225.364 78.9763 225.068 78.9763 224.708C78.9763 224.428 78.8923 224.2 78.7243 224.024C78.5643 223.848 78.3603 223.712 78.1123 223.616C77.8723 223.52 77.5363 223.416 77.1043 223.304C76.5603 223.16 76.1163 223.016 75.7723 222.872C75.4363 222.72 75.1483 222.488 74.9083 222.176C74.6683 221.864 74.5483 221.448 74.5483 220.928C74.5483 220.448 74.6683 220.028 74.9083 219.668C75.1483 219.308 75.4843 219.032 75.9163 218.84C76.3483 218.648 76.8483 218.552 77.4163 218.552C78.2243 218.552 78.8843 218.756 79.3963 219.164C79.9163 219.564 80.2043 220.116 80.2603 220.82H78.7483C78.7243 220.516 78.5803 220.256 78.3163 220.04C78.0523 219.824 77.7043 219.716 77.2723 219.716C76.8803 219.716 76.5603 219.816 76.3123 220.016C76.0643 220.216 75.9403 220.504 75.9403 220.88C75.9403 221.136 76.0163 221.348 76.1683 221.516C76.3283 221.676 76.5283 221.804 76.7683 221.9C77.0083 221.996 77.3363 222.1 77.7523 222.212C78.3043 222.364 78.7523 222.516 79.0963 222.668C79.4483 222.82 79.7443 223.056 79.9843 223.376C80.2323 223.688 80.3563 224.108 80.3563 224.636C80.3563 225.06 80.2403 225.46 80.0083 225.836C79.7843 226.212 79.4523 226.516 79.0123 226.748C78.5803 226.972 78.0683 227.084 77.4763 227.084Z" fill="#A1A1A1"/>
<path d="M90.8505 220.388L88.7985 227H87.3585L86.0265 222.116L84.6945 227H83.2545L81.1905 220.388H82.5825L83.9625 225.704L85.3665 220.388H86.7945L88.1385 225.68L89.5065 220.388H90.8505Z" fill="#A1A1A1"/>
<path d="M92.5688 219.512C92.3208 219.512 92.1128 219.428 91.9448 219.26C91.7768 219.092 91.6928 218.884 91.6928 218.636C91.6928 218.388 91.7768 218.18 91.9448 218.012C92.1128 217.844 92.3208 217.76 92.5688 217.76C92.8088 217.76 93.0128 217.844 93.1808 218.012C93.3488 218.18 93.4328 218.388 93.4328 218.636C93.4328 218.884 93.3488 219.092 93.1808 219.26C93.0128 219.428 92.8088 219.512 92.5688 219.512ZM93.2408 220.388V227H91.8728V220.388H93.2408Z" fill="#A1A1A1"/>
<path d="M96.4049 221.36C96.6369 221.056 96.9529 220.8 97.3529 220.592C97.7529 220.384 98.2049 220.28 98.7089 220.28C99.2849 220.28 99.8089 220.424 100.281 220.712C100.761 220.992 101.137 221.388 101.409 221.9C101.681 222.412 101.817 223 101.817 223.664C101.817 224.328 101.681 224.924 101.409 225.452C101.137 225.972 100.761 226.38 100.281 226.676C99.8089 226.964 99.2849 227.108 98.7089 227.108C98.2049 227.108 97.7569 227.008 97.3649 226.808C96.9729 226.6 96.6529 226.344 96.4049 226.04V230.144H95.0369V220.388H96.4049V221.36ZM100.425 223.664C100.425 223.208 100.329 222.816 100.137 222.488C99.9529 222.152 99.7049 221.9 99.3929 221.732C99.0889 221.556 98.7609 221.468 98.4089 221.468C98.0649 221.468 97.7369 221.556 97.4249 221.732C97.1209 221.908 96.8729 222.164 96.6809 222.5C96.4969 222.836 96.4049 223.232 96.4049 223.688C96.4049 224.144 96.4969 224.544 96.6809 224.888C96.8729 225.224 97.1209 225.48 97.4249 225.656C97.7369 225.832 98.0649 225.92 98.4089 225.92C98.7609 225.92 99.0889 225.832 99.3929 225.656C99.7049 225.472 99.9529 225.208 100.137 224.864C100.329 224.52 100.425 224.12 100.425 223.664Z" fill="#A1A1A1"/>
<path d="M109.23 223.532C109.23 223.78 109.214 224.004 109.182 224.204H104.13C104.17 224.732 104.366 225.156 104.718 225.476C105.07 225.796 105.502 225.956 106.014 225.956C106.75 225.956 107.27 225.648 107.574 225.032H109.05C108.85 225.64 108.486 226.14 107.958 226.532C107.438 226.916 106.79 227.108 106.014 227.108C105.382 227.108 104.814 226.968 104.31 226.688C103.814 226.4 103.422 226 103.134 225.488C102.854 224.968 102.714 224.368 102.714 223.688C102.714 223.008 102.85 222.412 103.122 221.9C103.402 221.38 103.79 220.98 104.286 220.7C104.79 220.42 105.366 220.28 106.014 220.28C106.638 220.28 107.194 220.416 107.682 220.688C108.17 220.96 108.55 221.344 108.822 221.84C109.094 222.328 109.23 222.892 109.23 223.532ZM107.802 223.1C107.794 222.596 107.614 222.192 107.262 221.888C106.91 221.584 106.474 221.432 105.954 221.432C105.482 221.432 105.078 221.584 104.742 221.888C104.406 222.184 104.206 222.588 104.142 223.1H107.802Z" fill="#A1A1A1"/>
<path d="M115.061 218.12V227H113.693V218.12H115.061Z" fill="#A1A1A1"/>
<path d="M122.917 223.532C122.917 223.78 122.901 224.004 122.869 224.204H117.817C117.857 224.732 118.053 225.156 118.405 225.476C118.757 225.796 119.189 225.956 119.701 225.956C120.437 225.956 120.957 225.648 121.261 225.032H122.737C122.537 225.64 122.173 226.14 121.645 226.532C121.125 226.916 120.477 227.108 119.701 227.108C119.069 227.108 118.501 226.968 117.997 226.688C117.501 226.4 117.109 226 116.821 225.488C116.541 224.968 116.401 224.368 116.401 223.688C116.401 223.008 116.537 222.412 116.809 221.9C117.089 221.38 117.477 220.98 117.973 220.7C118.477 220.42 119.053 220.28 119.701 220.28C120.325 220.28 120.881 220.416 121.369 220.688C121.857 220.96 122.237 221.344 122.509 221.84C122.781 222.328 122.917 222.892 122.917 223.532ZM121.489 223.1C121.481 222.596 121.301 222.192 120.949 221.888C120.597 221.584 120.161 221.432 119.641 221.432C119.169 221.432 118.765 221.584 118.429 221.888C118.093 222.184 117.893 222.588 117.829 223.1H121.489Z" fill="#A1A1A1"/>
<path d="M127.035 221.504H125.811V227H124.431V221.504H123.651V220.388H124.431V219.92C124.431 219.16 124.631 218.608 125.031 218.264C125.439 217.912 126.075 217.736 126.939 217.736V218.876C126.523 218.876 126.231 218.956 126.063 219.116C125.895 219.268 125.811 219.536 125.811 219.92V220.388H127.035V221.504Z" fill="#A1A1A1"/>
<path d="M129.844 221.504V225.164C129.844 225.412 129.9 225.592 130.012 225.704C130.132 225.808 130.332 225.86 130.612 225.86H131.452V227H130.372C129.756 227 129.284 226.856 128.956 226.568C128.628 226.28 128.464 225.812 128.464 225.164V221.504H127.684V220.388H128.464V218.744H129.844V220.388H131.452V221.504H129.844Z" fill="#A1A1A1"/>
<path d="M138.602 221.504H137.378V227H135.998V221.504H135.218V220.388H135.998V219.92C135.998 219.16 136.198 218.608 136.598 218.264C137.006 217.912 137.642 217.736 138.506 217.736V218.876C138.09 218.876 137.798 218.956 137.63 219.116C137.462 219.268 137.378 219.536 137.378 219.92V220.388H138.602V221.504Z" fill="#A1A1A1"/>
<path d="M142.682 227.108C142.058 227.108 141.494 226.968 140.99 226.688C140.486 226.4 140.09 226 139.802 225.488C139.514 224.968 139.37 224.368 139.37 223.688C139.37 223.016 139.518 222.42 139.814 221.9C140.11 221.38 140.514 220.98 141.026 220.7C141.538 220.42 142.11 220.28 142.742 220.28C143.374 220.28 143.946 220.42 144.458 220.7C144.97 220.98 145.374 221.38 145.67 221.9C145.966 222.42 146.114 223.016 146.114 223.688C146.114 224.36 145.962 224.956 145.658 225.476C145.354 225.996 144.938 226.4 144.41 226.688C143.89 226.968 143.314 227.108 142.682 227.108ZM142.682 225.92C143.034 225.92 143.362 225.836 143.666 225.668C143.978 225.5 144.23 225.248 144.422 224.912C144.614 224.576 144.71 224.168 144.71 223.688C144.71 223.208 144.618 222.804 144.434 222.476C144.25 222.14 144.006 221.888 143.702 221.72C143.398 221.552 143.07 221.468 142.718 221.468C142.366 221.468 142.038 221.552 141.734 221.72C141.438 221.888 141.202 222.14 141.026 222.476C140.85 222.804 140.762 223.208 140.762 223.688C140.762 224.4 140.942 224.952 141.302 225.344C141.67 225.728 142.13 225.92 142.682 225.92Z" fill="#A1A1A1"/>
<path d="M148.835 221.348C149.035 221.012 149.299 220.752 149.627 220.568C149.963 220.376 150.359 220.28 150.815 220.28V221.696H150.467C149.931 221.696 149.523 221.832 149.243 222.104C148.971 222.376 148.835 222.848 148.835 223.52V227H147.467V220.388H148.835V221.348Z" fill="#A1A1A1"/>
<path d="M73.9882 238.232C74.7722 238.232 75.3962 238.488 75.8602 239C76.3322 239.504 76.5682 240.2 76.5682 241.088V245H74.5282V241.364C74.5282 240.916 74.4122 240.568 74.1802 240.32C73.9482 240.072 73.6362 239.948 73.2442 239.948C72.8522 239.948 72.5402 240.072 72.3082 240.32C72.0762 240.568 71.9602 240.916 71.9602 241.364V245H69.9082V238.304H71.9602V239.192C72.1682 238.896 72.4482 238.664 72.8002 238.496C73.1522 238.32 73.5482 238.232 73.9882 238.232Z" fill="#A1A1A1"/>
<path d="M81.0421 245.096C80.3861 245.096 79.7941 244.956 79.2661 244.676C78.7461 244.396 78.3341 243.996 78.0301 243.476C77.7341 242.956 77.5861 242.348 77.5861 241.652C77.5861 240.964 77.7381 240.36 78.0421 239.84C78.3461 239.312 78.7621 238.908 79.2901 238.628C79.8181 238.348 80.4101 238.208 81.0661 238.208C81.7221 238.208 82.3141 238.348 82.8421 238.628C83.3701 238.908 83.7861 239.312 84.0901 239.84C84.3941 240.36 84.5461 240.964 84.5461 241.652C84.5461 242.34 84.3901 242.948 84.0781 243.476C83.7741 243.996 83.3541 244.396 82.8181 244.676C82.2901 244.956 81.6981 245.096 81.0421 245.096ZM81.0421 243.32C81.4341 243.32 81.7661 243.176 82.0381 242.888C82.3181 242.6 82.4581 242.188 82.4581 241.652C82.4581 241.116 82.3221 240.704 82.0501 240.416C81.7861 240.128 81.4581 239.984 81.0661 239.984C80.6661 239.984 80.3341 240.128 80.0701 240.416C79.8061 240.696 79.6741 241.108 79.6741 241.652C79.6741 242.188 79.8021 242.6 80.0581 242.888C80.3221 243.176 80.6501 243.32 81.0421 243.32Z" fill="#A1A1A1"/>
<path d="M89.3668 243.26V245H88.3228C87.5788 245 86.9988 244.82 86.5828 244.46C86.1668 244.092 85.9588 243.496 85.9588 242.672V240.008H85.1428V238.304H85.9588V236.672H88.0108V238.304H89.3548V240.008H88.0108V242.696C88.0108 242.896 88.0588 243.04 88.1548 243.128C88.2508 243.216 88.4108 243.26 88.6348 243.26H89.3668Z" fill="#A1A1A1"/>
<path d="M94.0847 237.608C93.7247 237.608 93.4287 237.504 93.1967 237.296C92.9727 237.08 92.8607 236.816 92.8607 236.504C92.8607 236.184 92.9727 235.92 93.1967 235.712C93.4287 235.496 93.7247 235.388 94.0847 235.388C94.4367 235.388 94.7247 235.496 94.9487 235.712C95.1807 235.92 95.2967 236.184 95.2967 236.504C95.2967 236.816 95.1807 237.08 94.9487 237.296C94.7247 237.504 94.4367 237.608 94.0847 237.608ZM95.1047 238.304V245H93.0527V238.304H95.1047Z" fill="#A1A1A1"/>
<path d="M100.672 238.232C101.456 238.232 102.08 238.488 102.544 239C103.016 239.504 103.252 240.2 103.252 241.088V245H101.212V241.364C101.212 240.916 101.096 240.568 100.864 240.32C100.632 240.072 100.32 239.948 99.9278 239.948C99.5358 239.948 99.2238 240.072 98.9918 240.32C98.7598 240.568 98.6438 240.916 98.6438 241.364V245H96.5918V238.304H98.6438V239.192C98.8518 238.896 99.1318 238.664 99.4838 238.496C99.8358 238.32 100.232 238.232 100.672 238.232Z" fill="#A1A1A1"/>
<path d="M108.41 243.26V245H107.366C106.622 245 106.042 244.82 105.626 244.46C105.21 244.092 105.002 243.496 105.002 242.672V240.008H104.186V238.304H105.002V236.672H107.054V238.304H108.398V240.008H107.054V242.696C107.054 242.896 107.102 243.04 107.198 243.128C107.294 243.216 107.454 243.26 107.678 243.26H108.41Z" fill="#A1A1A1"/>
<path d="M115.865 241.544C115.865 241.736 115.853 241.936 115.829 242.144H111.185C111.217 242.56 111.349 242.88 111.581 243.104C111.821 243.32 112.113 243.428 112.457 243.428C112.969 243.428 113.325 243.212 113.525 242.78H115.709C115.597 243.22 115.393 243.616 115.097 243.968C114.809 244.32 114.445 244.596 114.005 244.796C113.565 244.996 113.073 245.096 112.529 245.096C111.873 245.096 111.289 244.956 110.777 244.676C110.265 244.396 109.865 243.996 109.577 243.476C109.289 242.956 109.145 242.348 109.145 241.652C109.145 240.956 109.285 240.348 109.565 239.828C109.853 239.308 110.253 238.908 110.765 238.628C111.277 238.348 111.865 238.208 112.529 238.208C113.177 238.208 113.753 238.344 114.257 238.616C114.761 238.888 115.153 239.276 115.433 239.78C115.721 240.284 115.865 240.872 115.865 241.544ZM113.765 241.004C113.765 240.652 113.645 240.372 113.405 240.164C113.165 239.956 112.865 239.852 112.505 239.852C112.161 239.852 111.869 239.952 111.629 240.152C111.397 240.352 111.253 240.636 111.197 241.004H113.765Z" fill="#A1A1A1"/>
<path d="M118.999 239.42C119.239 239.052 119.539 238.764 119.899 238.556C120.259 238.34 120.659 238.232 121.099 238.232V240.404H120.535C120.023 240.404 119.639 240.516 119.383 240.74C119.127 240.956 118.999 241.34 118.999 241.892V245H116.947V238.304H118.999V239.42Z" fill="#A1A1A1"/>
<path d="M128.392 241.544C128.392 241.736 128.38 241.936 128.356 242.144H123.712C123.744 242.56 123.876 242.88 124.108 243.104C124.348 243.32 124.64 243.428 124.984 243.428C125.496 243.428 125.852 243.212 126.052 242.78H128.236C128.124 243.22 127.92 243.616 127.624 243.968C127.336 244.32 126.972 244.596 126.532 244.796C126.092 244.996 125.6 245.096 125.056 245.096C124.4 245.096 123.816 244.956 123.304 244.676C122.792 244.396 122.392 243.996 122.104 243.476C121.816 242.956 121.672 242.348 121.672 241.652C121.672 240.956 121.812 240.348 122.092 239.828C122.38 239.308 122.78 238.908 123.292 238.628C123.804 238.348 124.392 238.208 125.056 238.208C125.704 238.208 126.28 238.344 126.784 238.616C127.288 238.888 127.68 239.276 127.96 239.78C128.248 240.284 128.392 240.872 128.392 241.544ZM126.292 241.004C126.292 240.652 126.172 240.372 125.932 240.164C125.692 239.956 125.392 239.852 125.032 239.852C124.688 239.852 124.396 239.952 124.156 240.152C123.924 240.352 123.78 240.636 123.724 241.004H126.292Z" fill="#A1A1A1"/>
<path d="M132.199 245.096C131.615 245.096 131.095 244.996 130.639 244.796C130.183 244.596 129.823 244.324 129.559 243.98C129.295 243.628 129.147 243.236 129.115 242.804H131.143C131.167 243.036 131.275 243.224 131.467 243.368C131.659 243.512 131.895 243.584 132.175 243.584C132.431 243.584 132.627 243.536 132.763 243.44C132.907 243.336 132.979 243.204 132.979 243.044C132.979 242.852 132.879 242.712 132.679 242.624C132.479 242.528 132.155 242.424 131.707 242.312C131.227 242.2 130.827 242.084 130.507 241.964C130.187 241.836 129.911 241.64 129.679 241.376C129.447 241.104 129.331 240.74 129.331 240.284C129.331 239.9 129.435 239.552 129.643 239.24C129.859 238.92 130.171 238.668 130.579 238.484C130.995 238.3 131.487 238.208 132.055 238.208C132.895 238.208 133.555 238.416 134.035 238.832C134.523 239.248 134.803 239.8 134.875 240.488H132.979C132.947 240.256 132.843 240.072 132.667 239.936C132.499 239.8 132.275 239.732 131.995 239.732C131.755 239.732 131.571 239.78 131.443 239.876C131.315 239.964 131.251 240.088 131.251 240.248C131.251 240.44 131.351 240.584 131.551 240.68C131.759 240.776 132.079 240.872 132.511 240.968C133.007 241.096 133.411 241.224 133.723 241.352C134.035 241.472 134.307 241.672 134.539 241.952C134.779 242.224 134.903 242.592 134.911 243.056C134.911 243.448 134.799 243.8 134.575 244.112C134.359 244.416 134.043 244.656 133.627 244.832C133.219 245.008 132.743 245.096 132.199 245.096Z" fill="#A1A1A1"/>
<path d="M139.898 243.26V245H138.854C138.11 245 137.53 244.82 137.114 244.46C136.698 244.092 136.49 243.496 136.49 242.672V240.008H135.674V238.304H136.49V236.672H138.542V238.304H139.886V240.008H138.542V242.696C138.542 242.896 138.59 243.04 138.686 243.128C138.782 243.216 138.942 243.26 139.166 243.26H139.898Z" fill="#A1A1A1"/>
<path d="M147.353 241.544C147.353 241.736 147.341 241.936 147.317 242.144H142.673C142.705 242.56 142.837 242.88 143.069 243.104C143.309 243.32 143.601 243.428 143.945 243.428C144.457 243.428 144.813 243.212 145.013 242.78H147.197C147.085 243.22 146.881 243.616 146.585 243.968C146.297 244.32 145.933 244.596 145.493 244.796C145.053 244.996 144.561 245.096 144.017 245.096C143.361 245.096 142.777 244.956 142.265 244.676C141.753 244.396 141.353 243.996 141.065 243.476C140.777 242.956 140.633 242.348 140.633 241.652C140.633 240.956 140.773 240.348 141.053 239.828C141.341 239.308 141.741 238.908 142.253 238.628C142.765 238.348 143.353 238.208 144.017 238.208C144.665 238.208 145.241 238.344 145.745 238.616C146.249 238.888 146.641 239.276 146.921 239.78C147.209 240.284 147.353 240.872 147.353 241.544ZM145.253 241.004C145.253 240.652 145.133 240.372 144.893 240.164C144.653 239.956 144.353 239.852 143.993 239.852C143.649 239.852 143.357 239.952 143.117 240.152C142.885 240.352 142.741 240.636 142.685 241.004H145.253Z" fill="#A1A1A1"/>
<path d="M148.028 241.64C148.028 240.952 148.156 240.348 148.412 239.828C148.676 239.308 149.032 238.908 149.48 238.628C149.928 238.348 150.428 238.208 150.98 238.208C151.42 238.208 151.82 238.3 152.18 238.484C152.548 238.668 152.836 238.916 153.044 239.228V236.12H155.096V245H153.044V244.04C152.852 244.36 152.576 244.616 152.216 244.808C151.864 245 151.452 245.096 150.98 245.096C150.428 245.096 149.928 244.956 149.48 244.676C149.032 244.388 148.676 243.984 148.412 243.464C148.156 242.936 148.028 242.328 148.028 241.64ZM153.044 241.652C153.044 241.14 152.9 240.736 152.612 240.44C152.332 240.144 151.988 239.996 151.58 239.996C151.172 239.996 150.824 240.144 150.536 240.44C150.256 240.728 150.116 241.128 150.116 241.64C150.116 242.152 150.256 242.56 150.536 242.864C150.824 243.16 151.172 243.308 151.58 243.308C151.988 243.308 152.332 243.16 152.612 242.864C152.9 242.568 153.044 242.164 153.044 241.652Z" fill="#A1A1A1"/>
<path d="M136.919 421.084C136.143 421.084 135.427 420.904 134.771 420.544C134.123 420.176 133.607 419.668 133.223 419.02C132.847 418.364 132.659 417.628 132.659 416.812C132.659 415.996 132.847 415.264 133.223 414.616C133.607 413.968 134.123 413.464 134.771 413.104C135.427 412.736 136.143 412.552 136.919 412.552C137.703 412.552 138.419 412.736 139.067 413.104C139.723 413.464 140.239 413.968 140.615 414.616C140.991 415.264 141.179 415.996 141.179 416.812C141.179 417.628 140.991 418.364 140.615 419.02C140.239 419.668 139.723 420.176 139.067 420.544C138.419 420.904 137.703 421.084 136.919 421.084ZM136.919 419.896C137.471 419.896 137.963 419.772 138.395 419.524C138.827 419.268 139.163 418.908 139.403 418.444C139.651 417.972 139.775 417.428 139.775 416.812C139.775 416.196 139.651 415.656 139.403 415.192C139.163 414.728 138.827 414.372 138.395 414.124C137.963 413.876 137.471 413.752 136.919 413.752C136.367 413.752 135.875 413.876 135.443 414.124C135.011 414.372 134.671 414.728 134.423 415.192C134.183 415.656 134.063 416.196 134.063 416.812C134.063 417.428 134.183 417.972 134.423 418.444C134.671 418.908 135.011 419.268 135.443 419.524C135.875 419.772 136.367 419.896 136.919 419.896Z" fill="#A1A1A1"/>
<path d="M143.893 415.348C144.093 415.012 144.357 414.752 144.685 414.568C145.021 414.376 145.417 414.28 145.873 414.28V415.696H145.525C144.989 415.696 144.581 415.832 144.301 416.104C144.029 416.376 143.893 416.848 143.893 417.52V421H142.525V414.388H143.893V415.348Z" fill="#A1A1A1"/>
<path d="M156.236 414.388V421H154.868V420.22C154.652 420.492 154.368 420.708 154.016 420.868C153.672 421.02 153.304 421.096 152.912 421.096C152.392 421.096 151.924 420.988 151.508 420.772C151.1 420.556 150.776 420.236 150.536 419.812C150.304 419.388 150.188 418.876 150.188 418.276V414.388H151.544V418.072C151.544 418.664 151.692 419.12 151.988 419.44C152.284 419.752 152.688 419.908 153.2 419.908C153.712 419.908 154.116 419.752 154.412 419.44C154.716 419.12 154.868 418.664 154.868 418.072V414.388H156.236Z" fill="#A1A1A1"/>
<path d="M160.44 421.108C159.92 421.108 159.452 421.016 159.036 420.832C158.628 420.64 158.304 420.384 158.064 420.064C157.824 419.736 157.696 419.372 157.68 418.972H159.096C159.12 419.252 159.252 419.488 159.492 419.68C159.74 419.864 160.048 419.956 160.416 419.956C160.8 419.956 161.096 419.884 161.304 419.74C161.52 419.588 161.628 419.396 161.628 419.164C161.628 418.916 161.508 418.732 161.268 418.612C161.036 418.492 160.664 418.36 160.152 418.216C159.656 418.08 159.252 417.948 158.94 417.82C158.628 417.692 158.356 417.496 158.124 417.232C157.9 416.968 157.788 416.62 157.788 416.188C157.788 415.836 157.892 415.516 158.1 415.228C158.308 414.932 158.604 414.7 158.988 414.532C159.38 414.364 159.828 414.28 160.332 414.28C161.084 414.28 161.688 414.472 162.144 414.856C162.608 415.232 162.856 415.748 162.888 416.404H161.52C161.496 416.108 161.376 415.872 161.16 415.696C160.944 415.52 160.652 415.432 160.284 415.432C159.924 415.432 159.648 415.5 159.456 415.636C159.264 415.772 159.168 415.952 159.168 416.176C159.168 416.352 159.232 416.5 159.36 416.62C159.488 416.74 159.644 416.836 159.828 416.908C160.012 416.972 160.284 417.056 160.644 417.16C161.124 417.288 161.516 417.42 161.82 417.556C162.132 417.684 162.4 417.876 162.624 418.132C162.848 418.388 162.964 418.728 162.972 419.152C162.972 419.528 162.868 419.864 162.66 420.16C162.452 420.456 162.156 420.688 161.772 420.856C161.396 421.024 160.952 421.108 160.44 421.108Z" fill="#A1A1A1"/>
<path d="M170.511 417.532C170.511 417.78 170.495 418.004 170.463 418.204H165.411C165.451 418.732 165.647 419.156 165.999 419.476C166.351 419.796 166.783 419.956 167.295 419.956C168.031 419.956 168.551 419.648 168.855 419.032H170.331C170.131 419.64 169.767 420.14 169.239 420.532C168.719 420.916 168.071 421.108 167.295 421.108C166.663 421.108 166.095 420.968 165.591 420.688C165.095 420.4 164.703 420 164.415 419.488C164.135 418.968 163.995 418.368 163.995 417.688C163.995 417.008 164.131 416.412 164.403 415.9C164.683 415.38 165.071 414.98 165.567 414.7C166.071 414.42 166.647 414.28 167.295 414.28C167.919 414.28 168.475 414.416 168.963 414.688C169.451 414.96 169.831 415.344 170.103 415.84C170.375 416.328 170.511 416.892 170.511 417.532ZM169.083 417.1C169.075 416.596 168.895 416.192 168.543 415.888C168.191 415.584 167.755 415.432 167.235 415.432C166.763 415.432 166.359 415.584 166.023 415.888C165.687 416.184 165.487 416.588 165.423 417.1H169.083Z" fill="#A1A1A1"/>
<path d="M176.342 415.372C176.574 415.052 176.89 414.792 177.29 414.592C177.698 414.384 178.15 414.28 178.646 414.28C179.23 414.28 179.758 414.42 180.23 414.7C180.702 414.98 181.074 415.38 181.346 415.9C181.618 416.412 181.754 417 181.754 417.664C181.754 418.328 181.618 418.924 181.346 419.452C181.074 419.972 180.698 420.38 180.218 420.676C179.746 420.964 179.222 421.108 178.646 421.108C178.134 421.108 177.678 421.008 177.278 420.808C176.886 420.608 176.574 420.352 176.342 420.04V421H174.974V412.12H176.342V415.372ZM180.362 417.664C180.362 417.208 180.266 416.816 180.074 416.488C179.89 416.152 179.642 415.9 179.33 415.732C179.026 415.556 178.698 415.468 178.346 415.468C178.002 415.468 177.674 415.556 177.362 415.732C177.058 415.908 176.81 416.164 176.618 416.5C176.434 416.836 176.342 417.232 176.342 417.688C176.342 418.144 176.434 418.544 176.618 418.888C176.81 419.224 177.058 419.48 177.362 419.656C177.674 419.832 178.002 419.92 178.346 419.92C178.698 419.92 179.026 419.832 179.33 419.656C179.642 419.472 179.89 419.208 180.074 418.864C180.266 418.52 180.362 418.12 180.362 417.664Z" fill="#A1A1A1"/>
<path d="M189.095 414.388V421H187.727V420.22C187.511 420.492 187.227 420.708 186.875 420.868C186.531 421.02 186.163 421.096 185.771 421.096C185.251 421.096 184.783 420.988 184.367 420.772C183.959 420.556 183.635 420.236 183.395 419.812C183.163 419.388 183.047 418.876 183.047 418.276V414.388H184.403V418.072C184.403 418.664 184.551 419.12 184.847 419.44C185.143 419.752 185.547 419.908 186.059 419.908C186.571 419.908 186.975 419.752 187.271 419.44C187.575 419.12 187.727 418.664 187.727 418.072V414.388H189.095Z" fill="#A1A1A1"/>
<path d="M192.496 415.504V419.164C192.496 419.412 192.552 419.592 192.664 419.704C192.784 419.808 192.984 419.86 193.264 419.86H194.104V421H193.024C192.408 421 191.936 420.856 191.608 420.568C191.28 420.28 191.116 419.812 191.116 419.164V415.504H190.336V414.388H191.116V412.744H192.496V414.388H194.104V415.504H192.496Z" fill="#A1A1A1"/>
<path d="M196.961 415.504V419.164C196.961 419.412 197.017 419.592 197.129 419.704C197.249 419.808 197.449 419.86 197.729 419.86H198.569V421H197.489C196.873 421 196.401 420.856 196.073 420.568C195.745 420.28 195.581 419.812 195.581 419.164V415.504H194.801V414.388H195.581V412.744H196.961V414.388H198.569V415.504H196.961Z" fill="#A1A1A1"/>
<path d="M202.698 421.108C202.074 421.108 201.51 420.968 201.006 420.688C200.502 420.4 200.106 420 199.818 419.488C199.53 418.968 199.386 418.368 199.386 417.688C199.386 417.016 199.534 416.42 199.83 415.9C200.126 415.38 200.53 414.98 201.042 414.7C201.554 414.42 202.126 414.28 202.758 414.28C203.39 414.28 203.962 414.42 204.474 414.7C204.986 414.98 205.39 415.38 205.686 415.9C205.982 416.42 206.13 417.016 206.13 417.688C206.13 418.36 205.978 418.956 205.674 419.476C205.37 419.996 204.954 420.4 204.426 420.688C203.906 420.968 203.33 421.108 202.698 421.108ZM202.698 419.92C203.05 419.92 203.378 419.836 203.682 419.668C203.994 419.5 204.246 419.248 204.438 418.912C204.63 418.576 204.726 418.168 204.726 417.688C204.726 417.208 204.634 416.804 204.45 416.476C204.266 416.14 204.022 415.888 203.718 415.72C203.414 415.552 203.086 415.468 202.734 415.468C202.382 415.468 202.054 415.552 201.75 415.72C201.454 415.888 201.218 416.14 201.042 416.476C200.866 416.804 200.778 417.208 200.778 417.688C200.778 418.4 200.958 418.952 201.318 419.344C201.686 419.728 202.146 419.92 202.698 419.92Z" fill="#A1A1A1"/>
<path d="M210.818 414.28C211.338 414.28 211.802 414.388 212.21 414.604C212.626 414.82 212.95 415.14 213.182 415.564C213.414 415.988 213.53 416.5 213.53 417.1V421H212.174V417.304C212.174 416.712 212.026 416.26 211.73 415.948C211.434 415.628 211.03 415.468 210.518 415.468C210.006 415.468 209.598 415.628 209.294 415.948C208.998 416.26 208.85 416.712 208.85 417.304V421H207.482V414.388H208.85V415.144C209.074 414.872 209.358 414.66 209.702 414.508C210.054 414.356 210.426 414.28 210.818 414.28Z" fill="#A1A1A1"/>
<path d="M217.675 421.108C217.155 421.108 216.687 421.016 216.271 420.832C215.863 420.64 215.539 420.384 215.299 420.064C215.059 419.736 214.931 419.372 214.915 418.972H216.331C216.355 419.252 216.487 419.488 216.727 419.68C216.975 419.864 217.283 419.956 217.651 419.956C218.035 419.956 218.331 419.884 218.539 419.74C218.755 419.588 218.863 419.396 218.863 419.164C218.863 418.916 218.743 418.732 218.503 418.612C218.271 418.492 217.899 418.36 217.387 418.216C216.891 418.08 216.487 417.948 216.175 417.82C215.863 417.692 215.591 417.496 215.359 417.232C215.135 416.968 215.023 416.62 215.023 416.188C215.023 415.836 215.127 415.516 215.335 415.228C215.543 414.932 215.839 414.7 216.223 414.532C216.615 414.364 217.063 414.28 217.567 414.28C218.319 414.28 218.923 414.472 219.379 414.856C219.843 415.232 220.091 415.748 220.123 416.404H218.755C218.731 416.108 218.611 415.872 218.395 415.696C218.179 415.52 217.887 415.432 217.519 415.432C217.159 415.432 216.883 415.5 216.691 415.636C216.499 415.772 216.403 415.952 216.403 416.176C216.403 416.352 216.467 416.5 216.595 416.62C216.723 416.74 216.879 416.836 217.063 416.908C217.247 416.972 217.519 417.056 217.879 417.16C218.359 417.288 218.751 417.42 219.055 417.556C219.367 417.684 219.635 417.876 219.859 418.132C220.083 418.388 220.199 418.728 220.207 419.152C220.207 419.528 220.103 419.864 219.895 420.16C219.687 420.456 219.391 420.688 219.007 420.856C218.631 421.024 218.187 421.108 217.675 421.108Z" fill="#A1A1A1"/>
<path d="M196.906 227.084C196.346 227.084 195.842 226.988 195.394 226.796C194.946 226.596 194.594 226.316 194.338 225.956C194.082 225.596 193.954 225.176 193.954 224.696H195.418C195.45 225.056 195.59 225.352 195.838 225.584C196.094 225.816 196.45 225.932 196.906 225.932C197.378 225.932 197.746 225.82 198.01 225.596C198.274 225.364 198.406 225.068 198.406 224.708C198.406 224.428 198.322 224.2 198.154 224.024C197.994 223.848 197.79 223.712 197.542 223.616C197.302 223.52 196.966 223.416 196.534 223.304C195.99 223.16 195.546 223.016 195.202 222.872C194.866 222.72 194.578 222.488 194.338 222.176C194.098 221.864 193.978 221.448 193.978 220.928C193.978 220.448 194.098 220.028 194.338 219.668C194.578 219.308 194.914 219.032 195.346 218.84C195.778 218.648 196.278 218.552 196.846 218.552C197.654 218.552 198.314 218.756 198.826 219.164C199.346 219.564 199.634 220.116 199.69 220.82H198.178C198.154 220.516 198.01 220.256 197.746 220.04C197.482 219.824 197.134 219.716 196.702 219.716C196.31 219.716 195.99 219.816 195.742 220.016C195.494 220.216 195.37 220.504 195.37 220.88C195.37 221.136 195.446 221.348 195.598 221.516C195.758 221.676 195.958 221.804 196.198 221.9C196.438 221.996 196.766 222.1 197.182 222.212C197.734 222.364 198.182 222.516 198.526 222.668C198.878 222.82 199.174 223.056 199.414 223.376C199.662 223.688 199.786 224.108 199.786 224.636C199.786 225.06 199.67 225.46 199.438 225.836C199.214 226.212 198.882 226.516 198.442 226.748C198.01 226.972 197.498 227.084 196.906 227.084Z" fill="#A1A1A1"/>
<path d="M210.28 220.388L208.228 227H206.788L205.456 222.116L204.124 227H202.684L200.62 220.388H202.012L203.392 225.704L204.796 220.388H206.224L207.568 225.68L208.936 220.388H210.28Z" fill="#A1A1A1"/>
<path d="M211.998 219.512C211.75 219.512 211.542 219.428 211.374 219.26C211.206 219.092 211.122 218.884 211.122 218.636C211.122 218.388 211.206 218.18 211.374 218.012C211.542 217.844 211.75 217.76 211.998 217.76C212.238 217.76 212.442 217.844 212.61 218.012C212.778 218.18 212.862 218.388 212.862 218.636C212.862 218.884 212.778 219.092 212.61 219.26C212.442 219.428 212.238 219.512 211.998 219.512ZM212.67 220.388V227H211.302V220.388H212.67Z" fill="#A1A1A1"/>
<path d="M215.834 221.36C216.066 221.056 216.382 220.8 216.782 220.592C217.182 220.384 217.634 220.28 218.138 220.28C218.714 220.28 219.238 220.424 219.71 220.712C220.19 220.992 220.566 221.388 220.838 221.9C221.11 222.412 221.246 223 221.246 223.664C221.246 224.328 221.11 224.924 220.838 225.452C220.566 225.972 220.19 226.38 219.71 226.676C219.238 226.964 218.714 227.108 218.138 227.108C217.634 227.108 217.186 227.008 216.794 226.808C216.402 226.6 216.082 226.344 215.834 226.04V230.144H214.466V220.388H215.834V221.36ZM219.854 223.664C219.854 223.208 219.758 222.816 219.566 222.488C219.382 222.152 219.134 221.9 218.822 221.732C218.518 221.556 218.19 221.468 217.838 221.468C217.494 221.468 217.166 221.556 216.854 221.732C216.55 221.908 216.302 222.164 216.11 222.5C215.926 222.836 215.834 223.232 215.834 223.688C215.834 224.144 215.926 224.544 216.11 224.888C216.302 225.224 216.55 225.48 216.854 225.656C217.166 225.832 217.494 225.92 217.838 225.92C218.19 225.92 218.518 225.832 218.822 225.656C219.134 225.472 219.382 225.208 219.566 224.864C219.758 224.52 219.854 224.12 219.854 223.664Z" fill="#A1A1A1"/>
<path d="M228.659 223.532C228.659 223.78 228.643 224.004 228.611 224.204H223.559C223.599 224.732 223.795 225.156 224.147 225.476C224.499 225.796 224.931 225.956 225.443 225.956C226.179 225.956 226.699 225.648 227.003 225.032H228.479C228.279 225.64 227.915 226.14 227.387 226.532C226.867 226.916 226.219 227.108 225.443 227.108C224.811 227.108 224.243 226.968 223.739 226.688C223.243 226.4 222.851 226 222.563 225.488C222.283 224.968 222.143 224.368 222.143 223.688C222.143 223.008 222.279 222.412 222.551 221.9C222.831 221.38 223.219 220.98 223.715 220.7C224.219 220.42 224.795 220.28 225.443 220.28C226.067 220.28 226.623 220.416 227.111 220.688C227.599 220.96 227.979 221.344 228.251 221.84C228.523 222.328 228.659 222.892 228.659 223.532ZM227.231 223.1C227.223 222.596 227.043 222.192 226.691 221.888C226.339 221.584 225.903 221.432 225.383 221.432C224.911 221.432 224.507 221.584 224.171 221.888C223.835 222.184 223.635 222.588 223.571 223.1H227.231Z" fill="#A1A1A1"/>
<path d="M234.49 221.348C234.69 221.012 234.954 220.752 235.282 220.568C235.618 220.376 236.014 220.28 236.47 220.28V221.696H236.122C235.586 221.696 235.178 221.832 234.898 222.104C234.626 222.376 234.49 222.848 234.49 223.52V227H233.122V220.388H234.49V221.348Z" fill="#A1A1A1"/>
<path d="M238.424 219.512C238.176 219.512 237.968 219.428 237.8 219.26C237.632 219.092 237.548 218.884 237.548 218.636C237.548 218.388 237.632 218.18 237.8 218.012C237.968 217.844 238.176 217.76 238.424 217.76C238.664 217.76 238.868 217.844 239.036 218.012C239.204 218.18 239.288 218.388 239.288 218.636C239.288 218.884 239.204 219.092 239.036 219.26C238.868 219.428 238.664 219.512 238.424 219.512ZM239.096 220.388V227H237.728V220.388H239.096Z" fill="#A1A1A1"/>
<path d="M243.556 220.28C244.068 220.28 244.52 220.384 244.912 220.592C245.312 220.792 245.624 221.044 245.848 221.348V220.388H247.228V227.108C247.228 227.716 247.1 228.256 246.844 228.728C246.588 229.208 246.216 229.584 245.728 229.856C245.248 230.128 244.672 230.264 244 230.264C243.104 230.264 242.36 230.052 241.768 229.628C241.176 229.212 240.84 228.644 240.76 227.924H242.116C242.22 228.268 242.44 228.544 242.776 228.752C243.12 228.968 243.528 229.076 244 229.076C244.552 229.076 244.996 228.908 245.332 228.572C245.676 228.236 245.848 227.748 245.848 227.108V226.004C245.616 226.316 245.3 226.58 244.9 226.796C244.508 227.004 244.06 227.108 243.556 227.108C242.98 227.108 242.452 226.964 241.972 226.676C241.5 226.38 241.124 225.972 240.844 225.452C240.572 224.924 240.436 224.328 240.436 223.664C240.436 223 240.572 222.412 240.844 221.9C241.124 221.388 241.5 220.992 241.972 220.712C242.452 220.424 242.98 220.28 243.556 220.28ZM245.848 223.688C245.848 223.232 245.752 222.836 245.56 222.5C245.376 222.164 245.132 221.908 244.828 221.732C244.524 221.556 244.196 221.468 243.844 221.468C243.492 221.468 243.164 221.556 242.86 221.732C242.556 221.9 242.308 222.152 242.116 222.488C241.932 222.816 241.84 223.208 241.84 223.664C241.84 224.12 241.932 224.52 242.116 224.864C242.308 225.208 242.556 225.472 242.86 225.656C243.172 225.832 243.5 225.92 243.844 225.92C244.196 225.92 244.524 225.832 244.828 225.656C245.132 225.48 245.376 225.224 245.56 224.888C245.752 224.544 245.848 224.144 245.848 223.688Z" fill="#A1A1A1"/>
<path d="M252.445 220.28C252.949 220.28 253.397 220.388 253.789 220.604C254.189 220.82 254.501 221.14 254.725 221.564C254.957 221.988 255.073 222.5 255.073 223.1V227H253.717V223.304C253.717 222.712 253.569 222.26 253.273 221.948C252.977 221.628 252.573 221.468 252.061 221.468C251.549 221.468 251.141 221.628 250.837 221.948C250.541 222.26 250.393 222.712 250.393 223.304V227H249.025V218.12H250.393V221.156C250.625 220.876 250.917 220.66 251.269 220.508C251.629 220.356 252.021 220.28 252.445 220.28Z" fill="#A1A1A1"/>
<path d="M258.414 221.504V225.164C258.414 225.412 258.47 225.592 258.582 225.704C258.702 225.808 258.902 225.86 259.182 225.86H260.022V227H258.942C258.326 227 257.854 226.856 257.526 226.568C257.198 226.28 257.034 225.812 257.034 225.164V221.504H256.254V220.388H257.034V218.744H258.414V220.388H260.022V221.504H258.414Z" fill="#A1A1A1"/>
<path d="M267.172 221.504H265.948V227H264.568V221.504H263.788V220.388H264.568V219.92C264.568 219.16 264.768 218.608 265.168 218.264C265.576 217.912 266.212 217.736 267.076 217.736V218.876C266.66 218.876 266.368 218.956 266.2 219.116C266.032 219.268 265.948 219.536 265.948 219.92V220.388H267.172V221.504Z" fill="#A1A1A1"/>
<path d="M271.252 227.108C270.628 227.108 270.064 226.968 269.56 226.688C269.056 226.4 268.66 226 268.372 225.488C268.084 224.968 267.94 224.368 267.94 223.688C267.94 223.016 268.088 222.42 268.384 221.9C268.68 221.38 269.084 220.98 269.596 220.7C270.108 220.42 270.68 220.28 271.312 220.28C271.944 220.28 272.516 220.42 273.028 220.7C273.54 220.98 273.944 221.38 274.24 221.9C274.536 222.42 274.684 223.016 274.684 223.688C274.684 224.36 274.532 224.956 274.228 225.476C273.924 225.996 273.508 226.4 272.98 226.688C272.46 226.968 271.884 227.108 271.252 227.108ZM271.252 225.92C271.604 225.92 271.932 225.836 272.236 225.668C272.548 225.5 272.8 225.248 272.992 224.912C273.184 224.576 273.28 224.168 273.28 223.688C273.28 223.208 273.188 222.804 273.004 222.476C272.82 222.14 272.576 221.888 272.272 221.72C271.968 221.552 271.64 221.468 271.288 221.468C270.936 221.468 270.608 221.552 270.304 221.72C270.008 221.888 269.772 222.14 269.596 222.476C269.42 222.804 269.332 223.208 269.332 223.688C269.332 224.4 269.512 224.952 269.872 225.344C270.24 225.728 270.7 225.92 271.252 225.92Z" fill="#A1A1A1"/>
<path d="M277.405 221.348C277.605 221.012 277.869 220.752 278.197 220.568C278.533 220.376 278.929 220.28 279.385 220.28V221.696H279.037C278.501 221.696 278.093 221.832 277.813 222.104C277.541 222.376 277.405 222.848 277.405 223.52V227H276.037V220.388H277.405V221.348Z" fill="#A1A1A1"/>
<path d="M206.512 237.608C206.152 237.608 205.856 237.504 205.624 237.296C205.4 237.08 205.288 236.816 205.288 236.504C205.288 236.184 205.4 235.92 205.624 235.712C205.856 235.496 206.152 235.388 206.512 235.388C206.864 235.388 207.152 235.496 207.376 235.712C207.608 235.92 207.724 236.184 207.724 236.504C207.724 236.816 207.608 237.08 207.376 237.296C207.152 237.504 206.864 237.608 206.512 237.608ZM207.532 238.304V245H205.48V238.304H207.532Z" fill="#A1A1A1"/>
<path d="M213.099 238.232C213.883 238.232 214.507 238.488 214.971 239C215.443 239.504 215.679 240.2 215.679 241.088V245H213.639V241.364C213.639 240.916 213.523 240.568 213.291 240.32C213.059 240.072 212.747 239.948 212.355 239.948C211.963 239.948 211.651 240.072 211.419 240.32C211.187 240.568 211.071 240.916 211.071 241.364V245H209.019V238.304H211.071V239.192C211.279 238.896 211.559 238.664 211.911 238.496C212.263 238.32 212.659 238.232 213.099 238.232Z" fill="#A1A1A1"/>
<path d="M220.837 243.26V245H219.793C219.049 245 218.469 244.82 218.053 244.46C217.637 244.092 217.429 243.496 217.429 242.672V240.008H216.613V238.304H217.429V236.672H219.481V238.304H220.825V240.008H219.481V242.696C219.481 242.896 219.529 243.04 219.625 243.128C219.721 243.216 219.881 243.26 220.105 243.26H220.837Z" fill="#A1A1A1"/>
<path d="M228.292 241.544C228.292 241.736 228.28 241.936 228.256 242.144H223.612C223.644 242.56 223.776 242.88 224.008 243.104C224.248 243.32 224.54 243.428 224.884 243.428C225.396 243.428 225.752 243.212 225.952 242.78H228.136C228.024 243.22 227.82 243.616 227.524 243.968C227.236 244.32 226.872 244.596 226.432 244.796C225.992 244.996 225.5 245.096 224.956 245.096C224.3 245.096 223.716 244.956 223.204 244.676C222.692 244.396 222.292 243.996 222.004 243.476C221.716 242.956 221.572 242.348 221.572 241.652C221.572 240.956 221.712 240.348 221.992 239.828C222.28 239.308 222.68 238.908 223.192 238.628C223.704 238.348 224.292 238.208 224.956 238.208C225.604 238.208 226.18 238.344 226.684 238.616C227.188 238.888 227.58 239.276 227.86 239.78C228.148 240.284 228.292 240.872 228.292 241.544ZM226.192 241.004C226.192 240.652 226.072 240.372 225.832 240.164C225.592 239.956 225.292 239.852 224.932 239.852C224.588 239.852 224.296 239.952 224.056 240.152C223.824 240.352 223.68 240.636 223.624 241.004H226.192Z" fill="#A1A1A1"/>
<path d="M231.427 239.42C231.667 239.052 231.967 238.764 232.327 238.556C232.687 238.34 233.087 238.232 233.527 238.232V240.404H232.963C232.451 240.404 232.067 240.516 231.811 240.74C231.555 240.956 231.427 241.34 231.427 241.892V245H229.375V238.304H231.427V239.42Z" fill="#A1A1A1"/>
<path d="M240.819 241.544C240.819 241.736 240.807 241.936 240.783 242.144H236.139C236.171 242.56 236.303 242.88 236.535 243.104C236.775 243.32 237.067 243.428 237.411 243.428C237.923 243.428 238.279 243.212 238.479 242.78H240.663C240.551 243.22 240.347 243.616 240.051 243.968C239.763 244.32 239.399 244.596 238.959 244.796C238.519 244.996 238.027 245.096 237.483 245.096C236.827 245.096 236.243 244.956 235.731 244.676C235.219 244.396 234.819 243.996 234.531 243.476C234.243 242.956 234.099 242.348 234.099 241.652C234.099 240.956 234.239 240.348 234.519 239.828C234.807 239.308 235.207 238.908 235.719 238.628C236.231 238.348 236.819 238.208 237.483 238.208C238.131 238.208 238.707 238.344 239.211 238.616C239.715 238.888 240.107 239.276 240.387 239.78C240.675 240.284 240.819 240.872 240.819 241.544ZM238.719 241.004C238.719 240.652 238.599 240.372 238.359 240.164C238.119 239.956 237.819 239.852 237.459 239.852C237.115 239.852 236.823 239.952 236.583 240.152C236.351 240.352 236.207 240.636 236.151 241.004H238.719Z" fill="#A1A1A1"/>
<path d="M244.626 245.096C244.042 245.096 243.522 244.996 243.066 244.796C242.61 244.596 242.25 244.324 241.986 243.98C241.722 243.628 241.574 243.236 241.542 242.804H243.57C243.594 243.036 243.702 243.224 243.894 243.368C244.086 243.512 244.322 243.584 244.602 243.584C244.858 243.584 245.054 243.536 245.19 243.44C245.334 243.336 245.406 243.204 245.406 243.044C245.406 242.852 245.306 242.712 245.106 242.624C244.906 242.528 244.582 242.424 244.134 242.312C243.654 242.2 243.254 242.084 242.934 241.964C242.614 241.836 242.338 241.64 242.106 241.376C241.874 241.104 241.758 240.74 241.758 240.284C241.758 239.9 241.862 239.552 242.07 239.24C242.286 238.92 242.598 238.668 243.006 238.484C243.422 238.3 243.914 238.208 244.482 238.208C245.322 238.208 245.982 238.416 246.462 238.832C246.95 239.248 247.23 239.8 247.302 240.488H245.406C245.374 240.256 245.27 240.072 245.094 239.936C244.926 239.8 244.702 239.732 244.422 239.732C244.182 239.732 243.998 239.78 243.87 239.876C243.742 239.964 243.678 240.088 243.678 240.248C243.678 240.44 243.778 240.584 243.978 240.68C244.186 240.776 244.506 240.872 244.938 240.968C245.434 241.096 245.838 241.224 246.15 241.352C246.462 241.472 246.734 241.672 246.966 241.952C247.206 242.224 247.33 242.592 247.338 243.056C247.338 243.448 247.226 243.8 247.002 244.112C246.786 244.416 246.47 244.656 246.054 244.832C245.646 245.008 245.17 245.096 244.626 245.096Z" fill="#A1A1A1"/>
<path d="M252.325 243.26V245H251.281C250.537 245 249.957 244.82 249.541 244.46C249.125 244.092 248.917 243.496 248.917 242.672V240.008H248.101V238.304H248.917V236.672H250.969V238.304H252.313V240.008H250.969V242.696C250.969 242.896 251.017 243.04 251.113 243.128C251.209 243.216 251.369 243.26 251.593 243.26H252.325Z" fill="#A1A1A1"/>
<path d="M259.78 241.544C259.78 241.736 259.768 241.936 259.744 242.144H255.1C255.132 242.56 255.264 242.88 255.496 243.104C255.736 243.32 256.028 243.428 256.372 243.428C256.884 243.428 257.24 243.212 257.44 242.78H259.624C259.512 243.22 259.308 243.616 259.012 243.968C258.724 244.32 258.36 244.596 257.92 244.796C257.48 244.996 256.988 245.096 256.444 245.096C255.788 245.096 255.204 244.956 254.692 244.676C254.18 244.396 253.78 243.996 253.492 243.476C253.204 242.956 253.06 242.348 253.06 241.652C253.06 240.956 253.2 240.348 253.48 239.828C253.768 239.308 254.168 238.908 254.68 238.628C255.192 238.348 255.78 238.208 256.444 238.208C257.092 238.208 257.668 238.344 258.172 238.616C258.676 238.888 259.068 239.276 259.348 239.78C259.636 240.284 259.78 240.872 259.78 241.544ZM257.68 241.004C257.68 240.652 257.56 240.372 257.32 240.164C257.08 239.956 256.78 239.852 256.42 239.852C256.076 239.852 255.784 239.952 255.544 240.152C255.312 240.352 255.168 240.636 255.112 241.004H257.68Z" fill="#A1A1A1"/>
<path d="M260.455 241.64C260.455 240.952 260.583 240.348 260.839 239.828C261.103 239.308 261.459 238.908 261.907 238.628C262.355 238.348 262.855 238.208 263.407 238.208C263.847 238.208 264.247 238.3 264.607 238.484C264.975 238.668 265.263 238.916 265.471 239.228V236.12H267.523V245H265.471V244.04C265.279 244.36 265.003 244.616 264.643 244.808C264.291 245 263.879 245.096 263.407 245.096C262.855 245.096 262.355 244.956 261.907 244.676C261.459 244.388 261.103 243.984 260.839 243.464C260.583 242.936 260.455 242.328 260.455 241.64ZM265.471 241.652C265.471 241.14 265.327 240.736 265.039 240.44C264.759 240.144 264.415 239.996 264.007 239.996C263.599 239.996 263.251 240.144 262.963 240.44C262.683 240.728 262.543 241.128 262.543 241.64C262.543 242.152 262.683 242.56 262.963 242.864C263.251 243.16 263.599 243.308 264.007 243.308C264.415 243.308 264.759 243.16 265.039 242.864C265.327 242.568 265.471 242.164 265.471 241.652Z" fill="#A1A1A1"/>
</svg>
